<svg width="887" height="675" viewBox="0 0 887 675" fill="none" xmlns="http://www.w3.org/2000/svg">
<path d="M390.88 398.859V26.127C390.88 22.3155 393.97 19.2256 397.782 19.2256H490.26C494.072 19.2256 497.162 22.2416 497.162 26.0531V382.405C497.162 383.522 496.866 384.472 496.454 385.51C489.478 403.068 508.296 440.03 518.901 456.775L579.733 542.896C580.125 543.451 580.599 543.941 581.122 544.375C589.584 551.398 605.877 571.513 609.867 601.689C609.958 602.381 609.934 603.113 609.797 603.798C600.599 649.593 550.131 645.019 524.168 636.484C522.968 636.09 521.949 635.375 521.145 634.399C499.566 608.199 449.987 550.423 413.491 515.914C412.908 515.363 412.224 514.926 411.494 514.593C367.32 494.422 378.698 431.666 390.405 401.396C390.72 400.58 390.88 399.734 390.88 398.859Z" fill="black" stroke="black" stroke-width="13.8028"/>
<line x1="383.892" y1="59.2543" x2="503.977" y2="57.874" stroke="#CF3520" stroke-width="13.8028"/>
<line x1="383.892" y1="77.8881" x2="503.977" y2="76.5078" stroke="#CF3520" stroke-width="13.8028"/>
<path d="M478.001 404.168C476.404 405.36 474.19 407.326 474.231 408.575C474.297 410.61 475.284 412.921 477.314 413.078L479.969 413.283C481.146 413.374 482.123 412.388 482.023 411.213C481.932 410.132 480.94 409.396 479.878 409.177C479.392 409.077 478.963 408.892 478.746 408.575C478.402 408.075 478.991 407.106 479.69 406.26C480.215 405.625 480.157 404.653 479.489 404.171C479.043 403.849 478.442 403.838 478.001 404.168Z" fill="#CB8C48" stroke="#CB8C48" stroke-width="13.8028"/>
<path d="M480.27 410.156C479.431 413.483 477.422 412.014 476.044 412.524C474.172 413.216 472.424 410.329 470.518 410.918C461.555 413.689 458.615 421.382 458.179 426.017C458.112 426.727 457.973 427.43 457.874 428.137C457.448 431.197 459.498 434.243 461.597 437.579C463.879 441.207 471.299 442.643 477.401 442.73C477.794 442.736 478.19 442.772 478.58 442.825C488.921 444.238 495.111 435.181 496.935 430.387C500.172 423.973 493.128 414.382 492.678 414.142C492.428 414.009 481.109 406.83 480.27 410.156Z" fill="#CB8C48" stroke="#CB8C48" stroke-width="13.8028"/>
<path d="M421.409 194.364C419.813 195.557 417.598 197.522 417.639 198.772C417.705 200.807 418.692 203.117 420.722 203.274L423.377 203.479C424.554 203.57 425.532 202.585 425.432 201.409C425.34 200.328 424.349 199.593 423.286 199.373C422.8 199.273 422.371 199.088 422.154 198.772C421.81 198.272 422.399 197.302 423.098 196.456C423.623 195.821 423.565 194.85 422.897 194.368C422.451 194.046 421.85 194.035 421.409 194.364Z" fill="#CB8C48" stroke="#CB8C48" stroke-width="13.8028"/>
<path d="M423.678 200.353C422.839 203.679 420.831 202.211 419.452 202.72C417.58 203.412 415.832 200.525 413.926 201.114C404.963 203.885 402.023 211.579 401.587 216.213C401.52 216.924 401.381 217.626 401.282 218.333C400.856 221.393 402.906 224.44 405.005 227.776C407.287 231.403 414.707 232.84 420.809 232.927C421.202 232.932 421.599 232.969 421.989 233.022C432.329 234.434 438.519 225.378 440.343 220.583C443.58 214.169 436.536 204.578 436.087 204.339C435.836 204.205 424.517 197.026 423.678 200.353Z" fill="#CB8C48" stroke="#CB8C48" stroke-width="13.8028"/>
<path d="M473.859 95.6746C472.263 96.8673 470.048 98.833 470.089 100.082C470.156 102.117 471.142 104.427 473.172 104.584L475.827 104.79C477.004 104.88 477.982 103.895 477.882 102.719C477.79 101.639 476.799 100.903 475.737 100.684C475.25 100.583 474.821 100.399 474.604 100.082C474.261 99.5821 474.849 98.6129 475.549 97.7668C476.074 97.1319 476.016 96.1603 475.348 95.6782C474.901 95.3561 474.3 95.3451 473.859 95.6746Z" fill="#CB8C48" stroke="#CB8C48" stroke-width="13.8028"/>
<path d="M476.128 101.663C475.289 104.99 473.281 103.521 471.902 104.031C470.03 104.722 468.283 101.836 466.376 102.425C457.414 105.196 454.474 112.889 454.037 117.524C453.97 118.234 453.831 118.937 453.733 119.644C453.306 122.704 455.356 125.75 457.455 129.086C459.737 132.713 467.157 134.15 473.259 134.237C473.652 134.243 474.049 134.279 474.439 134.332C484.779 135.745 490.969 126.688 492.793 121.893C496.03 115.48 488.986 105.889 488.537 105.649C488.286 105.515 476.967 98.3364 476.128 101.663Z" fill="#CB8C48" stroke="#CB8C48" stroke-width="13.8028"/>
<path d="M493.874 529.083C492.277 530.275 490.063 532.241 490.104 533.49C490.17 535.526 491.157 537.836 493.187 537.993L495.842 538.198C497.019 538.289 497.996 537.303 497.896 536.128C497.805 535.047 496.813 534.311 495.751 534.092C495.265 533.992 494.836 533.807 494.619 533.49C494.275 532.99 494.864 532.021 495.563 531.175C496.088 530.54 496.03 529.568 495.362 529.086C494.916 528.764 494.315 528.753 493.874 529.083Z" fill="#CB8C48" stroke="#CB8C48" stroke-width="13.8028"/>
<path d="M496.143 535.071C495.304 538.398 493.295 536.929 491.917 537.439C490.045 538.13 488.297 535.243 486.391 535.833C477.428 538.603 474.488 546.297 474.052 550.932C473.985 551.642 473.846 552.345 473.747 553.051C473.321 556.111 475.371 559.158 477.47 562.494C479.752 566.121 487.172 567.558 493.274 567.645C493.667 567.65 494.063 567.687 494.453 567.74C504.794 569.153 510.984 560.096 512.808 555.301C516.045 548.887 509.001 539.297 508.551 539.057C508.301 538.923 496.982 531.744 496.143 535.071Z" fill="#CB8C48" stroke="#CB8C48" stroke-width="13.8028"/>
<path d="M551.984 588.729L552.058 588.939C552.918 591.378 550.702 593.787 548.201 593.132C547.495 592.947 546.872 592.528 546.435 591.944L540.847 584.474C538.277 581.039 533.13 580.723 530.794 584.322C518.304 603.574 538.177 614.162 551.164 615.647C552.989 615.856 554.712 616.715 555.779 618.211L556.721 619.531C558.778 622.417 563.161 622.095 564.776 618.941C565.723 617.092 567.781 616.13 569.857 616.208C589.75 616.959 599.638 592.479 586.272 580.409C582.155 576.692 577.818 582.303 575.904 587.509C574.57 591.137 571.448 593.093 568.227 594.007C565.641 594.741 563.748 592.096 564.602 589.547C565.471 586.955 563.542 584.274 560.808 584.274H555.136C552.83 584.274 551.216 586.554 551.984 588.729Z" stroke="#CF3520" stroke-width="6.90142"/>
<path d="M428.449 474.166L428.523 474.376C429.383 476.815 427.167 479.223 424.665 478.568C423.959 478.384 423.337 477.965 422.9 477.381L417.312 469.911C414.742 466.476 409.594 466.159 407.259 469.758C394.768 489.01 414.641 499.598 427.628 501.084C429.454 501.292 431.177 502.152 432.244 503.648L433.186 504.968C435.243 507.853 439.626 507.532 441.241 504.378C442.188 502.528 444.246 501.566 446.322 501.645C466.215 502.396 476.102 477.916 462.736 465.846C458.62 462.129 454.283 467.74 452.369 472.945C451.034 476.574 447.913 478.529 444.692 479.444C442.106 480.177 440.212 477.532 441.067 474.984C441.936 472.391 440.007 469.711 437.273 469.711H431.601C429.295 469.711 427.681 471.991 428.449 474.166Z" stroke="#CF3520" stroke-width="6.90142"/>
<path d="M417.407 358.222L417.481 358.432C418.341 360.871 416.125 363.279 413.623 362.625C412.917 362.44 412.295 362.021 411.858 361.437L406.27 353.967C403.7 350.532 398.552 350.216 396.217 353.815C383.726 373.066 403.599 383.654 416.586 385.14C418.412 385.348 420.135 386.208 421.202 387.704L422.144 389.024C424.201 391.909 428.584 391.588 430.199 388.434C431.146 386.584 433.204 385.622 435.28 385.701C455.173 386.452 465.06 361.972 451.694 349.902C447.578 346.185 443.241 351.796 441.327 357.001C439.992 360.63 436.871 362.586 433.65 363.5C431.064 364.233 429.17 361.588 430.025 359.04C430.894 356.448 428.965 353.767 426.231 353.767H420.559C418.253 353.767 416.639 356.047 417.407 358.222Z" stroke="#CF3520" stroke-width="6.90142"/>
<path d="M456.145 276.323L456.143 276.527C456.121 278.903 453.452 280.289 451.496 278.939C450.944 278.558 450.538 278.001 450.344 277.359L448.053 269.793C446.81 265.687 442.064 263.621 438.696 266.279C422.694 278.909 436.358 294.017 446.995 299.315C448.506 300.068 449.725 301.35 450.177 302.977L450.576 304.413C451.449 307.55 455.335 308.647 457.719 306.429C459.117 305.129 461.196 304.943 462.965 305.662C479.547 312.401 495.431 295.27 488.837 280.837C486.532 275.792 480.513 279.756 476.457 283.539C474.225 285.621 471.275 286.173 468.519 285.975C466.055 285.798 465.25 282.919 466.787 280.986C468.35 279.02 467.525 276.099 465.164 275.242L460.264 273.463C458.272 272.74 456.164 274.203 456.145 276.323Z" stroke="#CF3520" stroke-width="6.90142"/>
<path d="M421.59 141.697L421.547 141.853C420.985 143.843 418.426 144.396 417.093 142.815C416.717 142.369 416.503 141.809 416.486 141.227L416.319 135.414C416.196 131.135 412.143 127.865 408.273 129.695C393.254 136.794 401.11 152.099 408.672 158.846C409.768 159.824 410.497 161.179 410.506 162.647L410.513 163.944C410.53 166.775 413.536 168.585 416.045 167.275C417.517 166.507 419.303 166.828 420.621 167.837C432.481 176.91 448.803 167.48 448.178 154.705C447.907 149.164 440.752 151.663 435.377 153.039C433.488 153.523 431.524 153.251 429.763 152.627C427.743 151.911 427.729 149.318 429.459 148.054C431.218 146.767 431.197 144.134 429.417 142.877L425.693 140.245C424.19 139.183 422.09 139.927 421.59 141.697Z" stroke="#CF3520" stroke-width="6.90142"/>
<path d="M288.049 412.662V39.9297C288.049 36.1182 291.139 33.0283 294.951 33.0283H387.429C391.241 33.0283 394.331 36.0443 394.331 39.8558V396.208C394.331 397.325 394.035 398.275 393.623 399.313C386.647 416.871 405.465 453.833 416.07 470.578L476.902 556.699C477.294 557.254 477.768 557.744 478.291 558.178C486.753 565.2 503.046 585.316 507.035 615.492C507.127 616.184 507.103 616.916 506.966 617.6C497.768 663.396 447.299 658.822 421.337 650.287C420.137 649.892 419.118 649.177 418.314 648.202C396.735 622.002 347.156 564.226 310.66 529.717C310.077 529.166 309.392 528.729 308.663 528.395C264.489 508.225 275.867 445.468 287.573 415.198C287.889 414.382 288.049 413.537 288.049 412.662Z" fill="black" stroke="black" stroke-width="13.8028"/>
<line x1="281.061" y1="73.057" x2="401.146" y2="71.6768" stroke="#CF3520" stroke-width="13.8028"/>
<line x1="281.061" y1="91.6908" x2="401.146" y2="90.3106" stroke="#CF3520" stroke-width="13.8028"/>
<path d="M375.17 417.97C373.573 419.162 371.359 421.128 371.4 422.377C371.466 424.412 372.453 426.722 374.483 426.879L377.138 427.084C378.315 427.175 379.292 426.19 379.192 425.014C379.101 423.934 378.109 423.198 377.047 422.979C376.561 422.878 376.132 422.694 375.915 422.377C375.571 421.877 376.16 420.908 376.859 420.062C377.384 419.427 377.326 418.455 376.658 417.973C376.212 417.651 375.611 417.64 375.17 417.97Z" fill="#CB8C48" stroke="#CB8C48" stroke-width="13.8028"/>
<path d="M377.439 423.957C376.599 427.284 374.591 425.815 373.213 426.325C371.341 427.016 369.593 424.13 367.687 424.719C358.724 427.49 355.784 435.183 355.348 439.818C355.281 440.528 355.142 441.231 355.043 441.938C354.617 444.998 356.667 448.044 358.766 451.38C361.047 455.007 368.468 456.444 374.569 456.531C374.963 456.537 375.359 456.573 375.749 456.626C386.09 458.039 392.28 448.982 394.103 444.187C397.341 437.774 390.297 428.183 389.847 427.943C389.596 427.809 378.278 420.63 377.439 423.957Z" fill="#CB8C48" stroke="#CB8C48" stroke-width="13.8028"/>
<path d="M318.578 208.167C316.981 209.359 314.767 211.325 314.808 212.574C314.874 214.61 315.861 216.92 317.891 217.077L320.546 217.282C321.723 217.373 322.7 216.387 322.601 215.212C322.509 214.131 321.517 213.395 320.455 213.176C319.969 213.076 319.54 212.891 319.323 212.574C318.979 212.074 319.568 211.105 320.267 210.259C320.792 209.624 320.734 208.652 320.066 208.17C319.62 207.848 319.019 207.837 318.578 208.167Z" fill="#CB8C48" stroke="#CB8C48" stroke-width="13.8028"/>
<path d="M320.847 214.155C320.008 217.482 317.999 216.014 316.621 216.523C314.749 217.215 313.001 214.328 311.095 214.917C302.132 217.688 299.192 225.381 298.756 230.016C298.689 230.726 298.55 231.429 298.451 232.136C298.025 235.196 300.075 238.242 302.174 241.579C304.456 245.206 311.876 246.642 317.978 246.729C318.371 246.735 318.768 246.771 319.157 246.825C329.498 248.237 335.688 239.18 337.512 234.386C340.749 227.972 333.705 218.381 333.256 218.141C333.005 218.008 321.686 210.829 320.847 214.155Z" fill="#CB8C48" stroke="#CB8C48" stroke-width="13.8028"/>
<path d="M371.028 109.476C369.432 110.669 367.217 112.635 367.258 113.884C367.325 115.919 368.311 118.229 370.341 118.386L372.996 118.591C374.173 118.682 375.151 117.697 375.051 116.521C374.959 115.44 373.968 114.705 372.906 114.486C372.419 114.385 371.99 114.201 371.773 113.884C371.43 113.384 372.018 112.415 372.718 111.569C373.242 110.934 373.185 109.962 372.517 109.48C372.07 109.158 371.469 109.147 371.028 109.476Z" fill="#CB8C48" stroke="#CB8C48" stroke-width="13.8028"/>
<path d="M373.297 115.465C372.458 118.792 370.45 117.323 369.071 117.833C367.199 118.524 365.451 115.637 363.545 116.227C354.583 118.997 351.643 126.691 351.206 131.326C351.139 132.036 351 132.739 350.901 133.445C350.475 136.506 352.525 139.552 354.624 142.888C356.906 146.515 364.326 147.952 370.428 148.039C370.821 148.044 371.218 148.081 371.608 148.134C381.948 149.547 388.138 140.49 389.962 135.695C393.199 129.281 386.155 119.691 385.706 119.451C385.455 119.317 374.136 112.138 373.297 115.465Z" fill="#CB8C48" stroke="#CB8C48" stroke-width="13.8028"/>
<path d="M391.043 542.886C389.446 544.078 387.232 546.044 387.273 547.293C387.339 549.328 388.326 551.638 390.356 551.795L393.011 552C394.188 552.091 395.165 551.106 395.065 549.93C394.974 548.85 393.982 548.114 392.92 547.895C392.434 547.794 392.005 547.61 391.788 547.293C391.444 546.793 392.033 545.824 392.732 544.978C393.257 544.343 393.199 543.371 392.531 542.889C392.085 542.567 391.484 542.556 391.043 542.886Z" fill="#CB8C48" stroke="#CB8C48" stroke-width="13.8028"/>
<path d="M393.312 548.874C392.472 552.2 390.464 550.732 389.086 551.241C387.214 551.933 385.466 549.046 383.56 549.635C374.597 552.406 371.657 560.1 371.221 564.734C371.154 565.445 371.015 566.147 370.916 566.854C370.49 569.914 372.54 572.961 374.639 576.297C376.921 579.924 384.341 581.361 390.443 581.448C390.836 581.453 391.232 581.49 391.622 581.543C401.963 582.955 408.153 573.899 409.977 569.104C413.214 562.69 406.17 553.099 405.72 552.86C405.47 552.726 394.151 545.547 393.312 548.874Z" fill="#CB8C48" stroke="#CB8C48" stroke-width="13.8028"/>
<path d="M449.153 602.532L449.227 602.742C450.087 605.181 447.871 607.589 445.37 606.935C444.663 606.75 444.041 606.331 443.604 605.747L438.016 598.277C435.446 594.842 430.299 594.526 427.963 598.125C415.472 617.376 435.346 627.964 448.333 629.45C450.158 629.659 451.881 630.518 452.948 632.014L453.89 633.334C455.947 636.219 460.33 635.898 461.945 632.744C462.892 630.894 464.95 629.932 467.026 630.011C486.919 630.762 496.806 606.282 483.441 594.212C479.324 590.495 474.987 596.106 473.073 601.311C471.738 604.94 468.617 606.896 465.396 607.81C462.81 608.543 460.917 605.898 461.771 603.35C462.64 600.758 460.711 598.077 457.977 598.077H452.305C449.999 598.077 448.385 600.357 449.153 602.532Z" stroke="#CF3520" stroke-width="6.90142"/>
<path d="M325.617 487.969L325.692 488.179C326.552 490.617 324.336 493.026 321.834 492.371C321.128 492.186 320.506 491.768 320.069 491.183L314.48 483.714C311.911 480.278 306.763 479.962 304.428 483.561C291.937 502.813 311.81 513.401 324.797 514.886C326.623 515.095 328.346 515.954 329.413 517.45L330.355 518.771C332.412 521.656 336.795 521.335 338.41 518.181C339.357 516.331 341.414 515.369 343.491 515.447C363.384 516.199 373.271 491.719 359.905 479.649C355.789 475.931 351.452 481.543 349.538 486.748C348.203 490.376 345.082 492.332 341.86 493.246C339.275 493.98 337.381 491.335 338.236 488.786C339.105 486.194 337.176 483.513 334.442 483.513H328.77C326.464 483.513 324.85 485.794 325.617 487.969Z" stroke="#CF3520" stroke-width="6.90142"/>
<path d="M314.574 372.025L314.649 372.235C315.509 374.673 313.293 377.082 310.791 376.427C310.085 376.243 309.463 375.824 309.026 375.239L303.438 367.77C300.868 364.334 295.72 364.018 293.385 367.617C280.894 386.869 300.767 397.457 313.754 398.942C315.58 399.151 317.303 400.01 318.37 401.507L319.312 402.827C321.369 405.712 325.752 405.391 327.367 402.237C328.314 400.387 330.372 399.425 332.448 399.503C352.341 400.255 362.228 375.775 348.862 363.705C344.746 359.988 340.409 365.599 338.495 370.804C337.16 374.433 334.039 376.388 330.818 377.302C328.232 378.036 326.338 375.391 327.193 372.842C328.062 370.25 326.133 367.569 323.399 367.569H317.727C315.421 367.569 313.807 369.85 314.574 372.025Z" stroke="#CF3520" stroke-width="6.90142"/>
<path d="M353.313 290.124L353.312 290.329C353.29 292.705 350.621 294.091 348.665 292.741C348.113 292.36 347.707 291.803 347.513 291.161L345.222 283.595C343.979 279.489 339.233 277.423 335.865 280.081C319.863 292.711 333.527 307.818 344.164 313.117C345.675 313.87 346.894 315.152 347.346 316.779L347.745 318.215C348.618 321.352 352.504 322.449 354.888 320.231C356.286 318.93 358.365 318.745 360.134 319.464C376.716 326.203 392.6 309.072 386.006 294.638C383.701 289.594 377.682 293.558 373.626 297.341C371.394 299.422 368.444 299.975 365.688 299.777C363.224 299.6 362.419 296.721 363.956 294.788C365.519 292.821 364.694 289.901 362.333 289.044L357.433 287.265C355.441 286.542 353.333 288.005 353.313 290.124Z" stroke="#CF3520" stroke-width="6.90142"/>
<path d="M318.759 155.5L318.716 155.655C318.154 157.646 315.595 158.199 314.262 156.618C313.886 156.172 313.672 155.612 313.655 155.029L313.488 149.217C313.365 144.938 309.312 141.668 305.442 143.498C290.423 150.597 298.279 165.901 305.841 172.649C306.937 173.627 307.666 174.981 307.675 176.45L307.682 177.747C307.699 180.578 310.705 182.387 313.214 181.078C314.686 180.309 316.472 180.631 317.79 181.64C329.65 190.713 345.972 181.282 345.347 168.507C345.076 162.966 337.921 165.466 332.546 166.842C330.656 167.326 328.693 167.054 326.932 166.43C324.912 165.714 324.898 163.121 326.628 161.856C328.387 160.57 328.366 157.937 326.586 156.679L322.861 154.047C321.359 152.986 319.259 153.73 318.759 155.5Z" stroke="#CF3520" stroke-width="6.90142"/>
</svg>
