<svg width="623" height="584" viewBox="0 0 623 584" fill="none" xmlns="http://www.w3.org/2000/svg">
<ellipse cx="326.72" cy="292.169" rx="295.384" ry="291.266" fill="#644F38"/>
<ellipse cx="295.974" cy="292.169" rx="295.384" ry="291.266" fill="#E7BD8F"/>
<ellipse cx="279.777" cy="290.797" rx="219.891" ry="231.146" fill="#644F38"/>
<ellipse cx="298.993" cy="286.679" rx="219.342" ry="227.028" fill="#DB9C58"/>
<path d="M289.792 270.982H295.319C296.009 270.982 296.692 271.112 297.333 271.365L311.148 276.812L303.511 288.254C302.909 289.157 302.588 290.217 302.588 291.302V307.179C302.588 309.67 304.264 311.848 306.672 312.486L318.123 315.521C320.261 316.088 322.531 315.316 323.88 313.564L325.09 311.992C325.391 311.602 325.743 311.254 326.136 310.957L371.454 276.812L404.809 257.405C406.118 256.644 407.682 256.457 409.133 256.888L431.824 263.627C434.106 264.304 436.564 263.435 437.912 261.473L452.326 240.501C453.112 239.358 453.436 237.96 453.233 236.588L448.88 207.155C448.634 205.49 447.647 204.03 446.173 203.218C438.785 199.142 426.737 193.147 417.785 190.59C414.311 189.597 411.296 185.777 410.345 182.291C407.471 171.768 396.821 157.957 397.133 153.603C397.522 148.161 352.778 145.441 353.557 159.044C354.16 169.594 343.6 196.093 337.755 209.153C337.402 209.941 336.864 210.63 336.191 211.17L286.36 251.066C285.059 252.108 284.301 253.685 284.301 255.352V265.492C284.301 268.524 286.76 270.982 289.792 270.982Z" fill="#644F38"/>
<path d="M148.07 352.213L190.344 343.63C191.479 343.399 192.513 342.815 193.297 341.961L241.273 289.678C244.136 286.557 249.305 287.716 250.561 291.761L252.315 297.404C253.47 301.123 258.023 302.491 261.036 300.023L269.497 293.096C273.081 290.16 278.465 292.711 278.465 297.344V321.021C278.465 323.206 279.761 325.183 281.764 326.055L287.116 328.386C290.414 329.822 291.463 333.99 289.237 336.816L249.267 387.573C248.289 388.815 247.894 390.418 248.183 391.973L254.204 424.385C254.534 426.165 253.967 427.993 252.686 429.272L228.303 453.63C226.301 455.63 223.108 455.781 220.926 453.98L199.246 436.076C197.147 434.342 196.635 431.333 198.042 429.003L202.842 421.058C205.299 416.991 201.78 411.935 197.113 412.826L184.383 415.257C183.32 415.46 182.221 415.345 181.224 414.925L142.265 398.538C139.983 397.578 138.625 395.209 138.951 392.754L143.72 356.871C144.028 354.55 145.775 352.679 148.07 352.213Z" fill="#644F38"/>
<path d="M289.792 270.982H295.319C296.009 270.982 296.692 271.112 297.333 271.365L311.148 276.812L303.511 288.254C302.909 289.157 302.588 290.217 302.588 291.302V307.179C302.588 309.67 304.264 311.848 306.672 312.486L318.123 315.521C320.261 316.088 322.531 315.316 323.88 313.564L325.09 311.992C325.391 311.602 325.743 311.254 326.136 310.957L371.454 276.812L404.809 257.405C406.118 256.644 407.682 256.457 409.133 256.888L431.824 263.627C434.106 264.304 436.564 263.435 437.912 261.473L452.326 240.501C453.112 239.358 453.436 237.96 453.233 236.588L448.88 207.155C448.634 205.49 447.647 204.03 446.173 203.218C438.785 199.142 426.737 193.147 417.785 190.59C414.311 189.597 411.296 185.777 410.345 182.291C407.471 171.768 396.821 157.957 397.133 153.603C397.522 148.161 352.778 145.441 353.557 159.044C354.16 169.594 343.6 196.093 337.755 209.153C337.402 209.941 336.864 210.63 336.191 211.17L286.36 251.066C285.059 252.108 284.301 253.685 284.301 255.352V265.492C284.301 268.524 286.76 270.982 289.792 270.982Z" stroke="#644F38" stroke-width="10.9808"/>
<path d="M148.07 352.213L190.344 343.63C191.479 343.399 192.513 342.815 193.297 341.961L241.273 289.678C244.136 286.557 249.305 287.716 250.561 291.761L252.315 297.404C253.47 301.123 258.023 302.491 261.036 300.023L269.497 293.096C273.081 290.16 278.465 292.711 278.465 297.344V321.021C278.465 323.206 279.761 325.183 281.764 326.055L287.116 328.386C290.414 329.822 291.463 333.99 289.237 336.816L249.267 387.573C248.289 388.815 247.894 390.418 248.183 391.973L254.204 424.385C254.534 426.165 253.967 427.993 252.686 429.272L228.303 453.63C226.301 455.63 223.108 455.781 220.926 453.98L199.246 436.076C197.147 434.342 196.635 431.333 198.042 429.003L202.842 421.058C205.299 416.991 201.78 411.935 197.113 412.826L184.383 415.257C183.32 415.46 182.221 415.345 181.224 414.925L142.265 398.538C139.983 397.578 138.625 395.209 138.951 392.754L143.72 356.871C144.028 354.55 145.775 352.679 148.07 352.213Z" stroke="#644F38" stroke-width="10.9808"/>
<path d="M280.458 260.001H285.985C286.675 260.001 287.358 260.13 287.999 260.383L301.814 265.831L294.177 277.273C293.575 278.175 293.254 279.236 293.254 280.321V296.198C293.254 298.688 294.93 300.867 297.338 301.505L308.789 304.54C310.927 305.107 313.197 304.335 314.546 302.583L315.756 301.011C316.057 300.62 316.409 300.272 316.802 299.976L362.12 265.831L395.475 246.424C396.784 245.663 398.348 245.475 399.799 245.906L422.49 252.645C424.772 253.323 427.23 252.453 428.578 250.492L442.992 229.519C443.778 228.376 444.102 226.978 443.899 225.606L439.546 196.174C439.3 194.509 438.313 193.049 436.839 192.236C429.451 188.161 417.403 182.166 408.451 179.608C404.977 178.616 401.962 174.795 401.011 171.309C398.137 160.786 387.487 146.975 387.799 142.621C388.188 137.18 343.444 134.459 344.223 148.063C344.826 158.612 334.266 185.111 328.421 198.172C328.068 198.959 327.53 199.649 326.857 200.188L277.026 240.084C275.725 241.126 274.967 242.703 274.967 244.37V254.51C274.967 257.542 277.426 260.001 280.458 260.001Z" fill="#F3DEC7"/>
<path d="M138.736 341.232L181.01 332.649C182.145 332.418 183.179 331.834 183.963 330.98L231.939 278.696C234.802 275.576 239.971 276.735 241.227 280.779L242.981 286.423C244.136 290.142 248.689 291.509 251.702 289.042L260.163 282.114C263.747 279.179 269.131 281.729 269.131 286.362V310.04C269.131 312.225 270.427 314.202 272.43 315.074L277.782 317.404C281.08 318.841 282.129 323.008 279.903 325.835L239.933 376.592C238.955 377.834 238.56 379.437 238.849 380.991L244.87 413.404C245.2 415.184 244.633 417.012 243.352 418.291L218.969 442.649C216.967 444.649 213.774 444.8 211.592 442.998L189.912 425.094C187.813 423.361 187.301 420.352 188.708 418.022L193.508 410.076C195.965 406.009 192.446 400.953 187.779 401.845L175.049 404.276C173.986 404.479 172.887 404.363 171.89 403.944L132.931 387.557C130.649 386.597 129.291 384.228 129.617 381.773L134.386 345.889C134.694 343.568 136.441 341.698 138.736 341.232Z" fill="#F3DEC7"/>
<path d="M280.458 260.001H285.985C286.675 260.001 287.358 260.13 287.999 260.383L301.814 265.831L294.177 277.273C293.575 278.175 293.254 279.236 293.254 280.321V296.198C293.254 298.688 294.93 300.867 297.338 301.505L308.789 304.54C310.927 305.107 313.197 304.335 314.546 302.583L315.756 301.011C316.057 300.62 316.409 300.272 316.802 299.976L362.12 265.831L395.475 246.424C396.784 245.663 398.348 245.475 399.799 245.906L422.49 252.645C424.772 253.323 427.23 252.453 428.578 250.492L442.992 229.519C443.778 228.376 444.102 226.978 443.899 225.606L439.546 196.174C439.3 194.509 438.313 193.049 436.839 192.236C429.451 188.161 417.403 182.166 408.451 179.608C404.977 178.616 401.962 174.795 401.011 171.309C398.137 160.786 387.487 146.975 387.799 142.621C388.188 137.18 343.444 134.459 344.223 148.063C344.826 158.612 334.266 185.111 328.421 198.172C328.068 198.959 327.53 199.649 326.857 200.188L277.026 240.084C275.725 241.126 274.967 242.703 274.967 244.37V254.51C274.967 257.542 277.426 260.001 280.458 260.001Z" stroke="#F3DEC7" stroke-width="10.9808"/>
<path d="M138.736 341.232L181.01 332.649C182.145 332.418 183.179 331.834 183.963 330.98L231.939 278.696C234.802 275.576 239.971 276.735 241.227 280.779L242.981 286.423C244.136 290.142 248.689 291.509 251.702 289.042L260.163 282.114C263.747 279.179 269.131 281.729 269.131 286.362V310.04C269.131 312.225 270.427 314.202 272.43 315.074L277.782 317.404C281.08 318.841 282.129 323.008 279.903 325.835L239.933 376.592C238.955 377.834 238.56 379.437 238.849 380.991L244.87 413.404C245.2 415.184 244.633 417.012 243.352 418.291L218.969 442.649C216.967 444.649 213.774 444.8 211.592 442.998L189.912 425.094C187.813 423.361 187.301 420.352 188.708 418.022L193.508 410.076C195.965 406.009 192.446 400.953 187.779 401.845L175.049 404.276C173.986 404.479 172.887 404.363 171.89 403.944L132.931 387.557C130.649 386.597 129.291 384.228 129.617 381.773L134.386 345.889C134.694 343.568 136.441 341.698 138.736 341.232Z" stroke="#F3DEC7" stroke-width="10.9808"/>
</svg>
