<svg width="194" height="194" viewBox="0 0 194 194" fill="none" xmlns="http://www.w3.org/2000/svg">
<path d="M96.9995 28.4107L112.399 75.8047L162.232 75.8047L121.916 105.096L137.315 152.49L96.9995 123.199L56.6837 152.49L72.083 105.096L31.7672 75.8047L81.6002 75.8047L96.9995 28.4107Z" fill="#D9D9D9"/>
<path d="M114.752 30.7478L117.36 80.5126L165.495 93.4103L118.972 111.269L121.58 161.034L90.2192 122.306L43.6961 140.165L70.8371 98.3712L39.4761 59.6436L87.6112 72.5413L114.752 30.7478Z" fill="#D9D9D9"/>
<path d="M145.5 48.5L122.876 92.9016L158.113 128.139L108.894 120.343L86.2698 164.745L78.4742 115.525L29.2546 107.73L73.6562 85.106L65.8606 35.8864L101.098 71.1237L145.5 48.5Z" fill="#D9D9D9"/>
</svg>
