<svg width="649" height="696" viewBox="0 0 649 696" fill="none" xmlns="http://www.w3.org/2000/svg">
<path d="M275.497 406.095V306.834H421.462V457.186C453.088 461.565 527.433 474.118 571.806 489.299C616.18 504.481 632.139 561.799 634.571 588.561V689.282H91.0083H55.0903C45.8458 665.439 32.9036 607.245 55.0903 565.205C82.8236 512.655 116.396 506.816 161.645 489.299C197.844 475.286 252.63 427.991 275.497 406.095Z" fill="#8FB8E7" stroke="black" stroke-width="10"/>
<path d="M369.514 55.0529C353.225 46.5541 320.327 29.0252 319.052 26.9005C317.778 24.7758 310.022 23.1823 306.304 22.6511H287.713M350.392 39.1176L337.644 29.0252L324.895 18.9329L321.974 19.9952L319.052 21.0576L311.616 13.6211" stroke="#2E2E2E" stroke-width="5"/>
<path d="M371.106 480.531C379.074 475.75 406.341 443.348 420.505 424.757V444.411C488.496 453.264 627.133 475.113 637.757 491.686L645.725 693.002H3V529.93C22.2994 517.359 61.4295 490.729 63.5542 484.78C78.0731 477.698 108.386 461.621 113.485 453.972C142.523 437.328 201.342 401.598 204.316 391.824H290.367C309.48 439.354 345.883 536.069 345.395 559.069C347.976 543.872 365.623 483.821 371.106 480.531Z" fill="black"/>
<path d="M345.078 561.801C345.078 553.833 365.185 484.084 371.106 480.531C379.074 475.75 406.341 443.348 420.505 424.757V444.411C488.496 453.264 627.133 475.113 637.757 491.686L645.725 693.002H3V529.93C22.2994 517.359 61.4295 490.729 63.5542 484.78C78.0731 477.698 108.386 461.621 113.485 453.972C142.523 437.328 201.342 401.598 204.316 391.824H290.367C310.375 441.578 349.328 545.228 345.078 561.801ZM345.078 561.801L356.764 593.672M359.42 615.981C358.535 623.24 357.295 638.397 359.42 640.946" stroke="#2E2E2E" stroke-width="5"/>
<path d="M192.63 119.33L189.975 155.981L244.686 210.161V200.069L206.972 145.358L192.63 119.33Z" fill="#50A768" stroke="#2E2E2E" stroke-width="5"/>
<path d="M192.1 154.916L240.437 209.627L166.072 167.664L185.195 169.789V158.103L192.1 154.916Z" fill="#308748" stroke="#2E2E2E" stroke-width="5"/>
<path d="M135.795 167.132L166.603 209.095L261.153 258.494L249.467 214.406L178.82 176.693L152.261 159.164L165.01 179.349L135.795 167.132Z" fill="#50A768" stroke="#2E2E2E" stroke-width="5"/>
<path d="M162.354 216.532L181.476 244.153L214.94 265.932L184.132 229.28V222.906L166.603 209.096L168.728 215.47L162.354 216.532Z" fill="#308748" stroke="#2E2E2E" stroke-width="5"/>
<path d="M175.63 239.904L272.835 315.331V317.987L137.916 235.654L175.63 239.904Z" fill="#308748" stroke="#2E2E2E" stroke-width="5"/>
<path d="M240.438 372.698L286.12 417.316L277.09 320.642C249.468 303.467 193.695 269.33 191.57 270.18C189.445 271.03 151.023 245.038 132.078 231.936L139.515 242.559L200.069 312.143C206.443 322.59 219.935 343.695 222.909 344.545C225.884 345.395 244.334 363.667 253.187 372.698H240.438Z" fill="#70C788" stroke="#2E2E2E" stroke-width="5"/>
<path d="M217.065 316.397L277.619 353.579V298.868L244.686 285.057C240.012 278.683 206.972 265.758 191.037 260.092L217.065 316.397Z" fill="#70C788" stroke="#2E2E2E" stroke-width="5"/>
<path d="M220.251 273.368L271.244 294.615V293.553L264.338 262.213L182.537 221.844V227.687L220.251 273.368Z" fill="#70C788" stroke="#2E2E2E" stroke-width="5"/>
<path d="M174.569 351.983C174.144 354.532 265.046 415.016 310.55 444.939L277.086 362.606C244.153 341.182 177.756 298.334 175.632 298.334C173.507 298.334 140.043 268.234 123.576 253.184L159.165 305.239L152.791 306.301L181.475 348.264C179.35 348.441 174.994 349.433 174.569 351.983Z" fill="#50A768" stroke="#2E2E2E" stroke-width="5"/>
<path d="M234.59 308.955L273.897 343.482V296.738L235.652 283.459L253.181 308.955H234.59Z" fill="#308748" stroke="#2E2E2E" stroke-width="5"/>
<path d="M531.236 120.922L534.176 157.359L473.622 211.222V201.189L515.363 146.797L531.236 120.922Z" fill="#50A768" stroke="#2E2E2E" stroke-width="5"/>
<path d="M531.041 155.98L477.871 211.223L559.672 168.852L538.637 170.998V159.198L531.041 155.98Z" fill="#308748" stroke="#2E2E2E" stroke-width="5"/>
<path d="M593.672 168.237L559.731 210.424L455.566 260.088L468.44 215.764L546.271 177.849L575.531 160.227L561.486 180.519L593.672 168.237Z" fill="#50A768" stroke="#2E2E2E" stroke-width="5"/>
<path d="M564.988 217.664L543.741 245.544L506.559 267.525L540.79 230.532V224.098L560.267 210.158L557.906 216.592L564.988 217.664Z" fill="#308748" stroke="#2E2E2E" stroke-width="5"/>
<path d="M548.908 240.994L441.753 316.907V319.58L590.482 236.717L548.908 240.994Z" fill="#308748" stroke="#2E2E2E" stroke-width="5"/>
<path d="M478.35 373.892L427.943 418.383L437.907 321.986C468.386 304.86 529.929 270.821 532.274 271.668C534.618 272.516 577.015 246.598 597.92 233.533L589.714 244.126L522.896 313.511C515.862 323.928 500.975 344.973 497.692 345.82C494.41 346.668 474.052 364.888 464.283 373.892H478.35Z" fill="#70C788" stroke="#2E2E2E" stroke-width="5"/>
<path d="M503.309 317.459L436.439 354.641V299.93L472.807 286.12C477.968 279.746 514.453 266.82 532.051 261.154L503.309 317.459Z" fill="#70C788" stroke="#2E2E2E" stroke-width="5"/>
<path d="M500.671 274.807L443.877 296.209V295.139L451.568 263.57L542.676 222.906V228.792L500.671 274.807Z" fill="#70C788" stroke="#2E2E2E" stroke-width="5"/>
<path d="M550.502 353.307C550.968 355.849 451.285 416.165 401.385 446.005L438.081 363.901C474.196 342.536 547.006 299.806 549.336 299.806C551.666 299.806 588.363 269.79 606.42 254.781L567.393 306.692L574.383 307.752L542.929 349.599C545.259 349.775 550.036 350.764 550.502 353.307Z" fill="#50A768" stroke="#2E2E2E" stroke-width="5"/>
<path d="M484.244 310.244L441.75 345.076V297.918L483.096 284.521L464.146 310.244H484.244Z" fill="#308748" stroke="#2E2E2E" stroke-width="5"/>
<g filter="url(#filter0_d_163_701)">
<path d="M207.504 151.196L242.03 196.877C253.209 218.283 273.37 293.552 284.525 345.076C292.797 383.285 311.083 332.859 384.917 407.224L437.074 418.378C449.711 410.108 467.479 427.072 476.811 407.224C496.641 396.715 495.402 278.682 523.023 284.107C527.884 264.647 527.318 204.577 515.653 136.857C503.988 69.1379 457.688 59.305 427.411 35.402C413.07 24.08 327.039 14.1804 279.213 43.3698C231.387 72.5592 214.308 122.007 207.504 151.196Z" fill="#8FB8E7"/>
<path d="M207.504 151.196L242.03 196.877C253.209 218.283 273.37 293.552 284.525 345.076C292.797 383.285 311.083 332.859 384.917 407.224L437.074 418.378C449.711 410.108 467.479 427.072 476.811 407.224C496.641 396.715 495.402 278.682 523.023 284.107C527.884 264.647 527.318 204.577 515.653 136.857C503.988 69.1379 457.688 59.305 427.411 35.402C413.07 24.08 327.039 14.1804 279.213 43.3698C231.387 72.5592 214.308 122.007 207.504 151.196Z" stroke="black" stroke-width="10"/>
</g>
<path d="M410.573 203.785C410.573 209.992 406.696 215.946 399.732 220.469C392.792 224.975 383.055 227.844 372.172 227.844C361.289 227.844 351.553 224.975 344.613 220.469C337.648 215.946 333.771 209.992 333.771 203.785C333.771 197.578 337.648 191.624 344.613 187.102C351.553 182.596 361.289 179.727 372.172 179.727C383.055 179.727 392.792 182.596 399.732 187.102C406.696 191.624 410.573 197.578 410.573 203.785Z" fill="#70C788" stroke="black" stroke-width="5"/>
<path d="M381.758 204.846C381.758 210.605 379.801 215.835 377.83 219.64C376.846 221.54 375.861 223.078 375.124 224.139C374.786 224.626 374.5 225.012 374.29 225.287C374.08 225.012 373.794 224.626 373.456 224.139C372.718 223.078 371.734 221.54 370.75 219.64C368.779 215.835 366.822 210.605 366.822 204.846C366.822 199.082 368.782 193.315 370.761 188.967C371.749 186.798 372.736 184.992 373.476 183.729C373.803 183.172 374.081 182.72 374.29 182.391C374.498 182.72 374.777 183.172 375.104 183.729C375.844 184.992 376.831 186.798 377.819 188.967C379.798 193.315 381.758 199.082 381.758 204.846Z" fill="#DB9C58" stroke="black"/>
<path d="M515.741 204.844C515.741 210.709 511.92 216.399 504.939 220.751C497.993 225.081 488.242 227.841 477.34 227.841C466.438 227.841 456.687 225.081 449.741 220.751C442.76 216.399 438.939 210.709 438.939 204.844C438.939 198.98 442.76 193.289 449.741 188.937C456.687 184.607 466.438 181.848 477.34 181.848C488.242 181.848 497.993 184.607 504.939 188.937C511.92 193.289 515.741 198.98 515.741 204.844Z" fill="#70C788" stroke="black" stroke-width="5"/>
<path d="M475.215 279.211L489.557 268.057" stroke="black" stroke-width="5"/>
<path d="M436.975 268.057L455.035 278.149" stroke="black" stroke-width="5"/>
<path d="M484.812 204.849C484.812 210.607 482.856 215.837 480.884 219.643C479.9 221.543 478.916 223.08 478.179 224.141C477.84 224.628 477.554 225.014 477.345 225.289C477.135 225.014 476.849 224.628 476.51 224.141C475.773 223.08 474.789 221.543 473.805 219.643C471.833 215.837 469.877 210.607 469.877 204.849C469.877 199.091 471.833 193.86 473.805 190.055C474.789 188.155 475.773 186.618 476.51 185.557C476.849 185.069 477.135 184.683 477.345 184.408C477.554 184.683 477.84 185.069 478.179 185.557C478.916 186.618 479.9 188.155 480.884 190.055C482.856 193.86 484.812 199.091 484.812 204.849Z" fill="#DB9C58" stroke="black"/>
<path d="M317.99 228.751L333.925 256.904H324.364L333.925 285.587L380.668 306.834C384.387 314.094 392.779 328.613 396.604 328.613C400.428 328.613 407.404 330.737 410.414 331.8L449.722 314.271L461.407 320.645L472.031 314.271C473.45 316.473 475.319 319.236 477.343 322.027M485.292 331.8C487.872 334.444 490.058 335.926 491.153 334.987L485.292 331.8ZM485.292 331.8C482.802 329.248 479.944 325.614 477.343 322.027M477.343 322.027L472.031 328.613C474.156 333.747 477.555 344.548 474.156 346.673C470.628 348.878 442.938 348.52 432.724 346.511M432.724 346.511C430.634 346.1 429.276 345.62 429.006 345.079C427.731 342.53 430.953 344.972 432.724 346.511ZM270.184 225.033C278.505 225.918 295.361 228.858 296.211 233.532C297.061 238.206 299.398 270.183 300.461 285.587L332.863 313.36L368.451 333.393C371.993 339.945 378.225 354.003 374.826 357.828C383.324 364.025 402.341 376.312 410.414 375.888C418.488 375.463 437.859 363.67 446.534 357.828C453.794 361.723 469.056 370.151 472.031 372.7" stroke="#2E2E2E" stroke-width="3" stroke-linecap="square"/>
<path d="M266.993 25.8424L289.833 23.1866H309.487L318.517 27.436L307.362 30.0919L294.083 35.9348L285.584 40.1842L272.836 49.7454L257.963 60.9001L245.746 73.1172L234.591 89.0525L220.249 112.956L214.406 82.1472C233.373 77.6116 242.872 51.038 245.522 37.1709C240.884 35.8193 243.617 35.7711 245.746 35.9348C245.677 36.3343 245.603 36.7467 245.522 37.1709C245.9 37.2812 246.327 37.4001 246.808 37.5283C253.182 39.2281 262.92 30.446 266.993 25.8424Z" fill="#50A768"/>
<path d="M418.91 16.2812C434.207 19.2558 455.738 52.5784 464.591 68.8678L461.404 73.1172L422.628 27.436L406.161 23.1866L418.91 16.2812Z" fill="#50A768"/>
<path d="M266.993 25.8424L289.833 23.1866H309.487L318.517 27.436L307.362 30.0919L294.083 35.9348L285.584 40.1842L272.836 49.7454L257.963 60.9001L245.746 73.1172L234.591 89.0525L220.249 112.956L214.406 82.1472C233.373 77.6116 242.872 51.038 245.522 37.1709C240.884 35.8193 243.617 35.7711 245.746 35.9348C245.677 36.3343 245.603 36.7467 245.522 37.1709C245.9 37.2812 246.327 37.4001 246.808 37.5283C253.182 39.2281 262.92 30.446 266.993 25.8424Z" stroke="#2E2E2E" stroke-width="5"/>
<path d="M418.91 16.2812C434.207 19.2558 455.738 52.5784 464.591 68.8678L461.404 73.1172L422.628 27.436L406.161 23.1866L418.91 16.2812Z" stroke="#2E2E2E" stroke-width="5"/>
<path d="M367.915 38.5889L385.975 58.2424L365.259 54.5242L324.359 23.7159L294.082 21.06H279.209L262.211 7.7806H271.241L284.52 16.2794L289.832 9.9053L281.864 3H286.645L299.393 9.9053L308.423 7.7806C332.22 8.63048 353.042 30.09 360.479 40.7136L367.915 38.5889Z" fill="#50A768" stroke="#2E2E2E" stroke-width="5"/>
<path d="M319.582 124.108L287.711 138.45L296.741 116.141L219.72 138.45L230.875 116.141H203.785L219.72 102.33H278.15L319.582 124.108Z" fill="#50A768"/>
<path d="M296.741 116.141L287.711 138.45L319.582 124.108L278.15 102.33M296.741 116.141L219.72 138.45L230.875 116.141H203.785L219.72 102.33H278.15M296.741 116.141L278.15 102.33" stroke="#2E2E2E" stroke-width="5"/>
<path d="M309.488 78.4258C324.538 88.8723 354.638 112.846 354.638 125.169C354.638 137.493 392.529 162.883 411.474 174.038" stroke="#2E2E2E" stroke-width="5"/>
<path d="M366.322 76.3008C389.34 86.039 434.632 107.746 431.657 116.67C428.682 125.594 461.226 148.01 477.869 158.102" stroke="#2E2E2E" stroke-width="5"/>
<path d="M403.507 216.53V193.158C405.411 194.271 409.135 198.055 408.797 204.288C408.458 210.52 405.129 215.046 403.507 216.53Z" fill="black" stroke="black" stroke-width="5"/>
<path d="M444.937 193.16L445.573 216.523C443.639 215.463 439.813 211.781 439.982 205.542C440.151 199.303 443.355 194.688 444.937 193.16Z" fill="black" stroke="black" stroke-width="5"/>
<path d="M507.618 215.473V192.102C509.522 193.215 513.247 196.999 512.908 203.231C512.569 209.463 509.24 213.989 507.618 215.473Z" fill="black" stroke="black" stroke-width="5"/>
<path d="M340.825 192.097L341.427 215.461C339.495 214.397 335.674 210.71 335.852 204.471C336.03 198.232 339.242 193.622 340.825 192.097Z" fill="black" stroke="black" stroke-width="5"/>
<path d="M344.018 382.26V412.006C351.454 419.088 364.733 434.421 358.359 439.096C351.985 443.77 346.142 458.395 344.018 465.123" stroke="#2E2E2E" stroke-width="3"/>
<defs>
<filter id="filter0_d_163_701" x="198.104" y="19.1855" width="336.801" height="412.518" filterUnits="userSpaceOnUse" color-interpolation-filters="sRGB">
<feFlood flood-opacity="0" result="BackgroundImageFix"/>
<feColorMatrix in="SourceAlpha" type="matrix" values="0 0 0 0 0 0 0 0 0 0 0 0 0 0 0 0 0 0 127 0" result="hardAlpha"/>
<feOffset dy="4"/>
<feGaussianBlur stdDeviation="2"/>
<feComposite in2="hardAlpha" operator="out"/>
<feColorMatrix type="matrix" values="0 0 0 0 0 0 0 0 0 0 0 0 0 0 0 0 0 0 0.25 0"/>
<feBlend mode="normal" in2="BackgroundImageFix" result="effect1_dropShadow_163_701"/>
<feBlend mode="normal" in="SourceGraphic" in2="effect1_dropShadow_163_701" result="shape"/>
</filter>
</defs>
</svg>
