<svg width="670" height="800" viewBox="0 0 670 800" fill="none" xmlns="http://www.w3.org/2000/svg">
<path d="M286.497 458.095V358.834H432.462V509.186C464.088 513.565 538.433 526.118 582.806 541.299C627.18 556.481 643.139 613.799 645.571 640.561V741.282H102.008H66.0903C56.8458 717.439 43.9036 659.245 66.0903 617.205C93.8236 564.655 127.396 558.816 172.645 541.299C208.844 527.286 263.63 479.991 286.497 458.095Z" fill="#8FB8E7" stroke="black" stroke-width="10"/>
<path d="M380.514 107.053C364.225 98.5541 331.327 81.0252 330.052 78.9005C328.778 76.7758 321.022 75.1823 317.304 74.6511H298.713M361.392 91.1176L348.644 81.0252L335.895 70.9329L332.974 71.9952L330.052 73.0576L322.616 65.6211" stroke="#2E2E2E" stroke-width="5"/>
<path d="M382.106 532.531C390.074 527.75 417.341 495.348 431.505 476.757V496.411C499.496 505.264 638.133 527.113 648.757 543.686L656.725 745.002H14V581.93C33.2994 569.359 72.4295 542.729 74.5542 536.78C89.0731 529.698 119.386 513.621 124.485 505.972C153.523 489.328 212.342 453.598 215.316 443.824H301.367C320.48 491.354 356.883 588.069 356.395 611.069C358.976 595.872 376.623 535.821 382.106 532.531Z" fill="black"/>
<path d="M356.078 613.801C356.078 605.833 376.185 536.084 382.106 532.531C390.074 527.75 417.341 495.348 431.505 476.757V496.411C499.496 505.264 638.133 527.113 648.757 543.686L656.725 745.002H14V581.93C33.2994 569.359 72.4295 542.729 74.5542 536.78C89.0731 529.698 119.386 513.621 124.485 505.972C153.523 489.328 212.342 453.598 215.316 443.824H301.367C321.375 493.578 360.328 597.228 356.078 613.801ZM356.078 613.801L367.764 645.672M370.42 667.981C369.535 675.24 368.295 690.397 370.42 692.946" stroke="#2E2E2E" stroke-width="5"/>
<path d="M203.63 171.33L200.975 207.981L255.686 262.161V252.069L217.972 197.358L203.63 171.33Z" fill="#50A768" stroke="#2E2E2E" stroke-width="5"/>
<path d="M203.1 206.916L251.437 261.627L177.072 219.664L196.195 221.789V210.103L203.1 206.916Z" fill="#308748" stroke="#2E2E2E" stroke-width="5"/>
<path d="M146.795 219.132L177.603 261.095L272.153 310.494L260.467 266.406L189.82 228.693L163.261 211.164L176.01 231.349L146.795 219.132Z" fill="#50A768" stroke="#2E2E2E" stroke-width="5"/>
<path d="M173.354 268.532L192.476 296.153L225.94 317.932L195.132 281.28V274.906L177.603 261.096L179.728 267.47L173.354 268.532Z" fill="#308748" stroke="#2E2E2E" stroke-width="5"/>
<path d="M186.63 291.904L283.835 367.331V369.987L148.916 287.654L186.63 291.904Z" fill="#308748" stroke="#2E2E2E" stroke-width="5"/>
<path d="M251.438 424.698L297.12 469.316L288.09 372.642C260.468 355.467 204.695 321.33 202.57 322.18C200.445 323.03 162.023 297.038 143.078 283.936L150.515 294.559L211.069 364.143C217.443 374.59 230.935 395.695 233.909 396.545C236.884 397.395 255.334 415.667 264.187 424.698H251.438Z" fill="#70C788" stroke="#2E2E2E" stroke-width="5"/>
<path d="M228.065 368.397L288.619 405.579V350.868L255.686 337.057C251.012 330.683 217.972 317.758 202.037 312.092L228.065 368.397Z" fill="#70C788" stroke="#2E2E2E" stroke-width="5"/>
<path d="M231.251 325.368L282.244 346.615V345.553L275.338 314.213L193.537 273.844V279.687L231.251 325.368Z" fill="#70C788" stroke="#2E2E2E" stroke-width="5"/>
<path d="M185.569 403.983C185.144 406.532 276.046 467.016 321.55 496.939L288.086 414.606C255.153 393.182 188.756 350.334 186.632 350.334C184.507 350.334 151.043 320.234 134.576 305.184L170.165 357.239L163.791 358.301L192.475 400.264C190.35 400.441 185.994 401.433 185.569 403.983Z" fill="#50A768" stroke="#2E2E2E" stroke-width="5"/>
<path d="M245.59 360.955L284.897 395.482V348.738L246.652 335.459L264.181 360.955H245.59Z" fill="#308748" stroke="#2E2E2E" stroke-width="5"/>
<path d="M542.236 172.922L545.176 209.359L484.622 263.222V253.189L526.363 198.797L542.236 172.922Z" fill="#50A768" stroke="#2E2E2E" stroke-width="5"/>
<path d="M542.041 207.98L488.871 263.223L570.672 220.852L549.637 222.998V211.198L542.041 207.98Z" fill="#308748" stroke="#2E2E2E" stroke-width="5"/>
<path d="M604.672 220.237L570.731 262.424L466.566 312.088L479.44 267.764L557.271 229.849L586.531 212.227L572.486 232.519L604.672 220.237Z" fill="#50A768" stroke="#2E2E2E" stroke-width="5"/>
<path d="M575.988 269.664L554.741 297.544L517.559 319.525L551.79 282.532V276.098L571.267 262.158L568.906 268.592L575.988 269.664Z" fill="#308748" stroke="#2E2E2E" stroke-width="5"/>
<path d="M559.908 292.994L452.753 368.907V371.58L601.482 288.717L559.908 292.994Z" fill="#308748" stroke="#2E2E2E" stroke-width="5"/>
<path d="M489.35 425.892L438.943 470.383L448.907 373.986C479.386 356.86 540.929 322.821 543.274 323.668C545.618 324.516 588.015 298.598 608.92 285.533L600.714 296.126L533.896 365.511C526.862 375.928 511.975 396.973 508.692 397.82C505.41 398.668 485.052 416.888 475.283 425.892H489.35Z" fill="#70C788" stroke="#2E2E2E" stroke-width="5"/>
<path d="M514.309 369.459L447.439 406.641V351.93L483.807 338.12C488.968 331.746 525.453 318.82 543.051 313.154L514.309 369.459Z" fill="#70C788" stroke="#2E2E2E" stroke-width="5"/>
<path d="M511.671 326.807L454.877 348.209V347.139L462.568 315.57L553.676 274.906V280.792L511.671 326.807Z" fill="#70C788" stroke="#2E2E2E" stroke-width="5"/>
<path d="M561.502 405.307C561.968 407.849 462.285 468.165 412.385 498.005L449.081 415.901C485.196 394.536 558.006 351.806 560.336 351.806C562.666 351.806 599.363 321.79 617.42 306.781L578.393 358.692L585.383 359.752L553.929 401.599C556.259 401.775 561.036 402.764 561.502 405.307Z" fill="#50A768" stroke="#2E2E2E" stroke-width="5"/>
<path d="M495.244 362.244L452.75 397.076V349.918L494.096 336.521L475.146 362.244H495.244Z" fill="#308748" stroke="#2E2E2E" stroke-width="5"/>
<g filter="url(#filter0_d_192_569)">
<path d="M218.504 203.196L253.03 248.877C264.209 270.283 284.37 345.552 295.525 397.076C303.797 435.285 322.083 384.859 395.917 459.224L448.074 470.378C460.711 462.108 478.479 479.072 487.811 459.224C507.641 448.715 506.402 330.682 534.023 336.107C538.884 316.647 538.318 256.577 526.653 188.857C514.988 121.138 468.688 111.305 438.411 87.402C424.07 76.08 338.039 66.1804 290.213 95.3698C242.387 124.559 225.308 174.007 218.504 203.196Z" fill="#8FB8E7"/>
<path d="M218.504 203.196L253.03 248.877C264.209 270.283 284.37 345.552 295.525 397.076C303.797 435.285 322.083 384.859 395.917 459.224L448.074 470.378C460.711 462.108 478.479 479.072 487.811 459.224C507.641 448.715 506.402 330.682 534.023 336.107C538.884 316.647 538.318 256.577 526.653 188.857C514.988 121.138 468.688 111.305 438.411 87.402C424.07 76.08 338.039 66.1804 290.213 95.3698C242.387 124.559 225.308 174.007 218.504 203.196Z" stroke="black" stroke-width="10"/>
</g>
<path d="M421.573 255.785C421.573 261.992 417.696 267.946 410.732 272.469C403.792 276.975 394.055 279.844 383.172 279.844C372.289 279.844 362.553 276.975 355.613 272.469C348.648 267.946 344.771 261.992 344.771 255.785C344.771 249.578 348.648 243.624 355.613 239.102C362.553 234.596 372.289 231.727 383.172 231.727C394.055 231.727 403.792 234.596 410.732 239.102C417.696 243.624 421.573 249.578 421.573 255.785Z" fill="#70C788" stroke="black" stroke-width="5"/>
<path d="M392.758 256.846C392.758 262.605 390.801 267.835 388.83 271.64C387.846 273.54 386.861 275.078 386.124 276.139C385.786 276.626 385.5 277.012 385.29 277.287C385.08 277.012 384.794 276.626 384.456 276.139C383.718 275.078 382.734 273.54 381.75 271.64C379.779 267.835 377.822 262.605 377.822 256.846C377.822 251.082 379.782 245.315 381.761 240.967C382.749 238.798 383.736 236.992 384.476 235.729C384.803 235.172 385.081 234.72 385.29 234.391C385.498 234.72 385.777 235.172 386.104 235.729C386.844 236.992 387.831 238.798 388.819 240.967C390.798 245.315 392.758 251.082 392.758 256.846Z" fill="#DB9C58" stroke="black"/>
<path d="M526.741 256.844C526.741 262.709 522.92 268.399 515.939 272.751C508.993 277.081 499.242 279.841 488.34 279.841C477.438 279.841 467.687 277.081 460.741 272.751C453.76 268.399 449.939 262.709 449.939 256.844C449.939 250.98 453.76 245.289 460.741 240.937C467.687 236.607 477.438 233.848 488.34 233.848C499.242 233.848 508.993 236.607 515.939 240.937C522.92 245.289 526.741 250.98 526.741 256.844Z" fill="#70C788" stroke="black" stroke-width="5"/>
<path d="M486.215 331.211L500.557 320.057" stroke="black" stroke-width="5"/>
<path d="M447.975 320.057L466.035 330.149" stroke="black" stroke-width="5"/>
<path d="M495.812 256.849C495.812 262.607 493.856 267.837 491.884 271.643C490.9 273.543 489.916 275.08 489.179 276.141C488.84 276.628 488.554 277.014 488.345 277.289C488.135 277.014 487.849 276.628 487.51 276.141C486.773 275.08 485.789 273.543 484.805 271.643C482.833 267.837 480.877 262.607 480.877 256.849C480.877 251.091 482.833 245.86 484.805 242.055C485.789 240.155 486.773 238.618 487.51 237.557C487.849 237.069 488.135 236.683 488.345 236.408C488.554 236.683 488.84 237.069 489.179 237.557C489.916 238.618 490.9 240.155 491.884 242.055C493.856 245.86 495.812 251.091 495.812 256.849Z" fill="#DB9C58" stroke="black"/>
<path d="M328.99 280.751L344.925 308.904H335.364L344.925 337.587L391.668 358.834C395.387 366.094 403.779 380.613 407.604 380.613C411.428 380.613 418.404 382.737 421.414 383.8L460.722 366.271L472.407 372.645L483.031 366.271C484.45 368.473 486.319 371.236 488.343 374.027M496.292 383.8C498.872 386.444 501.058 387.926 502.153 386.987L496.292 383.8ZM496.292 383.8C493.802 381.248 490.944 377.614 488.343 374.027M488.343 374.027L483.031 380.613C485.156 385.747 488.555 396.548 485.156 398.673C481.628 400.878 453.938 400.52 443.724 398.511M443.724 398.511C441.634 398.1 440.276 397.62 440.006 397.079C438.731 394.53 441.953 396.972 443.724 398.511ZM281.184 277.033C289.505 277.918 306.361 280.858 307.211 285.532C308.061 290.206 310.398 322.183 311.461 337.587L343.863 365.36L379.451 385.393C382.993 391.945 389.225 406.003 385.826 409.828C394.324 416.025 413.341 428.312 421.414 427.888C429.488 427.463 448.859 415.67 457.534 409.828C464.794 413.723 480.056 422.151 483.031 424.7" stroke="#2E2E2E" stroke-width="3" stroke-linecap="square"/>
<path d="M277.993 77.8424L300.833 75.1866H320.487L329.517 79.436L318.362 82.0919L305.083 87.9348L296.584 92.1842L283.836 101.745L268.963 112.9L256.746 125.117L245.591 141.053L231.249 164.956L225.406 134.147C244.373 129.612 253.872 103.038 256.522 89.1709C251.884 87.8193 254.617 87.7711 256.746 87.9348C256.677 88.3343 256.603 88.7467 256.522 89.1709C256.9 89.2812 257.327 89.4001 257.808 89.5283C264.182 91.2281 273.92 82.446 277.993 77.8424Z" fill="#50A768"/>
<path d="M429.91 68.2812C445.207 71.2558 466.738 104.578 475.591 120.868L472.404 125.117L433.628 79.436L417.161 75.1866L429.91 68.2812Z" fill="#50A768"/>
<path d="M277.993 77.8424L300.833 75.1866H320.487L329.517 79.436L318.362 82.0919L305.083 87.9348L296.584 92.1842L283.836 101.745L268.963 112.9L256.746 125.117L245.591 141.053L231.249 164.956L225.406 134.147C244.373 129.612 253.872 103.038 256.522 89.1709C251.884 87.8193 254.617 87.7711 256.746 87.9348C256.677 88.3343 256.603 88.7467 256.522 89.1709C256.9 89.2812 257.327 89.4001 257.808 89.5283C264.182 91.2281 273.92 82.446 277.993 77.8424Z" stroke="#2E2E2E" stroke-width="5"/>
<path d="M429.91 68.2812C445.207 71.2558 466.738 104.578 475.591 120.868L472.404 125.117L433.628 79.436L417.161 75.1866L429.91 68.2812Z" stroke="#2E2E2E" stroke-width="5"/>
<path d="M378.915 90.5889L396.975 110.242L376.259 106.524L335.359 75.7159L305.082 73.06H290.209L273.211 59.7806H282.241L295.52 68.2794L300.832 61.9053L292.864 55H297.645L310.393 61.9053L319.423 59.7806C343.22 60.6305 364.042 82.09 371.479 92.7136L378.915 90.5889Z" fill="#50A768" stroke="#2E2E2E" stroke-width="5"/>
<path d="M330.582 176.108L298.711 190.45L307.741 168.141L230.72 190.45L241.875 168.141H214.785L230.72 154.33H289.15L330.582 176.108Z" fill="#50A768"/>
<path d="M307.741 168.141L298.711 190.45L330.582 176.108L289.15 154.33M307.741 168.141L230.72 190.45L241.875 168.141H214.785L230.72 154.33H289.15M307.741 168.141L289.15 154.33" stroke="#2E2E2E" stroke-width="5"/>
<path d="M320.488 130.426C335.538 140.872 365.638 164.846 365.638 177.169C365.638 189.493 403.529 214.883 422.474 226.038" stroke="#2E2E2E" stroke-width="5"/>
<path d="M377.322 128.301C400.34 138.039 445.632 159.746 442.657 168.67C439.682 177.594 472.226 200.01 488.869 210.102" stroke="#2E2E2E" stroke-width="5"/>
<path d="M414.507 268.53V245.158C416.411 246.271 420.135 250.055 419.797 256.288C419.458 262.52 416.129 267.046 414.507 268.53Z" fill="black" stroke="black" stroke-width="5"/>
<path d="M455.937 245.16L456.573 268.523C454.639 267.463 450.813 263.781 450.982 257.542C451.151 251.303 454.355 246.688 455.937 245.16Z" fill="black" stroke="black" stroke-width="5"/>
<path d="M518.618 267.473V244.102C520.522 245.215 524.247 248.999 523.908 255.231C523.569 261.463 520.24 265.989 518.618 267.473Z" fill="black" stroke="black" stroke-width="5"/>
<path d="M351.825 244.097L352.427 267.461C350.495 266.397 346.674 262.71 346.852 256.471C347.03 250.232 350.242 245.622 351.825 244.097Z" fill="black" stroke="black" stroke-width="5"/>
<path d="M355.018 434.26V464.006C362.454 471.088 375.733 486.421 369.359 491.096C362.985 495.77 357.142 510.395 355.018 517.123" stroke="#2E2E2E" stroke-width="3"/>
<defs>
<filter id="filter0_d_192_569" x="209.104" y="71.1855" width="336.801" height="412.518" filterUnits="userSpaceOnUse" color-interpolation-filters="sRGB">
<feFlood flood-opacity="0" result="BackgroundImageFix"/>
<feColorMatrix in="SourceAlpha" type="matrix" values="0 0 0 0 0 0 0 0 0 0 0 0 0 0 0 0 0 0 127 0" result="hardAlpha"/>
<feOffset dy="4"/>
<feGaussianBlur stdDeviation="2"/>
<feComposite in2="hardAlpha" operator="out"/>
<feColorMatrix type="matrix" values="0 0 0 0 0 0 0 0 0 0 0 0 0 0 0 0 0 0 0.25 0"/>
<feBlend mode="normal" in2="BackgroundImageFix" result="effect1_dropShadow_192_569"/>
<feBlend mode="normal" in="SourceGraphic" in2="effect1_dropShadow_192_569" result="shape"/>
</filter>
</defs>
</svg>
