<svg width="670" height="800" viewBox="0 0 670 800" fill="none" xmlns="http://www.w3.org/2000/svg">
<path d="M528.36 163.722L561.752 146.033L566.491 157.251L533.923 176.891L528.36 163.722Z" fill="#D9D9D9" stroke="black" stroke-width="4"/>
<path d="M561.638 142.668L553.081 146.035L549.99 154.465L553.408 162.555L561.323 165.544L569.88 162.178L570.928 155.661L567.51 147.572L561.638 142.668Z" fill="#D9D9D9" stroke="black" stroke-width="3"/>
<path d="M544.721 169.799C542.832 166.94 539.198 160.596 539.775 158.094" stroke="black"/>
<path d="M548.664 168.249C546.775 165.389 543.141 159.045 543.719 156.543" stroke="black"/>
<path d="M541.191 172.327C539.302 169.468 535.669 163.124 536.246 160.621" stroke="black"/>
<path d="M537.685 173.706C535.796 170.846 532.163 164.502 532.74 162" stroke="black"/>
<path d="M270.054 464.191V365.764H420.032V514.853C452.527 519.195 528.916 531.644 574.509 546.697C620.103 561.751 636.5 618.588 639 645.125V745H80.4927H43.5872C34.0886 721.358 20.7906 663.653 43.5872 621.966C72.083 569.857 106.578 564.067 153.071 546.697C190.266 532.801 246.557 485.904 270.054 464.191Z" fill="#C7F3D3" stroke="black" stroke-width="10"/>
<g filter="url(#filter0_d_236_580)">
<path d="M199.1 197.189V247.842C210.586 269.068 238.053 324.255 256.031 375.197C274.01 426.139 349.419 461.065 384.877 472.16H444.805C457.789 463.959 486.155 442.637 495.744 422.955C516.119 412.535 534.198 362.654 540.69 339.016C545.684 319.72 552.676 264.34 540.69 197.189C528.704 130.038 462.783 80.4469 431.321 64.0451C401.856 55.3618 330.642 45.2313 281.501 74.1756C232.36 103.12 206.091 168.245 199.1 197.189Z" fill="#C7F3D3"/>
<path d="M199.1 197.189V247.842C210.586 269.068 238.053 324.255 256.031 375.197C274.01 426.139 349.419 461.065 384.877 472.16H444.805C457.789 463.959 486.155 442.637 495.744 422.955C516.119 412.535 534.198 362.654 540.69 339.016C545.684 319.72 552.676 264.34 540.69 197.189C528.704 130.038 462.783 80.4469 431.321 64.0451C401.856 55.3618 330.642 45.2313 281.501 74.1756C232.36 103.12 206.091 168.245 199.1 197.189Z" stroke="black" stroke-width="10"/>
</g>
<path d="M168.382 225.708C152.711 313.238 209.754 334.909 240.234 334.804L220.655 232.364C201.578 207.9 177.858 217.733 168.382 225.708Z" fill="#C7F3D3" stroke="black" stroke-width="10"/>
<path d="M187.094 249.885L204.551 266.293M226.057 310.452L222.28 302.77M222.28 302.77L215.334 288.644L218.067 278.997L204.551 266.293M222.28 302.77C220.864 304.736 217.164 307.664 213.693 303.646C209.354 298.623 192.811 269.804 204.551 266.293" stroke="black" stroke-width="5"/>
<rect width="51.2347" height="94.9453" transform="matrix(0.981624 -0.190823 0.204318 0.978905 213.291 236.486)" fill="#C7F3D3"/>
<path d="M206.195 177.198C259.682 132.428 444.265 101.14 490.547 112.939" stroke="black" stroke-width="4"/>
<path d="M353.012 108.725C356.65 113.465 363.709 124.315 362.836 129.793" stroke="black" stroke-width="4"/>
<path d="M396.674 103.459C400.312 108.199 407.371 119.05 406.498 124.528" stroke="black" stroke-width="4"/>
<path d="M430.512 100.297C434.15 105.037 441.209 115.888 440.336 121.366" stroke="black" stroke-width="4"/>
<path d="M469.809 100.297C473.447 105.037 480.506 115.888 479.633 121.366" stroke="black" stroke-width="4"/>
<path d="M270.053 132.955C273.691 137.696 280.75 148.546 279.877 154.024" stroke="black" stroke-width="4"/>
<path d="M309.348 119.26C312.986 124 320.045 134.851 319.172 140.328" stroke="black" stroke-width="4"/>
<path d="M230.756 150.863C234.394 155.604 241.453 166.454 240.58 171.932" stroke="black" stroke-width="4"/>
<path d="M240.58 203.534L196.918 199.32V211.435L240.58 217.755V203.534Z" fill="#D9D9D9" stroke="black" stroke-width="4"/>
<path d="M195.523 196.16H206.185L213.293 202.84V211.576L206.185 217.229H195.523L191.462 211.576V202.84L195.523 196.16Z" fill="#D9D9D9" stroke="black" stroke-width="3"/>
<path d="M225.846 215.122C226.573 211.786 227.592 204.587 225.846 202.48" stroke="black"/>
<path d="M220.934 215.122C221.661 211.786 222.68 204.587 220.934 202.48" stroke="black"/>
<path d="M230.758 216.176C231.486 212.84 232.504 205.642 230.758 203.535" stroke="black"/>
<path d="M235.123 216.176C235.851 212.84 236.87 205.642 235.123 203.535" stroke="black"/>
<path d="M374.293 383.216C398.036 366.003 458.208 341.551 508.949 381.45" stroke="black" stroke-width="3"/>
<path d="M427.683 387.4C434.176 382.692 450.631 376.006 464.507 386.917" stroke="black" stroke-width="3"/>
<path d="M411.638 248.832C411.638 264.822 398.181 277.935 381.391 277.935C364.602 277.935 351.145 264.822 351.145 248.832C351.145 232.841 364.602 219.729 381.391 219.729C398.181 219.729 411.638 232.841 411.638 248.832Z" fill="#D9D9D9" stroke="black" stroke-width="5"/>
<path d="M496.396 246.067C499.554 246.067 502.711 246.066 511.952 246.066C510.636 260.9 497.721 272.668 481.815 272.668C465.909 272.668 452.994 260.899 451.679 246.065C456.216 246.064 459.618 246.065 463.978 246.065C468.301 246.066 473.566 246.067 481.815 246.067C490.308 246.067 493.352 246.067 496.396 246.067Z" fill="#D9D9D9" stroke="black" stroke-width="5"/>
<path d="M435.969 294.129C441.063 300.976 453.652 314.987 463.258 316.251V335.213H435.969" stroke="black" stroke-width="3"/>
<path d="M514.017 210.908H451.252" stroke="black" stroke-width="6"/>
<path d="M403.613 195.108L342.096 207.123" stroke="black" stroke-width="6"/>
<path d="M450.705 151.917C463.622 150.512 491.639 149.705 500.371 157.711" stroke="black" stroke-width="4"/>
<path d="M460.519 140.341C461.366 145.967 462.153 158.203 458.522 162.137" stroke="black" stroke-width="4"/>
<path d="M475.801 140.341C476.648 145.967 477.434 158.203 473.803 162.137" stroke="black" stroke-width="4"/>
<path d="M489.992 142.449C490.839 148.075 491.626 160.31 487.995 164.244" stroke="black" stroke-width="4"/>
<path d="M285.346 329.765C282.186 317.596 277.632 290.906 284.693 281.489" stroke="black" stroke-width="4"/>
<path d="M272.154 321.915C277.819 320.357 290.28 317.978 294.803 320.928" stroke="black" stroke-width="4"/>
<path d="M270.123 307.298C275.788 305.74 288.249 303.361 292.772 306.311" stroke="black" stroke-width="4"/>
<path d="M270.4 293.445C276.065 291.887 288.527 289.508 293.049 292.458" stroke="black" stroke-width="4"/>
<path d="M358.469 465.84C365.2 474.092 374.624 493.861 358.469 506.924V532.206" stroke="black" stroke-width="4"/>
<path d="M256.407 138.221L233.484 120.84L252.587 99.2443L295.703 71.3282L326.813 61.8473L367.746 55L416.321 57.6336L449.068 76.5954L432.149 86.6031L416.321 57.6336L392.307 81.8626L367.746 57.6336L360.651 76.5954L326.813 61.8473L314.26 86.6031L295.703 71.3282L298.978 125.053L252.587 99.2443L256.407 138.221Z" fill="black"/>
<path d="M252.587 99.2443L256.407 138.221L233.484 120.84L252.587 99.2443ZM252.587 99.2443L298.978 125.053L295.703 71.3282M252.587 99.2443L295.703 71.3282M295.703 71.3282L314.26 86.6031L326.813 61.8473M295.703 71.3282L326.813 61.8473M326.813 61.8473L360.651 76.5954L367.746 57.6336M326.813 61.8473L367.746 55M367.746 57.6336L392.307 81.8626L416.321 57.6336M367.746 57.6336V57.1069V55M416.321 57.6336L432.149 86.6031L449.068 76.5954L416.321 57.6336ZM416.321 57.6336L367.746 55" stroke="black" stroke-width="4"/>
<defs>
<filter id="filter0_d_236_580" x="190.1" y="50" width="366.209" height="435.16" filterUnits="userSpaceOnUse" color-interpolation-filters="sRGB">
<feFlood flood-opacity="0" result="BackgroundImageFix"/>
<feColorMatrix in="SourceAlpha" type="matrix" values="0 0 0 0 0 0 0 0 0 0 0 0 0 0 0 0 0 0 127 0" result="hardAlpha"/>
<feOffset dy="4"/>
<feGaussianBlur stdDeviation="2"/>
<feComposite in2="hardAlpha" operator="out"/>
<feColorMatrix type="matrix" values="0 0 0 0 0 0 0 0 0 0 0 0 0 0 0 0 0 0 0.25 0"/>
<feBlend mode="normal" in2="BackgroundImageFix" result="effect1_dropShadow_236_580"/>
<feBlend mode="normal" in="SourceGraphic" in2="effect1_dropShadow_236_580" result="shape"/>
</filter>
</defs>
</svg>
