<svg width="618" height="700" viewBox="0 0 618 700" fill="none" xmlns="http://www.w3.org/2000/svg">
<path d="M502.36 113.722L535.752 96.0332L540.491 107.251L507.923 126.891L502.36 113.722Z" fill="#D9D9D9" stroke="black" stroke-width="4"/>
<path d="M535.638 92.6682L527.081 96.0349L523.99 104.465L527.408 112.555L535.323 115.544L543.88 112.178L544.928 105.661L541.51 97.5716L535.638 92.6682Z" fill="#D9D9D9" stroke="black" stroke-width="3"/>
<path d="M518.721 119.799C516.832 116.94 513.198 110.596 513.775 108.094" stroke="black"/>
<path d="M522.664 118.249C520.775 115.389 517.141 109.045 517.719 106.543" stroke="black"/>
<path d="M515.191 122.327C513.302 119.468 509.669 113.124 510.246 110.621" stroke="black"/>
<path d="M511.685 123.706C509.796 120.846 506.163 114.502 506.74 112" stroke="black"/>
<path d="M244.054 414.191V315.764H394.032V464.853C426.527 469.195 502.916 481.644 548.509 496.697C594.103 511.751 610.5 568.588 613 595.125V695H54.4927H17.5872C8.08861 671.358 -5.20944 613.653 17.5872 571.966C46.083 519.857 80.578 514.067 127.071 496.697C164.266 482.801 220.557 435.904 244.054 414.191Z" fill="#C7F3D3" stroke="black" stroke-width="10"/>
<g filter="url(#filter0_d_213_569)">
<path d="M173.1 147.189V197.842C184.586 219.068 212.053 274.255 230.031 325.197C248.01 376.139 323.419 411.065 358.877 422.16H418.805C431.789 413.959 460.155 392.637 469.744 372.955C490.119 362.535 508.198 312.654 514.69 289.016C519.684 269.72 526.676 214.34 514.69 147.189C502.704 80.0382 436.783 30.4469 405.321 14.0451C375.856 5.3618 304.642 -4.76871 255.501 24.1756C206.36 53.12 180.091 118.245 173.1 147.189Z" fill="#C7F3D3"/>
<path d="M173.1 147.189V197.842C184.586 219.068 212.053 274.255 230.031 325.197C248.01 376.139 323.419 411.065 358.877 422.16H418.805C431.789 413.959 460.155 392.637 469.744 372.955C490.119 362.535 508.198 312.654 514.69 289.016C519.684 269.72 526.676 214.34 514.69 147.189C502.704 80.0382 436.783 30.4469 405.321 14.0451C375.856 5.3618 304.642 -4.76871 255.501 24.1756C206.36 53.12 180.091 118.245 173.1 147.189Z" stroke="black" stroke-width="10"/>
</g>
<path d="M142.382 175.708C126.711 263.238 183.754 284.909 214.234 284.804L194.655 182.364C175.578 157.9 151.858 167.733 142.382 175.708Z" fill="#C7F3D3" stroke="black" stroke-width="10"/>
<path d="M161.094 199.885L178.551 216.293M200.057 260.452L196.28 252.77M196.28 252.77L189.334 238.644L192.067 228.997L178.551 216.293M196.28 252.77C194.864 254.736 191.164 257.664 187.693 253.646C183.354 248.623 166.811 219.804 178.551 216.293" stroke="black" stroke-width="5"/>
<rect width="51.2347" height="94.9453" transform="matrix(0.981624 -0.190823 0.204318 0.978905 187.291 186.486)" fill="#C7F3D3"/>
<path d="M180.195 127.198C233.682 82.4282 418.265 51.1402 464.547 62.9386" stroke="black" stroke-width="4"/>
<path d="M327.012 58.7246C330.65 63.4651 337.709 74.3154 336.836 79.7933" stroke="black" stroke-width="4"/>
<path d="M370.674 53.459C374.312 58.1994 381.371 69.0498 380.498 74.5277" stroke="black" stroke-width="4"/>
<path d="M404.512 50.2969C408.15 55.0373 415.209 65.8877 414.336 71.3656" stroke="black" stroke-width="4"/>
<path d="M443.809 50.2969C447.447 55.0373 454.506 65.8877 453.633 71.3656" stroke="black" stroke-width="4"/>
<path d="M244.053 82.9551C247.691 87.6955 254.75 98.5459 253.877 104.024" stroke="black" stroke-width="4"/>
<path d="M283.348 69.2598C286.986 74.0002 294.045 84.8506 293.172 90.3285" stroke="black" stroke-width="4"/>
<path d="M204.756 100.863C208.394 105.604 215.453 116.454 214.58 121.932" stroke="black" stroke-width="4"/>
<path d="M214.58 153.534L170.918 149.32V161.435L214.58 167.755V153.534Z" fill="#D9D9D9" stroke="black" stroke-width="4"/>
<path d="M169.523 146.16H180.185L187.293 152.84V161.576L180.185 167.229H169.523L165.462 161.576V152.84L169.523 146.16Z" fill="#D9D9D9" stroke="black" stroke-width="3"/>
<path d="M199.846 165.122C200.573 161.786 201.592 154.587 199.846 152.48" stroke="black"/>
<path d="M194.934 165.122C195.661 161.786 196.68 154.587 194.934 152.48" stroke="black"/>
<path d="M204.758 166.176C205.486 162.84 206.504 155.642 204.758 153.535" stroke="black"/>
<path d="M209.123 166.176C209.851 162.84 210.87 155.642 209.123 153.535" stroke="black"/>
<path d="M348.293 333.216C372.036 316.003 432.208 291.551 482.949 331.45" stroke="black" stroke-width="3"/>
<path d="M401.683 337.4C408.176 332.692 424.631 326.006 438.507 336.917" stroke="black" stroke-width="3"/>
<path d="M385.638 198.832C385.638 214.822 372.181 227.935 355.391 227.935C338.602 227.935 325.145 214.822 325.145 198.832C325.145 182.841 338.602 169.729 355.391 169.729C372.181 169.729 385.638 182.841 385.638 198.832Z" fill="#D9D9D9" stroke="black" stroke-width="5"/>
<path d="M470.396 196.067C473.554 196.067 476.711 196.066 485.952 196.066C484.636 210.9 471.721 222.668 455.815 222.668C439.909 222.668 426.994 210.899 425.679 196.065C430.216 196.064 433.618 196.065 437.978 196.065C442.301 196.066 447.566 196.067 455.815 196.067C464.308 196.067 467.352 196.067 470.396 196.067Z" fill="#D9D9D9" stroke="black" stroke-width="5"/>
<path d="M409.969 244.129C415.063 250.976 427.652 264.987 437.258 266.251V285.213H409.969" stroke="black" stroke-width="3"/>
<path d="M488.017 160.908H425.252" stroke="black" stroke-width="6"/>
<path d="M377.613 145.108L316.096 157.123" stroke="black" stroke-width="6"/>
<path d="M424.705 101.917C437.622 100.512 465.639 99.7047 474.371 107.711" stroke="black" stroke-width="4"/>
<path d="M434.519 90.3413C435.366 95.9673 436.153 108.203 432.522 112.137" stroke="black" stroke-width="4"/>
<path d="M449.801 90.3413C450.648 95.9673 451.434 108.203 447.803 112.137" stroke="black" stroke-width="4"/>
<path d="M463.992 92.4487C464.839 98.0747 465.626 110.31 461.995 114.244" stroke="black" stroke-width="4"/>
<path d="M259.346 279.765C256.186 267.596 251.632 240.906 258.693 231.489" stroke="black" stroke-width="4"/>
<path d="M246.154 271.915C251.819 270.357 264.28 267.978 268.803 270.928" stroke="black" stroke-width="4"/>
<path d="M244.123 257.298C249.788 255.74 262.249 253.361 266.772 256.311" stroke="black" stroke-width="4"/>
<path d="M244.4 243.445C250.065 241.887 262.527 239.508 267.049 242.458" stroke="black" stroke-width="4"/>
<path d="M332.469 415.84C339.2 424.092 348.624 443.861 332.469 456.924V482.206" stroke="black" stroke-width="4"/>
<path d="M230.407 88.2214L207.484 70.8397L226.587 49.2443L269.703 21.3282L300.813 11.8473L341.746 5L390.321 7.63359L423.068 26.5954L406.149 36.6031L390.321 7.63359L366.307 31.8626L341.746 7.63359L334.651 26.5954L300.813 11.8473L288.26 36.6031L269.703 21.3282L272.978 75.0534L226.587 49.2443L230.407 88.2214Z" fill="black"/>
<path d="M226.587 49.2443L230.407 88.2214L207.484 70.8397L226.587 49.2443ZM226.587 49.2443L272.978 75.0534L269.703 21.3282M226.587 49.2443L269.703 21.3282M269.703 21.3282L288.26 36.6031L300.813 11.8473M269.703 21.3282L300.813 11.8473M300.813 11.8473L334.651 26.5954L341.746 7.63359M300.813 11.8473L341.746 5M341.746 7.63359L366.307 31.8626L390.321 7.63359M341.746 7.63359V7.10687V5M390.321 7.63359L406.149 36.6031L423.068 26.5954L390.321 7.63359ZM390.321 7.63359L341.746 5" stroke="black" stroke-width="4"/>
<defs>
<filter id="filter0_d_213_569" x="164.1" y="0" width="366.209" height="435.16" filterUnits="userSpaceOnUse" color-interpolation-filters="sRGB">
<feFlood flood-opacity="0" result="BackgroundImageFix"/>
<feColorMatrix in="SourceAlpha" type="matrix" values="0 0 0 0 0 0 0 0 0 0 0 0 0 0 0 0 0 0 127 0" result="hardAlpha"/>
<feOffset dy="4"/>
<feGaussianBlur stdDeviation="2"/>
<feComposite in2="hardAlpha" operator="out"/>
<feColorMatrix type="matrix" values="0 0 0 0 0 0 0 0 0 0 0 0 0 0 0 0 0 0 0.25 0"/>
<feBlend mode="normal" in2="BackgroundImageFix" result="effect1_dropShadow_213_569"/>
<feBlend mode="normal" in="SourceGraphic" in2="effect1_dropShadow_213_569" result="shape"/>
</filter>
</defs>
</svg>
