<svg width="670" height="800" viewBox="0 0 670 800" fill="none" xmlns="http://www.w3.org/2000/svg">
<path d="M278.604 496.106V408.867H406.891V541.009C434.686 544.858 500.027 555.891 539.026 569.233C578.025 582.576 592.051 632.952 594.189 656.473V744.995H116.46H84.8917C76.7669 724.04 65.3922 672.894 84.8917 635.946C109.266 589.76 138.772 584.629 178.541 569.233C210.356 556.917 258.506 515.35 278.604 496.106Z" fill="#70C788" stroke="black" stroke-width="10"/>
<path d="M157.906 102.948C162.503 107.155 183.571 179.073 186.635 213.579V233.334H462.432V225.432C455.078 213.421 457.836 114.011 471.625 76.0798C471.625 76.0798 424.51 57.1904 384.29 55.5342C320.32 52.9001 185.486 58.6951 157.906 102.948Z" fill="#161616" stroke="black" stroke-width="10"/>
<path d="M461.182 151.478C372.222 101.455 240.693 152.384 186.049 184.101V220.805H461.182V151.478Z" fill="#341F08" stroke="black" stroke-width="10"/>
<path d="M334.799 220.805V133.482C348.593 128.025 395.722 131.208 417.563 133.482V220.805H334.799Z" fill="#CF7B20"/>
<path d="M363.536 174.413H391.124M334.799 133.482V220.805H417.563V133.482C395.722 131.208 348.593 128.025 334.799 133.482Z" stroke="black" stroke-width="10"/>
<path d="M125.765 255.623C121.176 297.625 172.81 330.231 199.201 341.285L471.141 299.837C517.038 290.995 551.461 186.543 542.281 172.724C535.779 177.33 518.415 186.543 500.974 186.543C488.123 197.598 381.642 181.937 330.007 172.724C312.567 161.671 231.711 162.592 193.464 164.434C153.304 167.198 131.502 203.12 125.765 255.623Z" fill="#0F0F0F" stroke="black" stroke-width="10"/>
<g filter="url(#filter0_d_192_622)">
<path d="M201.573 266.917L191.77 311.812C201.594 330.625 225.089 379.539 240.467 424.69C255.845 469.841 320.348 500.798 350.678 510.632H401.938C413.045 503.363 437.308 484.464 445.51 467.02C462.938 457.784 478.402 413.573 483.955 392.622C488.227 375.52 494.207 326.435 483.955 266.917C473.703 207.4 420.99 210.918 392.979 207.183C377.107 207.183 282.576 196.927 258.528 207.183C230.051 219.33 215.112 246.404 201.573 266.917Z" fill="#70C788"/>
<path d="M201.573 266.917L191.77 311.812C201.594 330.625 225.089 379.539 240.467 424.69C255.845 469.841 320.348 500.798 350.678 510.632H401.938C413.045 503.363 437.308 484.464 445.51 467.02C462.938 457.784 478.402 413.573 483.955 392.622C488.227 375.52 494.207 326.435 483.955 266.917C473.703 207.4 420.99 210.918 392.979 207.183C377.107 207.183 282.576 196.927 258.528 207.183C230.051 219.33 215.112 246.404 201.573 266.917Z" stroke="black" stroke-width="10"/>
</g>
<path d="M441.264 279.711C439.993 295.209 427.012 307.39 411.187 307.39C395.361 307.39 382.381 295.209 381.11 279.711L388.079 279.711C393.993 279.711 402.163 279.712 411.187 279.712C420.211 279.712 428.381 279.711 434.295 279.711L441.264 279.711Z" fill="#DBFF00" stroke="black" stroke-width="5"/>
<path d="M343.227 278.785C341.956 294.283 328.975 306.464 313.15 306.464C297.324 306.464 284.344 294.283 283.073 278.785L290.042 278.785C295.956 278.786 304.126 278.786 313.15 278.786C322.174 278.786 330.344 278.786 336.257 278.785L343.227 278.785Z" fill="#DBFF00" stroke="black" stroke-width="5"/>
<rect x="395.783" y="454.609" width="24.2759" height="11.2043" fill="#FF0000"/>
<rect x="392.982" y="452.742" width="24.2759" height="11.2043" fill="#FF0000"/>
<rect x="375.242" y="451.809" width="24.2759" height="11.2043" fill="#FF0000"/>
<rect x="359.369" y="449.008" width="24.2759" height="11.2043" fill="#FF0000"/>
<rect x="350.965" y="448.074" width="24.2759" height="11.2043" fill="#FF0000"/>
<rect x="337.895" y="447.141" width="24.2759" height="11.2043" fill="#FF0000"/>
<rect x="365.904" y="450.875" width="24.2759" height="11.2043" fill="#FF0000"/>
<rect x="322.955" y="446.207" width="24.2759" height="11.2043" fill="#FF0000"/>
<rect x="307.082" y="390.186" width="113.91" height="63.4908" fill="#FF0000"/>
<path d="M305.682 453.676V392.053H419.592V467.215L305.682 453.676Z" stroke="black" stroke-width="5"/>
<rect x="403.797" y="445.273" width="14.0053" height="18.6738" transform="rotate(4.54484 403.797 445.273)" fill="#D9D9D9"/>
<rect x="402.57" y="393.92" width="14.0053" height="18.6738" transform="rotate(0.769557 402.57 393.92)" fill="#D9D9D9"/>
<rect x="370.824" y="393.92" width="14.0053" height="18.6738" transform="rotate(0.769557 370.824 393.92)" fill="#D9D9D9"/>
<rect x="354.951" y="393.92" width="14.0053" height="18.6738" transform="rotate(0.769557 354.951 393.92)" fill="#D9D9D9"/>
<rect x="323.207" y="393.92" width="14.0053" height="18.6738" transform="rotate(0.769557 323.207 393.92)" fill="#D9D9D9"/>
<rect x="307.334" y="393.92" width="14.0053" height="18.6738" transform="rotate(0.769557 307.334 393.92)" fill="#D9D9D9"/>
<rect x="372.053" y="441.539" width="14.0053" height="18.6738" transform="rotate(4.54484 372.053 441.539)" fill="#D9D9D9"/>
<rect x="356.18" y="439.672" width="14.0053" height="18.6738" transform="rotate(4.54484 356.18 439.672)" fill="#D9D9D9"/>
<rect x="340.307" y="437.803" width="14.0053" height="18.6738" transform="rotate(4.54484 340.307 437.803)" fill="#D9D9D9"/>
<rect x="308.561" y="435.002" width="14.0053" height="18.6738" transform="rotate(4.54484 308.561 435.002)" fill="#D9D9D9"/>
<path d="M370.571 322.494L389.711 344.436L366.369 348.637" stroke="black" stroke-width="5"/>
<path d="M182.578 302.337C159.57 383.458 209.377 409.408 237.157 412.243L229.537 313.652C214.598 288.721 192.006 295.721 182.578 302.337Z" fill="#70C788" stroke="black" stroke-width="10"/>
<rect x="220.713" y="317.557" width="19.6074" height="89.634" transform="rotate(-6.04181 220.713 317.557)" fill="#70C788"/>
<path d="M191.77 316.434L209.86 336.695M229.117 388.328L225.725 379.341M225.725 379.341L219.488 362.817L223.865 352.381L209.86 336.695M225.725 379.341C223.841 381.37 219.197 384.211 215.695 379.341C211.319 373.253 195.854 339.272 209.86 336.695" stroke="black" stroke-width="5"/>
<path d="M264.598 407L280.471 413.884C276.16 417.249 268.831 424.531 274.004 426.734C279.177 428.937 280.471 432.547 280.471 434.077" stroke="#0F0F0F" stroke-width="3"/>
<path d="M270.898 308.963C272.439 317.268 273.671 334.433 266.277 336.648C249.269 336.648 245.633 350.183 245.941 356.95M245.941 356.95L258.883 375.407L269.05 388.326L245.941 356.95Z" stroke="#2E2E2E" stroke-width="3"/>
<path d="M462.232 308.963C461.407 317.268 460.747 334.433 464.708 336.648C473.819 336.648 475.767 350.183 475.602 356.95M475.602 356.95L468.669 375.407L463.222 388.326L475.602 356.95Z" stroke="#2E2E2E" stroke-width="3"/>
<path d="M280.471 242.672L333.691 262.279" stroke="#2E2E2E" stroke-width="3"/>
<path d="M439.197 242.672L380.375 262.279" stroke="#2E2E2E" stroke-width="3"/>
<path d="M226.007 397.664C221.172 400.337 210.774 408.783 222.017 419.634C224.193 421.735 226.782 421.473 228.183 415.388" stroke="#808080" stroke-width="3"/>
<path d="M210.136 391.127C205.3 393.8 194.903 402.246 206.146 413.097C208.322 415.197 210.911 414.936 212.312 408.851" stroke="#808080" stroke-width="3"/>
<path d="M203.046 308.097C200.435 303.284 196.262 290.655 211.451 287.418C214.39 286.792 216.413 288.379 214.332 294.262" stroke="#808080" stroke-width="3"/>
<path d="M254.793 512.975L348.162 594.205H363.568L413.987 536.784" stroke="#0F0F0F" stroke-width="3"/>
<path d="M349.434 602.056V561.992H362.173V602.056H383.175V614.958H362.173V632.952H349.434V614.958H328.088V602.056H349.434Z" fill="#D9D9D9" stroke="black" stroke-width="3"/>
<path d="M276.736 744.997L214.512 548.922C214.512 548.922 127.109 535.806 86.7291 570.863C34.0392 616.607 69.9462 744.997 69.9462 744.997H276.736Z" fill="black" stroke="#2E2E2E" stroke-width="10"/>
<path d="M399.05 745L460.013 548.744C460.013 548.744 516.49 541.574 570.846 548.742C639.473 557.791 601.651 745 601.651 745H399.05Z" fill="black" stroke="#2E2E2E" stroke-width="10"/>
<ellipse cx="222.114" cy="594.206" rx="7.00266" ry="7.00266" fill="#D9D9D9"/>
<ellipse cx="230.516" cy="625.95" rx="7.00266" ry="7.00266" fill="#D9D9D9"/>
<ellipse cx="241.721" cy="666.098" rx="7.00266" ry="7.00266" fill="#D9D9D9"/>
<ellipse cx="257.594" cy="719.319" rx="7.00266" ry="7.00266" fill="#D9D9D9"/>
<path d="M367.984 519.043C372.03 525.89 377.695 540.985 367.984 546.587V561.993" stroke="#2E2E2E" stroke-width="3"/>
<defs>
<filter id="filter0_d_192_622" x="182.498" y="197.625" width="316.117" height="326.006" filterUnits="userSpaceOnUse" color-interpolation-filters="sRGB">
<feFlood flood-opacity="0" result="BackgroundImageFix"/>
<feColorMatrix in="SourceAlpha" type="matrix" values="0 0 0 0 0 0 0 0 0 0 0 0 0 0 0 0 0 0 127 0" result="hardAlpha"/>
<feOffset dy="4"/>
<feGaussianBlur stdDeviation="2"/>
<feComposite in2="hardAlpha" operator="out"/>
<feColorMatrix type="matrix" values="0 0 0 0 0 0 0 0 0 0 0 0 0 0 0 0 0 0 0.25 0"/>
<feBlend mode="normal" in2="BackgroundImageFix" result="effect1_dropShadow_192_622"/>
<feBlend mode="normal" in="SourceGraphic" in2="effect1_dropShadow_192_622" result="shape"/>
</filter>
</defs>
</svg>
