<svg width="565" height="700" viewBox="0 0 565 700" fill="none" xmlns="http://www.w3.org/2000/svg">
<path d="M225.604 446.106V358.867H353.891V491.009C381.686 494.858 447.027 505.891 486.026 519.233C525.025 532.576 539.051 582.952 541.189 606.473V694.995H63.4596H31.8917C23.7669 674.04 12.3922 622.894 31.8917 585.946C56.2662 539.76 85.7721 534.629 125.541 519.233C157.356 506.917 205.506 465.35 225.604 446.106Z" fill="#70C788" stroke="black" stroke-width="10"/>
<path d="M104.906 52.9477C109.503 57.1548 130.571 129.073 133.635 163.579V183.334H409.432V175.432C402.078 163.421 404.836 64.0106 418.625 26.0798C418.625 26.0798 371.51 7.19038 331.29 5.53422C267.32 2.90014 132.486 8.69512 104.906 52.9477Z" fill="#161616" stroke="black" stroke-width="10"/>
<path d="M408.182 101.478C319.222 51.4546 187.693 102.384 133.049 134.101V170.805H408.182V101.478Z" fill="#341F08" stroke="black" stroke-width="10"/>
<path d="M281.799 170.805V83.4822C295.593 78.0245 342.722 81.2082 364.563 83.4822V170.805H281.799Z" fill="#CF7B20"/>
<path d="M310.536 124.413H338.124M281.799 83.4822V170.805H364.563V83.4822C342.722 81.2082 295.593 78.0245 281.799 83.4822Z" stroke="black" stroke-width="10"/>
<path d="M72.7653 205.623C68.1756 247.625 119.81 280.231 146.201 291.285L418.141 249.837C464.038 240.995 498.461 136.543 489.281 122.724C482.779 127.33 465.415 136.543 447.974 136.543C435.123 147.598 328.642 131.937 277.007 122.724C259.567 111.671 178.711 112.592 140.464 114.434C100.304 117.198 78.5025 153.12 72.7653 205.623Z" fill="#0F0F0F" stroke="black" stroke-width="10"/>
<g filter="url(#filter0_d_159_593)">
<path d="M148.573 216.917L138.77 261.812C148.594 280.625 172.089 329.539 187.467 374.69C202.845 419.841 267.348 450.798 297.678 460.632H348.938C360.045 453.363 384.308 434.464 392.51 417.02C409.938 407.784 425.402 363.573 430.955 342.622C435.227 325.52 441.207 276.435 430.955 216.917C420.703 157.4 367.99 160.918 339.979 157.183C324.107 157.183 229.576 146.927 205.528 157.183C177.051 169.33 162.112 196.404 148.573 216.917Z" fill="#70C788"/>
<path d="M148.573 216.917L138.77 261.812C148.594 280.625 172.089 329.539 187.467 374.69C202.845 419.841 267.348 450.798 297.678 460.632H348.938C360.045 453.363 384.308 434.464 392.51 417.02C409.938 407.784 425.402 363.573 430.955 342.622C435.227 325.52 441.207 276.435 430.955 216.917C420.703 157.4 367.99 160.918 339.979 157.183C324.107 157.183 229.576 146.927 205.528 157.183C177.051 169.33 162.112 196.404 148.573 216.917Z" stroke="black" stroke-width="10"/>
</g>
<path d="M388.264 229.711C386.993 245.209 374.012 257.39 358.187 257.39C342.361 257.39 329.381 245.209 328.11 229.711L335.079 229.711C340.993 229.711 349.163 229.712 358.187 229.712C367.211 229.712 375.381 229.711 381.295 229.711L388.264 229.711Z" fill="#DBFF00" stroke="black" stroke-width="5"/>
<path d="M290.227 228.785C288.956 244.283 275.975 256.464 260.15 256.464C244.324 256.464 231.344 244.283 230.073 228.785L237.042 228.785C242.956 228.786 251.126 228.786 260.15 228.786C269.174 228.786 277.344 228.786 283.257 228.785L290.227 228.785Z" fill="#DBFF00" stroke="black" stroke-width="5"/>
<rect x="342.783" y="404.609" width="24.2759" height="11.2043" fill="#FF0000"/>
<rect x="339.982" y="402.742" width="24.2759" height="11.2043" fill="#FF0000"/>
<rect x="322.242" y="401.809" width="24.2759" height="11.2043" fill="#FF0000"/>
<rect x="306.369" y="399.008" width="24.2759" height="11.2043" fill="#FF0000"/>
<rect x="297.965" y="398.074" width="24.2759" height="11.2043" fill="#FF0000"/>
<rect x="284.895" y="397.141" width="24.2759" height="11.2043" fill="#FF0000"/>
<rect x="312.904" y="400.875" width="24.2759" height="11.2043" fill="#FF0000"/>
<rect x="269.955" y="396.207" width="24.2759" height="11.2043" fill="#FF0000"/>
<rect x="254.082" y="340.186" width="113.91" height="63.4908" fill="#FF0000"/>
<path d="M252.682 403.676V342.053H366.592V417.215L252.682 403.676Z" stroke="black" stroke-width="5"/>
<rect x="350.797" y="395.273" width="14.0053" height="18.6738" transform="rotate(4.54484 350.797 395.273)" fill="#D9D9D9"/>
<rect x="349.57" y="343.92" width="14.0053" height="18.6738" transform="rotate(0.769557 349.57 343.92)" fill="#D9D9D9"/>
<rect x="317.824" y="343.92" width="14.0053" height="18.6738" transform="rotate(0.769557 317.824 343.92)" fill="#D9D9D9"/>
<rect x="301.951" y="343.92" width="14.0053" height="18.6738" transform="rotate(0.769557 301.951 343.92)" fill="#D9D9D9"/>
<rect x="270.207" y="343.92" width="14.0053" height="18.6738" transform="rotate(0.769557 270.207 343.92)" fill="#D9D9D9"/>
<rect x="254.334" y="343.92" width="14.0053" height="18.6738" transform="rotate(0.769557 254.334 343.92)" fill="#D9D9D9"/>
<rect x="319.053" y="391.539" width="14.0053" height="18.6738" transform="rotate(4.54484 319.053 391.539)" fill="#D9D9D9"/>
<rect x="303.18" y="389.672" width="14.0053" height="18.6738" transform="rotate(4.54484 303.18 389.672)" fill="#D9D9D9"/>
<rect x="287.307" y="387.803" width="14.0053" height="18.6738" transform="rotate(4.54484 287.307 387.803)" fill="#D9D9D9"/>
<rect x="255.561" y="385.002" width="14.0053" height="18.6738" transform="rotate(4.54484 255.561 385.002)" fill="#D9D9D9"/>
<path d="M317.571 272.494L336.711 294.436L313.369 298.637" stroke="black" stroke-width="5"/>
<path d="M129.578 252.337C106.57 333.458 156.377 359.408 184.157 362.243L176.537 263.652C161.598 238.721 139.006 245.721 129.578 252.337Z" fill="#70C788" stroke="black" stroke-width="10"/>
<rect x="167.713" y="267.557" width="19.6074" height="89.634" transform="rotate(-6.04181 167.713 267.557)" fill="#70C788"/>
<path d="M138.77 266.434L156.86 286.695M176.117 338.328L172.725 329.341M172.725 329.341L166.488 312.817L170.865 302.381L156.86 286.695M172.725 329.341C170.841 331.37 166.197 334.211 162.695 329.341C158.319 323.253 142.854 289.272 156.86 286.695" stroke="black" stroke-width="5"/>
<path d="M211.598 357L227.471 363.884C223.16 367.249 215.831 374.531 221.004 376.734C226.177 378.937 227.471 382.547 227.471 384.077" stroke="#0F0F0F" stroke-width="3"/>
<path d="M217.898 258.963C219.439 267.268 220.671 284.433 213.277 286.648C196.269 286.648 192.633 300.183 192.941 306.95M192.941 306.95L205.883 325.407L216.05 338.326L192.941 306.95Z" stroke="#2E2E2E" stroke-width="3"/>
<path d="M409.232 258.963C408.407 267.268 407.747 284.433 411.708 286.648C420.819 286.648 422.767 300.183 422.602 306.95M422.602 306.95L415.669 325.407L410.222 338.326L422.602 306.95Z" stroke="#2E2E2E" stroke-width="3"/>
<path d="M227.471 192.672L280.691 212.279" stroke="#2E2E2E" stroke-width="3"/>
<path d="M386.197 192.672L327.375 212.279" stroke="#2E2E2E" stroke-width="3"/>
<path d="M173.007 347.664C168.172 350.337 157.774 358.783 169.017 369.634C171.193 371.735 173.782 371.473 175.183 365.388" stroke="#808080" stroke-width="3"/>
<path d="M157.136 341.127C152.3 343.8 141.903 352.246 153.146 363.097C155.322 365.197 157.911 364.936 159.312 358.851" stroke="#808080" stroke-width="3"/>
<path d="M150.046 258.097C147.435 253.284 143.262 240.655 158.451 237.418C161.39 236.792 163.413 238.379 161.332 244.262" stroke="#808080" stroke-width="3"/>
<path d="M201.793 462.975L295.162 544.205H310.568L360.987 486.784" stroke="#0F0F0F" stroke-width="3"/>
<path d="M296.434 552.056V511.992H309.173V552.056H330.175V564.958H309.173V582.952H296.434V564.958H275.088V552.056H296.434Z" fill="#D9D9D9" stroke="black" stroke-width="3"/>
<path d="M223.736 694.997L161.512 498.922C161.512 498.922 74.1093 485.806 33.7291 520.863C-18.9608 566.607 16.9462 694.997 16.9462 694.997H223.736Z" fill="black" stroke="#2E2E2E" stroke-width="10"/>
<path d="M346.05 695L407.013 498.744C407.013 498.744 463.49 491.574 517.846 498.742C586.473 507.791 548.651 695 548.651 695H346.05Z" fill="black" stroke="#2E2E2E" stroke-width="10"/>
<ellipse cx="169.114" cy="544.206" rx="7.00266" ry="7.00266" fill="#D9D9D9"/>
<ellipse cx="177.516" cy="575.95" rx="7.00266" ry="7.00266" fill="#D9D9D9"/>
<ellipse cx="188.721" cy="616.098" rx="7.00266" ry="7.00266" fill="#D9D9D9"/>
<ellipse cx="204.594" cy="669.319" rx="7.00266" ry="7.00266" fill="#D9D9D9"/>
<path d="M314.984 469.043C319.03 475.89 324.695 490.985 314.984 496.587V511.993" stroke="#2E2E2E" stroke-width="3"/>
<defs>
<filter id="filter0_d_159_593" x="129.498" y="147.625" width="316.117" height="326.006" filterUnits="userSpaceOnUse" color-interpolation-filters="sRGB">
<feFlood flood-opacity="0" result="BackgroundImageFix"/>
<feColorMatrix in="SourceAlpha" type="matrix" values="0 0 0 0 0 0 0 0 0 0 0 0 0 0 0 0 0 0 127 0" result="hardAlpha"/>
<feOffset dy="4"/>
<feGaussianBlur stdDeviation="2"/>
<feComposite in2="hardAlpha" operator="out"/>
<feColorMatrix type="matrix" values="0 0 0 0 0 0 0 0 0 0 0 0 0 0 0 0 0 0 0.25 0"/>
<feBlend mode="normal" in2="BackgroundImageFix" result="effect1_dropShadow_159_593"/>
<feBlend mode="normal" in="SourceGraphic" in2="effect1_dropShadow_159_593" result="shape"/>
</filter>
</defs>
</svg>
