<svg width="887" height="675" viewBox="0 0 887 675" fill="none" xmlns="http://www.w3.org/2000/svg">
<path d="M421.444 60.2076V183.401C421.444 186.146 423.67 188.371 426.415 188.371C429.16 188.371 431.385 186.146 431.385 183.401V60.2076C431.385 57.4626 429.16 55.2373 426.415 55.2373C423.67 55.2373 421.444 57.4626 421.444 60.2076Z" fill="white" stroke="black" stroke-width="7.10046"/>
<path d="M184.641 530.258C194.422 495.724 267.361 477.833 303.574 473.454H584.4C617.695 473.454 687.595 486.117 704.136 536.445C704.556 537.722 704.563 539.121 704.158 540.403C678.807 620.54 516.893 639.957 438.482 639.605C375.647 648.126 165.736 597.002 184.641 530.258Z" fill="#7A7A7A" stroke="black" stroke-width="7.10046"/>
<path d="M335.58 288.481L296.799 519.853C296.073 524.183 299.411 528.128 303.801 528.128H586.577C591.113 528.128 594.488 523.949 593.517 519.519C572.217 422.423 532.007 237.632 527.597 211.447C524.756 179.14 484.994 111.33 410.794 119.141C336.594 126.951 220.502 258.31 209.496 278.191C201.269 293.053 211.619 300.392 218.999 302.643C219.98 302.942 221.021 302.932 222.025 302.719L327.099 280.363C331.998 279.32 336.408 283.541 335.58 288.481Z" fill="#7A7A7A" stroke="black" stroke-width="7.10046"/>
<path d="M573.161 467.783C522.224 486.584 378.113 487.847 314.696 466.921C310.374 465.495 305.682 468.135 304.911 472.622L295.746 525.889C295.319 528.375 296.201 530.924 298.315 532.3C338.759 558.647 510.254 568.481 590.845 532.229C593.791 530.903 595.298 527.696 594.635 524.534L583.89 473.29C582.909 468.611 577.646 466.128 573.161 467.783Z" fill="#9B5C18" stroke="black" stroke-width="7.10046"/>
<path d="M384.167 558.305V480.91C384.167 476.989 387.346 473.81 391.267 473.81H499.55C503.471 473.81 506.65 476.989 506.65 480.91V558.305C506.65 562.227 503.471 565.406 499.55 565.406H391.267C387.346 565.406 384.167 562.227 384.167 558.305Z" fill="#E7BD8F"/>
<path d="M418.959 519.608H466.887M506.65 480.91V558.305C506.65 562.227 503.471 565.406 499.55 565.406H391.267C387.346 565.406 384.167 562.227 384.167 558.305V480.91C384.167 476.989 387.346 473.81 391.267 473.81H499.55C503.471 473.81 506.65 476.989 506.65 480.91Z" stroke="black" stroke-width="7.10046"/>
<path d="M607.8 44.7158C576.191 25.3725 483.026 32.038 429.974 52.8988C425.117 54.8085 424.45 61.0758 428.988 63.6529C478.214 91.6069 581.772 83.0724 608.992 52.7887C611.254 50.2722 610.686 46.4819 607.8 44.7158Z" fill="#CF3520" stroke="black" stroke-width="7.10046"/>
<path d="M244.617 73.5824C276.386 92.6627 369.491 85.2242 422.369 63.9238C427.21 61.9738 427.825 55.7011 423.265 53.1618C373.809 25.6174 270.326 35.0111 243.358 65.5198C241.117 68.0549 241.716 71.8403 244.617 73.5824Z" fill="#00C2FF" stroke="black" stroke-width="7.10046"/>
<path d="M244.617 73.5824C276.386 92.6627 369.491 85.2242 422.369 63.9238C427.21 61.9738 427.825 55.7011 423.265 53.1618C373.809 25.6174 270.326 35.0111 243.358 65.5198C241.117 68.0549 241.716 71.8403 244.617 73.5824Z" fill="#508CD3" stroke="black" stroke-width="7.10046"/>
</svg>
