<svg width="371" height="484" viewBox="0 0 371 484" fill="none" xmlns="http://www.w3.org/2000/svg">
<path d="M333.089 19.1166C235.65 33.8394 105.961 23.7917 33.7519 19.1166C-38.457 14.4414 173.031 234.797 173.031 245.312C173.031 255.827 1.27069 415.194 8.04795 445.807C14.8252 476.419 358.093 468.241 358.093 445.807C358.093 423.373 191.711 261.902 191.711 245.312C191.711 228.722 430.528 4.39376 333.089 19.1166Z" fill="white" stroke="black" stroke-width="9.34699"/>
<path d="M349.938 436.7H13.9287V458.666L335.771 456.095L351.355 440.205L349.938 436.7Z" fill="#CF3520"/>
<path d="M349.159 438.833C334.849 459.7 72.8486 468.246 11.1848 438.833L2.71191 428.288V481.566H362.104V428.288L356.22 434.393L349.159 438.833Z" fill="#262626" stroke="black" stroke-width="4.6735"/>
<path d="M354.767 49.8569C340.458 26.9763 78.457 17.6049 16.7932 49.8569L8.32031 61.4189V3.00025H367.712V61.4189L361.828 54.7251L354.767 49.8569Z" fill="#262626" stroke="black" stroke-width="4.6735"/>
<path d="M269.811 454.52L289.27 406.527L318.85 448.569L269.811 454.52Z" fill="white" stroke="black" stroke-width="3.27145"/>
<path d="M269.811 454.52L289.27 406.527L318.85 448.569L269.811 454.52Z" fill="white" stroke="black" stroke-width="3.27145"/>
<path d="M289.566 409.314L299.227 423.046L283.21 424.99L289.566 409.314Z" fill="#FF0000"/>
<path d="M313.535 38.143L284.031 80.7044L264.385 33.2014L313.535 38.143Z" fill="white" stroke="black" stroke-width="3.27145"/>
<path d="M313.535 38.143L284.031 80.7044L264.385 33.2014L313.535 38.143Z" fill="white" stroke="black" stroke-width="3.27145"/>
<path d="M284.354 77.9207L277.937 62.4055L293.99 64.0195L284.354 77.9207Z" fill="#FF0000"/>
<path d="M108.127 32.0711L89.0905 80.2329L59.143 38.4518L108.127 32.0711Z" fill="white" stroke="black" stroke-width="3.27145"/>
<path d="M108.127 32.0711L89.0905 80.2329L59.143 38.4518L108.127 32.0711Z" fill="white" stroke="black" stroke-width="3.27145"/>
<path d="M88.7708 77.4483L78.9894 63.802L94.9885 61.7179L88.7708 77.4483Z" fill="#FF0000"/>
<path d="M47.5563 448.385L78.4401 406.814L96.5181 454.936L47.5563 448.385Z" fill="white" stroke="black" stroke-width="3.27145"/>
<path d="M47.5563 448.385L78.4401 406.814L96.5181 454.936L47.5563 448.385Z" fill="white" stroke="black" stroke-width="3.27145"/>
<path d="M78.0258 409.587L83.9304 425.304L67.9386 423.165L78.0258 409.587Z" fill="#FF0000"/>
<path d="M181.97 241.212L127.025 122.482L232.681 120.613L181.97 241.212Z" fill="#CF3520"/>
<path d="M181.81 233.669L96.7881 134.235L197.998 103.848L181.81 233.669Z" fill="#CF3520"/>
<path d="M180.65 232.235L171.733 101.712L271.089 137.702L180.65 232.235Z" fill="#CF3520"/>
<path d="M81.9268 113.061L100.387 138.064H270.269C275.643 131.132 286.065 116.987 285.691 113.061C285.224 108.154 250.874 108.388 245.032 110.023C240.358 111.332 228.441 106.207 223.066 103.481C210.604 101.222 185.678 97.4984 185.678 100.676C185.678 103.854 160.13 102.001 147.356 100.676C138.554 99.7417 120.296 98.994 117.679 103.481C115.062 107.967 91.8969 111.659 81.9268 113.061Z" fill="#CF3520"/>
<path d="M186.009 272.66C180.775 273.782 180.551 268.922 180.863 264.715C182.187 262.457 183.901 257.705 184.368 256.771L189.511 264.014C189.511 266.117 191.244 271.539 186.009 272.66Z" fill="#CF3520"/>
<path d="M174.325 335.752C169.091 336.874 168.867 332.013 169.178 327.807C170.503 325.548 172.216 320.797 172.683 319.862L177.826 327.106C177.826 329.209 179.559 334.631 174.325 335.752Z" fill="#CF3520"/>
<path d="M197.225 383.422C191.991 384.544 191.767 379.683 192.079 375.477C193.403 373.218 195.116 368.467 195.584 367.532L200.727 374.776C200.727 376.879 202.46 382.3 197.225 383.422Z" fill="#CF3520"/>
</svg>
