<svg width="887" height="675" viewBox="0 0 887 675" fill="none" xmlns="http://www.w3.org/2000/svg">
<path d="M724.575 410.072L641.657 380.458C637.775 379.072 633.501 381.062 632.063 384.925L593.912 487.434C592.483 491.275 594.386 495.554 598.196 497.065L673.637 526.975C675.672 527.782 677.967 527.718 679.729 526.418C699.425 511.885 726.693 452.062 729.362 417.138C729.605 413.963 727.573 411.143 724.575 410.072Z" fill="#F3CCC7" stroke="black" stroke-width="15.0665"/>
<rect x="442.903" y="211.907" width="263.281" height="300.692" transform="rotate(22.6122 442.903 211.907)" fill="#AB3828" stroke="black" stroke-width="15.0665"/>
<path d="M605.354 184.919L543.537 296.588C541.327 300.58 543.145 305.604 547.397 307.258L587.479 322.845C590.987 324.209 594.963 322.775 596.792 319.486L684.335 162.118C686.55 158.136 684.751 153.115 680.512 151.446L480.774 72.8144C477.076 71.3587 472.884 73.0257 471.195 76.6231L456.872 107.138L424.216 196.419C422.725 200.497 424.98 204.987 429.141 206.227L450.315 212.534C454.034 213.642 457.986 211.744 459.446 208.149L489.033 135.294C490.612 131.407 495.061 129.558 498.929 131.182L601.679 174.324C605.812 176.059 607.525 180.997 605.354 184.919Z" fill="black" stroke="black" stroke-width="15.0665"/>
<g filter="url(#filter0_i_104_598)">
<path d="M140.852 193.771C223.115 86.7991 385.682 225.787 466.288 277.767L391.709 481.917C281.724 418.638 42.167 334.643 140.852 193.771Z" fill="#9D9D9D"/>
</g>
<path d="M140.852 193.771C223.115 86.7991 385.682 225.787 466.288 277.767L391.709 481.917C281.724 418.638 42.167 334.643 140.852 193.771Z" stroke="black" stroke-width="15.0665"/>
<path d="M436.532 184.26V241.361C436.532 247.473 429.636 251.041 424.647 247.511L381.443 216.939C377.029 213.816 377.245 207.199 381.852 204.37L425.057 177.841C430.076 174.759 436.532 178.37 436.532 184.26Z" fill="#BFBFBF"/>
<path d="M284.359 108.632L289.029 160.001C289.505 165.231 284.619 169.33 279.552 167.953L237.031 156.401C231.527 154.906 229.617 148.075 233.546 143.941L271.397 104.124C275.859 99.4301 283.773 102.182 284.359 108.632Z" fill="#BFBFBF"/>
<path d="M98.382 162.608L139.01 183.036C142.874 184.979 144.312 189.77 142.157 193.52L124.483 224.278C121.418 229.613 113.595 229.221 111.078 223.607L88.1241 172.42C85.2237 165.952 92.049 159.423 98.382 162.608Z" fill="#BFBFBF"/>
<path d="M156.264 412.686L183.002 369.176C185.405 365.265 190.717 364.395 194.243 367.333L237.278 403.195L290.01 429.185L332.159 453.723C337.491 456.828 337.035 464.674 331.379 467.139L275.214 491.622C268.841 494.4 262.427 487.799 265.387 481.508L290.01 429.185L237.278 403.195L164.748 423.875C158.141 425.759 152.667 418.539 156.264 412.686Z" fill="#BFBFBF"/>
<path d="M83.0319 324.812L128.242 319.325C133.339 318.707 136.337 313.282 134.149 308.637L121.639 282.082C119.43 277.392 113.255 276.283 109.552 279.911L76.852 311.953C71.7109 316.991 75.8866 325.679 83.0319 324.812Z" fill="#BFBFBF"/>
<path d="M237.278 403.195L164.748 423.875C158.141 425.759 152.667 418.539 156.264 412.686L183.002 369.176C185.405 365.265 190.717 364.394 194.243 367.333L237.278 403.195ZM237.278 403.195L290.01 429.185M290.01 429.185L265.387 481.508C262.427 487.799 268.841 494.4 275.214 491.622L331.379 467.139C337.035 464.674 337.491 456.827 332.159 453.723L290.01 429.185ZM109.552 279.911L76.852 311.953C71.7109 316.991 75.8866 325.679 83.0319 324.812L128.242 319.325C133.339 318.707 136.337 313.282 134.149 308.637L121.639 282.082C119.43 277.392 113.255 276.283 109.552 279.911ZM111.078 223.607L88.1241 172.42C85.2237 165.952 92.049 159.423 98.382 162.608L139.01 183.036C142.874 184.979 144.312 189.77 142.157 193.52L124.483 224.278C121.418 229.613 113.595 229.221 111.078 223.607ZM233.546 143.941L271.397 104.124C275.859 99.4301 283.773 102.182 284.359 108.632L289.029 160.001C289.505 165.231 284.619 169.33 279.552 167.953L237.031 156.401C231.527 154.906 229.617 148.075 233.546 143.941ZM381.852 204.37L425.057 177.841C430.076 174.759 436.532 178.37 436.532 184.26V241.361C436.532 247.473 429.636 251.041 424.647 247.511L381.443 216.939C377.029 213.816 377.245 207.199 381.852 204.37Z" stroke="black" stroke-width="15.0665"/>
<path d="M656.062 545.578C685.508 512.171 718.425 438.853 711.984 394.005C710.985 387.047 718.385 378.928 725.045 381.176L820.876 413.518C823.938 414.552 826.016 417.408 825.907 420.638C823.76 484.472 784.983 589.96 763.345 602.619C762.029 603.389 760.436 603.333 758.983 602.874L660.831 571.879C653.372 569.523 650.89 551.446 656.062 545.578Z" fill="#BB7C38" stroke="black" stroke-width="15.0665"/>
<defs>
<filter id="filter0_i_104_598" x="109.992" y="146.816" width="372.971" height="349.109" filterUnits="userSpaceOnUse" color-interpolation-filters="sRGB">
<feFlood flood-opacity="0" result="BackgroundImageFix"/>
<feBlend mode="normal" in="SourceGraphic" in2="BackgroundImageFix" result="shape"/>
<feColorMatrix in="SourceAlpha" type="matrix" values="0 0 0 0 0 0 0 0 0 0 0 0 0 0 0 0 0 0 127 0" result="hardAlpha"/>
<feOffset dx="7.53323" dy="3.01329"/>
<feGaussianBlur stdDeviation="3.76662"/>
<feComposite in2="hardAlpha" operator="arithmetic" k2="-1" k3="1"/>
<feColorMatrix type="matrix" values="0 0 0 0 0.875 0 0 0 0 0.211458 0 0 0 0 0.211458 0 0 0 0.25 0"/>
<feBlend mode="normal" in2="shape" result="effect1_innerShadow_104_598"/>
</filter>
</defs>
</svg>
