<svg width="455" height="610" viewBox="0 0 455 610" fill="none" xmlns="http://www.w3.org/2000/svg">
<path d="M254.04 358.424C249.4 359.077 237.855 358.737 228.806 352.154L141.79 306.697C134.974 311.008 121.342 324.488 121.342 343.925" stroke="#2E2E2E" stroke-width="5"/>
<path d="M331.895 352.939C335.724 322.844 317.827 314.797 308.401 314.536C272.532 312.655 257.793 343.273 254.908 358.817C251.428 397.22 279.252 396.045 292.739 393.694C311.882 392.126 331.025 363.128 331.895 352.939Z" fill="url(#paint0_linear_163_696)" stroke="#2E2E2E" stroke-width="3"/>
<path d="M332.354 346.276L346.276 349.019C349.757 347.191 358.632 344.082 366.29 346.276" stroke="#2E2E2E" stroke-width="5"/>
<path d="M425.46 341.182L429.81 339.614L305.813 299.252C292.906 301.081 264.133 310.146 252.299 331.777" stroke="#2E2E2E" stroke-width="5"/>
<path d="M424.209 339.223C429.43 320.414 418.411 307.345 408.984 307.084C379.399 307.084 368.955 335.305 365.474 349.412C360.252 382.329 380.118 383.189 393.604 380.838C406.37 375.275 424.209 349.412 424.209 339.223Z" fill="url(#paint1_linear_163_696)" stroke="#2E2E2E" stroke-width="3"/>
<path d="M355.85 510.864C349.585 478.26 321.914 466.452 308.861 464.623V473.244C315.387 475.987 341.927 492.446 338.012 514.39C343.929 517.212 352.369 513.215 355.85 510.864Z" fill="#DB9C58" stroke="#2E2E2E" stroke-width="5"/>
<path d="M307.12 472.069V465.799L293.633 468.934L307.12 472.069Z" fill="#464646" stroke="#2E2E2E" stroke-width="5"/>
<path d="M449.389 552.737C431.986 538.278 397.18 537.143 388.479 547.421C394.715 551.438 409.536 559.116 418.934 557.698C431.464 560.817 444.458 555.69 449.389 552.737Z" fill="black" stroke="#2E2E2E" stroke-width="5"/>
<path d="M358.894 509.688C354.717 514.076 341.491 514.39 335.4 513.998C331.571 515.879 340.475 555.536 345.406 575.13C370.119 618.392 407.622 608.047 423.285 597.466C438.6 594.331 446.489 568.207 448.52 555.536C428.071 563.374 398.921 557.887 388.044 550.05V563.374C383.258 570.035 373.686 564.157 370.641 563.374C368.204 562.747 361.794 527.322 358.894 509.688Z" fill="#CB8C48" stroke="#2E2E2E" stroke-width="5"/>
<path d="M414.148 568.468C421.545 568.73 437.121 568.625 440.253 566.117" stroke="#2E2E2E" stroke-width="5"/>
<path d="M426.768 575.883C428.493 575.967 432.128 575.934 432.859 575.131" stroke="#2E2E2E" stroke-width="5"/>
<path d="M340.186 523.403C344.391 523.533 353.238 523.324 354.978 521.443" stroke="#2E2E2E" stroke-width="5"/>
<path d="M425.025 583.721C426.751 583.805 430.386 583.771 431.116 582.969" stroke="#2E2E2E" stroke-width="5"/>
<path d="M436.706 515.563C436.706 519.09 433.137 522.117 428.504 522.117C423.871 522.117 420.303 519.09 420.303 515.563C420.303 512.037 423.871 509.01 428.504 509.01C433.137 509.01 436.706 512.037 436.706 515.563Z" fill="#D9D9D9" stroke="black"/>
<path d="M448.887 523.01C448.887 526.776 445.291 529.955 440.686 529.955C436.08 529.955 432.484 526.776 432.484 523.01C432.484 519.244 436.08 516.064 440.686 516.064C445.291 516.064 448.887 519.244 448.887 523.01Z" fill="#D9D9D9" stroke="black"/>
<path d="M451.499 513.606C451.499 517.371 447.903 520.551 443.297 520.551C438.692 520.551 435.096 517.371 435.096 513.606C435.096 509.84 438.692 506.66 443.297 506.66C447.903 506.66 451.499 509.84 451.499 513.606Z" fill="#D9D9D9" stroke="black"/>
<path d="M442.798 509.294C442.798 513.299 439.176 516.632 434.596 516.632C430.016 516.632 426.395 513.299 426.395 509.294C426.395 505.29 430.016 501.957 434.596 501.957C439.176 501.957 442.798 505.29 442.798 509.294Z" fill="#D9D9D9" stroke="black"/>
<path d="M438.446 524.576C438.446 528.342 434.85 531.522 430.245 531.522C425.639 531.522 422.043 528.342 422.043 524.576C422.043 520.811 425.639 517.631 430.245 517.631C434.85 517.631 438.446 520.811 438.446 524.576Z" fill="#D9D9D9" stroke="black"/>
<rect x="427.635" y="510.078" width="15.6628" height="18.8097" fill="#D9D9D9"/>
<rect x="425.895" y="509.295" width="14.7926" height="18.8097" fill="#D9D9D9"/>
<path d="M417.87 488.195C417.87 490.037 415.986 491.698 413.431 491.698C410.876 491.698 408.992 490.037 408.992 488.195C408.992 486.353 410.876 484.691 413.431 484.691C415.986 484.691 417.87 486.353 417.87 488.195Z" fill="#D9D9D9" stroke="black"/>
<path d="M424.784 492.421C424.784 494.409 422.872 496.147 420.345 496.147C417.818 496.147 415.906 494.409 415.906 492.421C415.906 490.434 417.818 488.695 420.345 488.695C422.872 488.695 424.784 490.434 424.784 492.421Z" fill="#D9D9D9" stroke="black"/>
<path d="M426.264 487.085C426.264 489.073 424.353 490.811 421.825 490.811C419.298 490.811 417.387 489.073 417.387 487.085C417.387 485.098 419.298 483.359 421.825 483.359C424.353 483.359 426.264 485.098 426.264 487.085Z" fill="#D9D9D9" stroke="black"/>
<path d="M421.327 484.638C421.327 486.77 419.39 488.586 416.888 488.586C414.386 488.586 412.449 486.77 412.449 484.638C412.449 482.505 414.386 480.689 416.888 480.689C419.39 480.689 421.327 482.505 421.327 484.638Z" fill="#D9D9D9" stroke="black"/>
<path d="M418.858 493.312C418.858 495.299 416.947 497.038 414.419 497.038C411.892 497.038 409.98 495.299 409.98 493.312C409.98 491.324 411.892 489.586 414.419 489.586C416.947 489.586 418.858 491.324 418.858 493.312Z" fill="#D9D9D9" stroke="black"/>
<rect x="412.936" y="485.084" width="8.88969" height="10.6758" fill="#D9D9D9"/>
<rect x="411.949" y="484.639" width="8.39581" height="10.6758" fill="#D9D9D9"/>
<path d="M433.784 471.734C433.784 472.463 433.012 473.223 431.829 473.223C430.647 473.223 429.875 472.463 429.875 471.734C429.875 471.004 430.647 470.244 431.829 470.244C433.012 470.244 433.784 471.004 433.784 471.734Z" fill="#D9D9D9" stroke="black"/>
<path d="M437.221 473.834C437.221 474.648 436.422 475.434 435.267 475.434C434.112 475.434 433.312 474.648 433.312 473.834C433.312 473.021 434.112 472.234 435.267 472.234C436.422 472.234 437.221 473.021 437.221 473.834Z" fill="#D9D9D9" stroke="black"/>
<path d="M437.955 471.182C437.955 471.995 437.156 472.782 436.001 472.782C434.846 472.782 434.047 471.995 434.047 471.182C434.047 470.369 434.846 469.582 436.001 469.582C437.156 469.582 437.955 470.369 437.955 471.182Z" fill="#D9D9D9" stroke="black"/>
<path d="M435.5 469.966C435.5 470.863 434.676 471.677 433.546 471.677C432.416 471.677 431.592 470.863 431.592 469.966C431.592 469.07 432.416 468.256 433.546 468.256C434.676 468.256 435.5 469.07 435.5 469.966Z" fill="#D9D9D9" stroke="black"/>
<path d="M434.276 474.278C434.276 475.091 433.477 475.878 432.321 475.878C431.166 475.878 430.367 475.091 430.367 474.278C430.367 473.464 431.166 472.678 432.321 472.678C433.477 472.678 434.276 473.464 434.276 474.278Z" fill="#D9D9D9" stroke="black"/>
<rect x="431.584" y="470.188" width="4.41771" height="5.30531" fill="#D9D9D9"/>
<rect x="431.092" y="469.965" width="4.17228" height="5.30531" fill="#D9D9D9"/>
<path d="M3.39497 160.469C-1.47789 130.687 39.9415 102.08 61.2602 91.5L367.989 121.674C414.977 129.825 459.355 191.035 450.654 225.127C419.328 294.723 315.345 298.407 273.577 292.921C251.301 299.191 162.093 276.394 121.776 260.458C51.8157 246.978 3.39497 184.765 3.39497 160.469Z" fill="#363636" stroke="#2E2E2E" stroke-width="5"/>
<path d="M77.3557 32.721C68.6542 34.602 54.5867 120.5 48.6406 163.213L390.176 175.753L347.539 59.76C261.103 49.9632 86.0573 30.84 77.3557 32.721Z" fill="#363636" stroke="#2E2E2E" stroke-width="5"/>
<path d="M254.432 169.092C188.983 171.737 91.7178 164.452 48.6406 141.843V178.696C51.8381 187.165 156.206 212.436 239.204 208.279C301.856 205.142 381.04 208.279 391.481 178.696L376.382 153.997C363.8 163.145 322.304 166.349 254.432 169.092Z" fill="#464646"/>
<path d="M343.519 59.1184L77.7908 32.7217C83.8819 9.59906 216.212 -1.3891 244.93 4.62227C296.445 1.17215 332.121 39.5155 343.519 59.1184Z" fill="#464646"/>
<path d="M254.432 169.092C188.983 171.737 91.7178 164.452 48.6406 141.843V178.696C51.8381 187.165 156.206 212.436 239.204 208.279C301.856 205.142 381.04 208.279 391.481 178.696L376.382 153.997C363.8 163.145 322.304 166.349 254.432 169.092Z" stroke="#2E2E2E" stroke-width="5"/>
<path d="M343.519 59.1184L77.7908 32.7217C83.8819 9.59906 216.212 -1.3891 244.93 4.62227C296.445 1.17215 332.121 39.5155 343.519 59.1184Z" stroke="#2E2E2E" stroke-width="5"/>
<defs>
<linearGradient id="paint0_linear_163_696" x1="293.517" y1="314.453" x2="293.517" y2="394.666" gradientUnits="userSpaceOnUse">
<stop stop-opacity="0"/>
<stop offset="0.989583"/>
</linearGradient>
<linearGradient id="paint1_linear_163_696" x1="395.086" y1="307.084" x2="395.086" y2="381.633" gradientUnits="userSpaceOnUse">
<stop stop-opacity="0"/>
<stop offset="0.989583"/>
</linearGradient>
</defs>
</svg>
