<svg width="670" height="800" viewBox="0 0 670 800" fill="none" xmlns="http://www.w3.org/2000/svg">
<path d="M321.699 382.172C317.058 382.825 305.514 382.486 296.464 375.902L209.449 330.445C202.632 334.756 189 348.236 189 367.673" stroke="#2E2E2E" stroke-width="5"/>
<path d="M399.553 376.687C403.382 346.592 385.486 338.545 376.059 338.284C340.19 336.403 325.452 367.021 322.566 382.565C319.086 420.968 346.91 419.793 360.397 417.442C379.54 415.874 398.683 386.876 399.553 376.687Z" fill="black" stroke="#2E2E2E" stroke-width="3"/>
<path d="M400.012 370.024L413.934 372.767C417.415 370.939 426.29 367.83 433.948 370.024" stroke="#2E2E2E" stroke-width="5"/>
<path d="M493.118 364.93L497.469 363.363L373.472 323C360.564 324.829 331.791 333.894 319.957 355.525" stroke="#2E2E2E" stroke-width="5"/>
<path d="M491.867 362.971C497.088 344.162 486.069 331.093 476.642 330.832C447.057 330.832 436.613 359.053 433.132 373.16C427.91 406.077 447.776 406.937 461.262 404.586C474.029 399.023 491.867 373.16 491.867 362.971Z" fill="black" stroke="#2E2E2E" stroke-width="3"/>
<path d="M173.286 186.854C169.762 165.321 199.709 144.638 215.123 136.988L436.894 158.805C470.867 164.698 502.953 208.954 496.662 233.603C474.013 283.922 398.831 286.586 368.632 282.619C352.526 287.152 288.027 270.67 258.877 259.148C208.295 249.402 173.286 204.42 173.286 186.854Z" fill="#363636" stroke="black" stroke-width="10"/>
<path d="M226.762 94.4879C220.47 95.8479 210.299 157.954 206 188.836L452.936 197.902L422.109 114.038C359.614 106.954 233.053 93.128 226.762 94.4879Z" fill="#363636" stroke="black" stroke-width="10"/>
<path d="M354.791 193.088C307.47 195 237.146 189.732 206 173.386V200.032C208.312 206.154 283.772 224.426 343.781 221.421C389.079 219.152 446.33 221.421 453.88 200.032L442.963 182.173C433.866 188.787 403.864 191.104 354.791 193.088Z" fill="#464646"/>
<path d="M419.203 113.575L227.076 94.4893C231.48 77.7712 327.157 69.8266 347.921 74.1729C385.167 71.6784 410.961 99.4013 419.203 113.575Z" fill="#464646"/>
<path d="M354.791 193.088C307.47 195 237.146 189.732 206 173.386V200.032C208.312 206.154 283.772 224.426 343.781 221.421C389.079 219.152 446.33 221.421 453.88 200.032L442.963 182.173C433.866 188.787 403.864 191.104 354.791 193.088Z" stroke="black" stroke-width="10"/>
<path d="M419.203 113.575L227.076 94.4893C231.48 77.7712 327.157 69.8266 347.921 74.1729C385.167 71.6784 410.961 99.4013 419.203 113.575Z" stroke="black" stroke-width="10"/>
<path d="M369.575 556.585L335 530.039L360 507L394.575 526.033L369.575 556.585L415.319 645.237L380.213 727.878L354.149 645.237L369.575 556.585Z" fill="#A75A50"/>
<path d="M369.575 556.585L335 530.039L360 507L394.575 526.033L369.575 556.585ZM369.575 556.585L354.149 645.237L380.213 727.878L415.319 645.237L369.575 556.585Z" stroke="#2E2E2E" stroke-width="10.5786"/>
</svg>
