<svg width="613" height="701" viewBox="0 0 613 701" fill="none" xmlns="http://www.w3.org/2000/svg">
<path d="M514.557 457.315C535.277 456.344 494.96 319.833 492.576 266.48L460.059 303.156C470.818 393.792 485.698 458.667 514.557 457.315Z" fill="white" stroke="black" stroke-width="10"/>
<path d="M496.247 285.225C394.902 640.728 616.857 523.294 607.725 623.735L600.088 658.927C598.367 666.859 588.411 669.544 582.934 663.553L566.902 646.014C562.641 641.352 555.177 641.759 551.449 646.858L533.521 671.374C529.238 677.231 520.328 676.729 516.603 670.503C507.238 654.853 496.247 637.953 496.247 643.691C496.247 649.815 472.846 670.345 454.712 685.08C449.349 689.437 441.322 687.012 438.901 680.54C430.321 657.612 418.757 632.437 418.536 639.673C418.114 653.535 386.985 675.373 365.09 688.413C360.007 691.44 353.507 689.17 351.198 683.723L342.647 663.551C339.652 656.486 330.145 655.287 325.49 661.388L314.654 675.59C310.268 681.337 301.42 680.675 297.939 674.339L290.191 660.235C286.847 654.148 278.469 653.24 273.898 658.468L251.073 684.573C246.88 689.369 239.331 689.074 235.525 683.964L210.263 650.046C206.354 644.797 198.526 644.634 194.311 649.641C187.1 658.208 176.537 670.331 168.458 677.816C166.1 680.001 162.702 680.74 159.723 679.527C121.518 663.972 157.062 609.513 96.6794 670.2C49.8878 717.227 19.1308 686.311 6.50628 667.529C2.81651 662.04 6.39527 654.887 12.6424 652.714C53.0471 638.66 172.197 570.492 98.5151 265.141C10.6423 -99.0175 597.591 -70.2779 496.247 285.225Z" fill="white" stroke="black" stroke-width="10"/>
<ellipse cx="283.919" cy="159.372" rx="36.7137" ry="40.1649" fill="#161616"/>
<ellipse cx="412.417" cy="145.983" rx="36.7137" ry="40.1649" fill="#161616"/>
<path d="M275.352 340.117C280.898 390.528 282.13 496.717 301.85 494.033C329.317 490.294 333.894 426.918 330.813 340.117" stroke="black" stroke-width="10"/>
<path d="M308.086 267.773C283.608 247.019 301.053 233.633 317.265 233.633L445.148 220.912C471.161 215.604 473.907 245.011 456.774 259.738C446.005 274.198 343.574 293.878 308.086 267.773Z" fill="black" stroke="black" stroke-width="10"/>
</svg>
