<svg width="670" height="800" viewBox="0 0 670 800" fill="none" xmlns="http://www.w3.org/2000/svg">
<path d="M545.558 507.314C566.277 506.343 530.385 378.352 528.001 324.999L509.985 398.675C520.744 489.311 516.699 508.666 545.558 507.314Z" fill="white" fill-opacity="0.5" stroke="black" stroke-width="10"/>
<path d="M527.247 335.225C425.902 690.728 647.857 573.294 638.725 673.735L631.088 708.927C629.367 716.859 619.411 719.544 613.934 713.553L597.902 696.014C593.64 691.352 586.177 691.759 582.449 696.858L564.521 721.374C560.238 727.231 551.328 726.729 547.603 720.503C538.238 704.853 527.247 687.953 527.247 693.691C527.247 699.815 503.846 720.345 485.712 735.08C480.349 739.438 472.322 737.012 469.901 730.54C461.321 707.612 449.757 682.437 449.536 689.673C449.114 703.535 417.985 725.373 396.09 738.413C391.007 741.44 384.507 739.17 382.198 733.723L373.647 713.551C370.652 706.486 361.145 705.288 356.49 711.388L345.654 725.59C341.268 731.337 332.42 730.675 328.939 724.339L321.191 710.235C317.847 704.148 309.469 703.24 304.898 708.468L282.073 734.573C277.88 739.369 270.331 739.074 266.525 733.964L241.263 700.046C237.354 694.797 229.526 694.634 225.311 699.641C218.1 708.209 207.537 720.331 199.458 727.816C197.1 730.001 193.702 730.74 190.723 729.527C152.518 713.972 188.062 659.513 127.679 720.2C80.8878 767.228 50.1308 736.311 37.5063 717.529C33.8165 712.04 37.3953 704.887 43.6424 702.714C84.0471 688.66 203.197 620.492 129.515 315.141C41.6423 -49.0173 628.592 -20.2776 527.247 335.225Z" fill="white" fill-opacity="0.5" stroke="black" stroke-width="10"/>
<ellipse cx="314.919" cy="209.372" rx="36.7137" ry="40.1649" fill="#161616"/>
<ellipse cx="443.417" cy="195.983" rx="36.7137" ry="40.1649" fill="#161616"/>
<path d="M306.352 390.117C311.898 440.528 313.13 546.717 332.85 544.033C360.317 540.294 364.894 476.918 361.813 390.117" stroke="black" stroke-width="10"/>
<path d="M339.086 317.773C314.608 297.019 332.053 283.633 348.265 283.633L476.148 270.912C502.161 265.604 504.907 295.011 487.774 309.738C477.005 324.198 374.574 343.878 339.086 317.773Z" fill="black" stroke="black" stroke-width="10"/>
</svg>
