<svg width="887" height="675" viewBox="0 0 887 675" fill="none" xmlns="http://www.w3.org/2000/svg">
<path d="M857.224 141.835L233.609 504.942C254.551 480.284 233.046 447.661 219.676 434.432C399.963 329.44 770.501 113.124 810.358 87.7914C858.997 82.0492 861.868 121.428 857.224 141.835Z" fill="white" stroke="black" stroke-width="16.8887"/>
<path d="M848.491 119.167C845.119 113.662 839.937 108.507 835.11 104.522C830.457 100.679 823.956 100.499 818.614 103.307L804.344 110.81C794.971 115.738 792.393 127.978 798.982 136.268L802.112 140.204C807.856 147.431 818.411 148.795 826.256 143.928C830.787 141.116 836.173 137.957 842.23 134.699C848.191 131.493 852.027 124.939 848.491 119.167Z" fill="#3875BB" stroke="black" stroke-width="16.8887"/>
<path d="M755.048 152.812L650.338 211.501C654.729 211.501 656.39 222.478 656.671 227.967C691.715 208.967 762.141 169.532 763.492 163.79C764.843 158.048 758.425 154.079 755.048 152.812Z" fill="white" stroke="black" stroke-width="8.44434"/>
<path d="M645.432 235.41L258.947 457.907C254.25 460.611 246.166 458.138 242.675 453.993C239.611 450.356 239.84 444.339 243.977 441.992C381.421 364.03 641.812 216.442 646.115 214.456C647.454 213.839 648.904 214.356 650.338 215.524C656.943 220.908 652.816 231.158 645.432 235.41Z" fill="#020345" stroke="black" stroke-width="8.44434"/>
<path d="M244.165 501.986C284.81 471.502 228.402 427.817 212.076 421.343C171.543 445.409 46.145 541.675 32.2118 561.941C24.9 572.576 31.6489 582.208 36.8562 586.43C53.7449 595.718 185.054 546.319 244.165 501.986Z" fill="#5894DB" stroke="black" stroke-width="16.8887"/>
<path d="M62.1894 544.208C79.682 544.208 188.714 477.357 241.209 445.831C234.454 426.916 215.313 423.031 206.588 423.454C171.966 443.298 33.0564 544.208 62.1894 544.208Z" fill="#5894DB" stroke="black" stroke-width="16.8887"/>
<path d="M220.521 420.498C237.747 412.392 318.053 375.321 350.986 369.832C343.386 385.876 236.565 450.476 239.52 444.987C241.885 440.596 227.839 426.831 220.521 420.498Z" fill="#8FB8E7" stroke="black" stroke-width="16.8887"/>
</svg>
