<svg width="476" height="642" viewBox="0 0 476 642" fill="none" xmlns="http://www.w3.org/2000/svg">
<path d="M418.148 143.991L366.837 143.774L375.715 192.188L383.407 255.904L374.624 346.976L360.512 390.567L426.695 379.804L374.624 346.976L434.532 307.017L383.407 255.904L444.711 205.142L375.715 192.188L418.148 143.991Z" fill="black"/>
<path d="M375.715 192.188L418.148 143.991L366.837 143.774L375.715 192.188ZM375.715 192.188L444.711 205.142L383.407 255.904M375.715 192.188L383.407 255.904M383.407 255.904L434.532 307.017L374.624 346.976M383.407 255.904L374.624 346.976M374.624 346.976L426.695 379.804L360.512 390.567L374.624 346.976Z" stroke="black" stroke-width="4"/>
<path d="M188.222 408.415V328.293H303.173V449.655C328.078 453.189 386.626 463.323 421.571 475.577C456.516 487.831 469.084 534.097 471 555.699V636.999H42.9336H14.6474C7.36725 617.754 -2.825 570.781 14.6474 536.847C36.488 494.429 62.9266 489.716 98.5611 475.577C127.069 464.265 170.213 426.089 188.222 408.415Z" fill="black" stroke="black" stroke-width="10"/>
<path d="M411 58.7014C339.669 30.427 304.463 65.3005 295.776 86.2716L302.812 89.7757L323.52 98.0104L341.359 110.884L364.196 124.917C381.335 117.659 396.67 86.8927 394.705 83.0047C393.132 79.8943 404.913 65.5065 411 58.7014Z" fill="#D9D9D9" stroke="black" stroke-width="10"/>
<path d="M252.599 123.827C242.044 123.827 240.922 149.535 241.68 162.389V364.625L100.636 338.917L137.945 262.65L53.7734 223.66L108.826 179.956L53.7734 110.545H159.329L121.111 70.6976H177.983L169.793 23.1379L211.652 28.7079L197.547 3C216.11 4.37109 257.15 36.4203 275.349 52.2735V23.1379C293.548 26.5656 301.434 87.979 303.103 118.257L282.628 150.821L252.599 123.827Z" fill="black" stroke="black" stroke-width="4"/>
<g filter="url(#filter0_d_221_569)">
<path d="M119.293 192.361V233.565C128.868 250.831 151.766 295.724 166.753 337.164C181.74 378.603 244.604 407.014 274.163 416.04H324.121C334.945 409.369 358.592 392.024 366.585 376.013C383.571 367.537 398.641 326.961 404.053 307.732C408.217 292.036 414.045 246.986 404.053 192.361C394.062 137.736 339.108 97.3954 312.88 84.0532C288.317 76.9896 228.951 68.7488 187.985 92.294C147.02 115.839 125.121 168.816 119.293 192.361Z" fill="#C6C6C6"/>
<path d="M119.293 192.361V233.565C128.868 250.831 151.766 295.724 166.753 337.164C181.74 378.603 244.604 407.014 274.163 416.04H324.121C334.945 409.369 358.592 392.024 366.585 376.013C383.571 367.537 398.641 326.961 404.053 307.732C408.217 292.036 414.045 246.986 404.053 192.361C394.062 137.736 339.108 97.3954 312.88 84.0532C288.317 76.9896 228.951 68.7488 187.985 92.294C147.02 115.839 125.121 168.816 119.293 192.361Z" stroke="black" stroke-width="10"/>
</g>
<path d="M70.6082 37.2787C33.4187 101.194 109.411 148.851 130.67 159.141L135.094 152.91L145.918 134.357L161.348 118.969L178.515 99.0171C172.609 82.2168 141.95 66.1347 137.377 66.1347C113.377 66.1347 77.1713 43.6792 70.6082 37.2787Z" fill="#D9D9D9" stroke="black" stroke-width="10"/>
<path d="M114.677 83.6682L80.4291 87.7665L128.223 100.175L107.054 106.412L127.98 109.834L118.699 121.587L146.287 118.442" stroke="black" stroke-width="4"/>
<path d="M391.821 337.201C355.145 337.201 278.049 295.975 246.861 277.251C235.588 270.845 227.52 280.516 224.895 286.152C207.355 311.801 312.142 358.35 383.176 356.053C382.759 352.145 394.096 337.201 391.821 337.201Z" fill="#D9D9D9" stroke="black" stroke-width="4"/>
<path d="M402.415 293.499C484.526 229.961 357.148 203.436 327.672 242.109L329.777 293.499H402.415Z" fill="#C6C6C6" stroke="black" stroke-width="4"/>
<path d="M405.473 267.255C403.289 267.94 382.421 248.688 372.26 238.976C419.123 225.265 429.587 241.118 429.587 245.831C429.587 250.544 408.203 266.398 405.473 267.255Z" fill="#FF0101" stroke="black" stroke-width="4"/>
<path d="M382.058 247.477C389.41 246.309 402.885 247.513 397.965 261.672L382.058 247.477Z" fill="black" stroke="black" stroke-width="4"/>
<path d="M43.4351 196.505L118.476 183.121L122.332 225.384L133.25 279.976L177.809 352.918L213.641 385.282L113.007 393.426L177.809 352.918L76.1968 335.338L133.25 279.976L25.8338 253.835L122.332 225.384L43.4351 196.505Z" fill="black"/>
<path d="M122.332 225.384L43.4351 196.505L118.476 183.121L122.332 225.384ZM122.332 225.384L25.8338 253.835L133.25 279.976M122.332 225.384L133.25 279.976M133.25 279.976L76.1968 335.338L177.809 352.918M133.25 279.976L177.809 352.918M177.809 352.918L113.007 393.426L213.641 385.282L177.809 352.918Z" stroke="black" stroke-width="4"/>
<rect x="316.754" y="238.656" width="21.8391" height="53.1297" fill="#C6C6C6"/>
<path d="M179.805 158.962H119.293L171.994 110.605L172.526 110.117V109.26L207.559 80.553L250.327 75.8398L319.484 88.2653L377.267 136.254H339.503L319.484 88.2653L293.55 116.116L250.327 75.8398L235.768 101.119L208.469 81.8384L205.739 123.4L172.635 110.848L179.805 158.962Z" fill="black"/>
<path d="M172.526 110.117L179.805 158.962H119.293L172.526 110.117ZM172.526 110.117V109.26L207.559 80.553M170.706 110.117L205.739 123.4L208.469 81.8384M208.469 81.8384L235.768 101.119L250.327 75.8398M208.469 81.8384L207.559 80.553M250.327 75.8398L293.55 116.116L319.484 88.2653M250.327 75.8398L319.484 88.2653M250.327 75.8398L207.559 80.553M319.484 88.2653L339.503 136.254H377.267L319.484 88.2653Z" stroke="black" stroke-width="4"/>
<path d="M223.48 288.786L244.41 276.789L263.974 288.786L275.348 294.785L290.363 302.925L302.192 308.496L313.567 315.351L325.851 320.493L340.41 325.206L351.33 330.776L365.889 335.06L376.354 336.774H390.913L379.084 356.484L367.709 355.198L353.15 353.484L337.68 351.771L321.756 348.343L308.107 344.487L290.363 338.917L278.078 333.775L266.704 329.49L247.139 319.207L230.76 305.925L226.665 302.069L223.48 297.355V288.786Z" fill="white"/>
<path d="M244.41 276.789L223.48 288.786V297.355L226.665 302.069L230.76 305.925M244.41 276.789L230.76 305.925M244.41 276.789L263.974 288.786M230.76 305.925L263.974 288.786M230.76 305.925L247.139 319.207M263.974 288.786L247.139 319.207M263.974 288.786L275.348 294.785M247.139 319.207L275.348 294.785M247.139 319.207L266.704 329.49M275.348 294.785L266.704 329.49M275.348 294.785L290.363 302.925M266.704 329.49L290.363 302.925M266.704 329.49L278.078 333.775M290.363 302.925L278.078 333.775M290.363 302.925L302.192 308.496M278.078 333.775L302.192 308.496M278.078 333.775L290.363 338.917M302.192 308.496L290.363 338.917M302.192 308.496L313.567 315.351M290.363 338.917L313.567 315.351M290.363 338.917L308.107 344.487M313.567 315.351L308.107 344.487M313.567 315.351L325.851 320.493M308.107 344.487L325.851 320.493M308.107 344.487L321.756 348.343M325.851 320.493L321.756 348.343M325.851 320.493L340.41 325.206M321.756 348.343L340.41 325.206M321.756 348.343L337.68 351.771M340.41 325.206L337.68 351.771M340.41 325.206L351.33 330.776M337.68 351.771L351.33 330.776M337.68 351.771L353.15 353.484M351.33 330.776L353.15 353.484M351.33 330.776L365.889 335.06M353.15 353.484L365.889 335.06M353.15 353.484L367.709 355.198M365.889 335.06L367.709 355.198M365.889 335.06L376.354 336.774M367.709 355.198L376.354 336.774M367.709 355.198L379.084 356.484M376.354 336.774L379.084 356.484M376.354 336.774H390.913L379.084 356.484" stroke="black" stroke-width="4"/>
<path d="M279.688 181.958C283.928 181.958 286.158 181.958 295.111 181.957C294.059 195.502 282.351 205.379 267.16 205.379C252.006 205.379 240.675 195.534 239.66 181.957C245.415 181.957 248.575 181.957 253.247 181.957C256.678 181.957 260.925 181.957 267.615 181.957C273.735 181.957 277.089 181.958 279.688 181.958Z" fill="white" stroke="black" stroke-width="4"/>
<path d="M380.195 180.674C379.123 194.419 367.096 205.382 352.244 205.382C337.391 205.382 325.363 194.418 324.292 180.672C328.394 180.669 332.492 180.67 338.748 180.671C342.379 180.671 346.737 180.672 352.244 180.672C367.805 180.672 370.187 180.672 380.195 180.674Z" fill="white" stroke="black" stroke-width="4"/>
<path d="M233.945 145.252L295.823 160.677" stroke="black" stroke-width="7"/>
<path d="M374.08 148.678L316.753 164.102" stroke="black" stroke-width="7"/>
<ellipse cx="268.071" cy="193.667" rx="4.09482" ry="9.85471" fill="#FF0101"/>
<ellipse cx="352.694" cy="193.667" rx="4.09482" ry="9.85471" fill="#FF0101"/>
<path d="M176 197.5L138.5 157L111 206.5L158 326L183 296L167 273.5L176 244.5L138.5 229L167 214.5L138.5 188.5L176 197.5Z" fill="black" stroke="black"/>
<defs>
<filter id="filter0_d_221_569" x="110.293" y="71.6953" width="308.277" height="357.346" filterUnits="userSpaceOnUse" color-interpolation-filters="sRGB">
<feFlood flood-opacity="0" result="BackgroundImageFix"/>
<feColorMatrix in="SourceAlpha" type="matrix" values="0 0 0 0 0 0 0 0 0 0 0 0 0 0 0 0 0 0 127 0" result="hardAlpha"/>
<feOffset dy="4"/>
<feGaussianBlur stdDeviation="2"/>
<feComposite in2="hardAlpha" operator="out"/>
<feColorMatrix type="matrix" values="0 0 0 0 0 0 0 0 0 0 0 0 0 0 0 0 0 0 0.25 0"/>
<feBlend mode="normal" in2="BackgroundImageFix" result="effect1_dropShadow_221_569"/>
<feBlend mode="normal" in="SourceGraphic" in2="effect1_dropShadow_221_569" result="shape"/>
</filter>
</defs>
</svg>
