<svg width="670" height="800" viewBox="0 0 670 800" fill="none" xmlns="http://www.w3.org/2000/svg">
<path d="M513.148 223.991L461.837 223.774L470.715 272.188L478.407 335.904L469.624 426.976L455.512 470.567L521.695 459.804L469.624 426.976L529.532 387.017L478.407 335.904L539.711 285.142L470.715 272.188L513.148 223.991Z" fill="black"/>
<path d="M470.715 272.188L513.148 223.991L461.837 223.774L470.715 272.188ZM470.715 272.188L539.711 285.142L478.407 335.904M470.715 272.188L478.407 335.904M478.407 335.904L529.532 387.017L469.624 426.976M478.407 335.904L469.624 426.976M469.624 426.976L521.695 459.804L455.512 470.567L469.624 426.976Z" stroke="black" stroke-width="4"/>
<path d="M283.222 488.415V408.293H398.173V529.655C423.078 533.189 481.626 543.323 516.571 555.577C551.516 567.831 564.084 614.097 566 635.699V716.999H137.934H109.647C102.367 697.754 92.175 650.781 109.647 616.847C131.488 574.429 157.927 569.716 193.561 555.577C222.069 544.265 265.213 506.089 283.222 488.415Z" fill="black" stroke="black" stroke-width="10"/>
<path d="M506 138.701C434.669 110.427 399.463 145.301 390.776 166.272L397.812 169.776L418.52 178.01L436.359 190.884L459.196 204.917C476.335 197.659 491.67 166.893 489.705 163.005C488.132 159.894 499.913 145.507 506 138.701Z" fill="#D9D9D9" stroke="black" stroke-width="10"/>
<path d="M347.599 203.827C337.044 203.827 335.922 229.535 336.68 242.389V444.625L195.636 418.917L232.945 342.65L148.773 303.66L203.826 259.956L148.773 190.545H254.329L216.111 150.698H272.983L264.793 103.138L306.652 108.708L292.547 83C311.11 84.3711 352.15 116.42 370.349 132.274V103.138C388.548 106.566 396.434 167.979 398.103 198.257L377.628 230.821L347.599 203.827Z" fill="black" stroke="black" stroke-width="4"/>
<g filter="url(#filter0_d_236_579)">
<path d="M214.293 272.361V313.565C223.868 330.831 246.766 375.724 261.753 417.164C276.74 458.603 339.604 487.014 369.163 496.04H419.121C429.945 489.369 453.592 472.024 461.585 456.013C478.571 447.537 493.641 406.961 499.053 387.732C503.217 372.036 509.045 326.986 499.053 272.361C489.062 217.736 434.108 177.395 407.88 164.053C383.317 156.99 323.951 148.749 282.985 172.294C242.02 195.839 220.121 248.816 214.293 272.361Z" fill="#C6C6C6"/>
<path d="M214.293 272.361V313.565C223.868 330.831 246.766 375.724 261.753 417.164C276.74 458.603 339.604 487.014 369.163 496.04H419.121C429.945 489.369 453.592 472.024 461.585 456.013C478.571 447.537 493.641 406.961 499.053 387.732C503.217 372.036 509.045 326.986 499.053 272.361C489.062 217.736 434.108 177.395 407.88 164.053C383.317 156.99 323.951 148.749 282.985 172.294C242.02 195.839 220.121 248.816 214.293 272.361Z" stroke="black" stroke-width="10"/>
</g>
<path d="M165.608 117.279C128.419 181.194 204.411 228.851 225.67 239.141L230.094 232.91L240.918 214.357L256.348 198.969L273.515 179.017C267.609 162.217 236.95 146.135 232.377 146.135C208.377 146.135 172.171 123.679 165.608 117.279Z" fill="#D9D9D9" stroke="black" stroke-width="10"/>
<path d="M209.677 163.668L175.429 167.766L223.223 180.175L202.054 186.412L222.98 189.834L213.699 201.587L241.287 198.442" stroke="black" stroke-width="4"/>
<path d="M486.821 417.201C450.145 417.201 373.049 375.975 341.861 357.251C330.588 350.845 322.52 360.516 319.895 366.152C302.355 391.801 407.142 438.35 478.176 436.053C477.759 432.145 489.096 417.201 486.821 417.201Z" fill="#D9D9D9" stroke="black" stroke-width="4"/>
<path d="M497.415 373.499C579.526 309.961 452.148 283.436 422.672 322.109L424.777 373.499H497.415Z" fill="#C6C6C6" stroke="black" stroke-width="4"/>
<path d="M500.473 347.255C498.289 347.94 477.421 328.688 467.26 318.976C514.123 305.265 524.587 321.118 524.587 325.831C524.587 330.544 503.203 346.398 500.473 347.255Z" fill="#FF0101" stroke="black" stroke-width="4"/>
<path d="M477.058 327.477C484.41 326.309 497.885 327.513 492.965 341.672L477.058 327.477Z" fill="black" stroke="black" stroke-width="4"/>
<path d="M138.435 276.505L213.476 263.121L217.332 305.384L228.25 359.976L272.809 432.918L308.641 465.282L208.007 473.426L272.809 432.918L171.197 415.338L228.25 359.976L120.834 333.835L217.332 305.384L138.435 276.505Z" fill="black"/>
<path d="M217.332 305.384L138.435 276.505L213.476 263.121L217.332 305.384ZM217.332 305.384L120.834 333.835L228.25 359.976M217.332 305.384L228.25 359.976M228.25 359.976L171.197 415.338L272.809 432.918M228.25 359.976L272.809 432.918M272.809 432.918L208.007 473.426L308.641 465.282L272.809 432.918Z" stroke="black" stroke-width="4"/>
<rect x="411.754" y="318.656" width="21.8391" height="53.1297" fill="#C6C6C6"/>
<path d="M274.805 238.962H214.293L266.994 190.605L267.526 190.117V189.26L302.559 160.553L345.327 155.84L414.484 168.265L472.267 216.254H434.503L414.484 168.265L388.55 196.116L345.327 155.84L330.768 181.119L303.469 161.838L300.739 203.4L267.635 190.848L274.805 238.962Z" fill="black"/>
<path d="M267.526 190.117L274.805 238.962H214.293L267.526 190.117ZM267.526 190.117V189.26L302.559 160.553M265.706 190.117L300.739 203.4L303.469 161.838M303.469 161.838L330.768 181.119L345.327 155.84M303.469 161.838L302.559 160.553M345.327 155.84L388.55 196.116L414.484 168.265M345.327 155.84L414.484 168.265M345.327 155.84L302.559 160.553M414.484 168.265L434.503 216.254H472.267L414.484 168.265Z" stroke="black" stroke-width="4"/>
<path d="M318.48 368.786L339.41 356.789L358.974 368.786L370.348 374.785L385.363 382.925L397.192 388.496L408.567 395.351L420.851 400.493L435.41 405.206L446.33 410.776L460.889 415.06L471.354 416.774H485.913L474.084 436.484L462.709 435.198L448.15 433.484L432.68 431.771L416.756 428.343L403.107 424.487L385.363 418.917L373.078 413.775L361.704 409.49L342.139 399.207L325.76 385.925L321.665 382.069L318.48 377.355V368.786Z" fill="white"/>
<path d="M339.41 356.789L318.48 368.786V377.355L321.665 382.069L325.76 385.925M339.41 356.789L325.76 385.925M339.41 356.789L358.974 368.786M325.76 385.925L358.974 368.786M325.76 385.925L342.139 399.207M358.974 368.786L342.139 399.207M358.974 368.786L370.348 374.785M342.139 399.207L370.348 374.785M342.139 399.207L361.704 409.49M370.348 374.785L361.704 409.49M370.348 374.785L385.363 382.925M361.704 409.49L385.363 382.925M361.704 409.49L373.078 413.775M385.363 382.925L373.078 413.775M385.363 382.925L397.192 388.496M373.078 413.775L397.192 388.496M373.078 413.775L385.363 418.917M397.192 388.496L385.363 418.917M397.192 388.496L408.567 395.351M385.363 418.917L408.567 395.351M385.363 418.917L403.107 424.487M408.567 395.351L403.107 424.487M408.567 395.351L420.851 400.493M403.107 424.487L420.851 400.493M403.107 424.487L416.756 428.343M420.851 400.493L416.756 428.343M420.851 400.493L435.41 405.206M416.756 428.343L435.41 405.206M416.756 428.343L432.68 431.771M435.41 405.206L432.68 431.771M435.41 405.206L446.33 410.776M432.68 431.771L446.33 410.776M432.68 431.771L448.15 433.484M446.33 410.776L448.15 433.484M446.33 410.776L460.889 415.06M448.15 433.484L460.889 415.06M448.15 433.484L462.709 435.198M460.889 415.06L462.709 435.198M460.889 415.06L471.354 416.774M462.709 435.198L471.354 416.774M462.709 435.198L474.084 436.484M471.354 416.774L474.084 436.484M471.354 416.774H485.913L474.084 436.484" stroke="black" stroke-width="4"/>
<path d="M374.688 261.958C378.928 261.958 381.158 261.958 390.111 261.957C389.059 275.502 377.351 285.379 362.16 285.379C347.006 285.379 335.675 275.534 334.66 261.957C340.415 261.957 343.575 261.957 348.247 261.957C351.678 261.957 355.925 261.957 362.615 261.957C368.735 261.957 372.089 261.958 374.688 261.958Z" fill="white" stroke="black" stroke-width="4"/>
<path d="M475.195 260.674C474.123 274.419 462.096 285.382 447.244 285.382C432.391 285.382 420.363 274.418 419.292 260.672C423.394 260.669 427.492 260.67 433.748 260.671C437.379 260.671 441.737 260.672 447.244 260.672C462.805 260.672 465.187 260.672 475.195 260.674Z" fill="white" stroke="black" stroke-width="4"/>
<path d="M328.945 225.252L390.823 240.677" stroke="black" stroke-width="7"/>
<path d="M469.08 228.678L411.753 244.102" stroke="black" stroke-width="7"/>
<ellipse cx="363.071" cy="273.667" rx="4.09482" ry="9.85471" fill="#FF0101"/>
<ellipse cx="447.694" cy="273.667" rx="4.09482" ry="9.85471" fill="#FF0101"/>
<path d="M271 277.5L233.5 237L206 286.5L253 406L278 376L262 353.5L271 324.5L233.5 309L262 294.5L233.5 268.5L271 277.5Z" fill="black" stroke="black"/>
<defs>
<filter id="filter0_d_236_579" x="205.293" y="151.695" width="308.277" height="357.346" filterUnits="userSpaceOnUse" color-interpolation-filters="sRGB">
<feFlood flood-opacity="0" result="BackgroundImageFix"/>
<feColorMatrix in="SourceAlpha" type="matrix" values="0 0 0 0 0 0 0 0 0 0 0 0 0 0 0 0 0 0 127 0" result="hardAlpha"/>
<feOffset dy="4"/>
<feGaussianBlur stdDeviation="2"/>
<feComposite in2="hardAlpha" operator="out"/>
<feColorMatrix type="matrix" values="0 0 0 0 0 0 0 0 0 0 0 0 0 0 0 0 0 0 0.25 0"/>
<feBlend mode="normal" in2="BackgroundImageFix" result="effect1_dropShadow_236_579"/>
<feBlend mode="normal" in="SourceGraphic" in2="effect1_dropShadow_236_579" result="shape"/>
</filter>
</defs>
</svg>
