<svg width="887" height="675" viewBox="0 0 887 675" fill="none" xmlns="http://www.w3.org/2000/svg">
<path d="M64.879 382.007C18.079 247.207 104.379 198.507 153.379 191.007L146.879 244.007C94.879 274.407 70.5457 348.674 64.879 382.007Z" fill="#C77A70" stroke="black" stroke-width="20"/>
<path d="M854.879 334.507C924.479 610.907 714.879 680.007 628.379 601.507C569.179 657.907 408.046 641.673 334.879 626.507C182.379 679.507 121.379 601.507 86.8791 555.507C-35.5209 485.907 34.8791 392.507 72.879 387.507C64.879 328.707 122.212 266.34 151.879 242.507C150.279 96.5067 243.212 72.34 289.879 78.5067C434.505 -36.7642 539.723 76.3169 501.811 152.239C570.803 75.9962 646.72 108.392 678.379 137.007C789.979 110.607 842.546 257.673 854.879 334.507Z" fill="#E79A8F" stroke="black" stroke-width="20"/>
<path d="M288.379 75.5068C296.203 81.7659 312.606 98.3087 319.217 116.86M319.217 116.86C319.648 118.068 320.037 119.284 320.379 120.507C325.979 140.507 321.938 126.409 319.217 116.86ZM209.379 356.507C217.212 315.84 251.279 232.807 324.879 226.007M324.879 226.007C322.712 210.674 321.279 176.107 332.879 160.507C344.479 144.907 337.712 151.007 332.879 156.007C327.546 174.34 318.479 214.007 324.879 226.007ZM324.879 226.007C341.57 237.81 368.598 254.522 391.854 263.507M391.854 263.507C410.63 270.76 426.946 272.977 433.379 263.507C425.854 266.34 407.014 270.307 391.854 263.507ZM677.379 135.007C658.046 150.84 630.979 193.207 677.379 236.007C670.899 219.212 652.1 190.538 621.831 184.007M621.831 184.007C613.953 182.307 605.297 182.107 595.879 184.007H621.831ZM831.879 250.007C838.379 281.84 840.179 346.607 795.379 351.007C814.046 343.84 851.579 325.507 852.379 309.507L858.879 356.507L842.879 319.007M475.379 219.007C479.076 237.709 493.058 263.929 522.879 267.682M522.879 267.682C538.769 269.681 559.155 265.302 584.879 250.007C569.181 257.29 534.803 271.022 522.879 267.682ZM522.879 267.682C517.212 292.124 506.179 343.007 507.379 351.007M507.379 351.007C508.879 361.007 588.879 382.507 485.879 473.507C503.879 459.674 541.179 421.707 546.379 380.507C565.379 372.507 610.779 359.907 640.379 373.507M507.379 351.007C486.029 341.007 433.034 338.507 391.854 408.507C383.196 367.174 340.879 307.907 240.879 401.507C250.379 411.174 268.479 434.407 264.879 450.007C235.927 401.808 108.245 389.71 100.725 554.007M640.379 373.507C640.379 319.007 747.879 226.007 747.879 330.507M640.379 373.507C664.514 392.174 694.593 440.507 621.831 484.507C676.347 446.007 783.479 392.107 775.879 484.507C783.712 456.674 775.979 412.707 682.379 459.507C588.779 506.307 640.046 479.007 677.379 459.507C726.879 484.507 771.379 612.507 654.379 600.507L636.379 594.507C637.56 592.895 638.821 591.082 640.129 589.094M611.879 610.507L626.004 595.132M626.004 595.132L640.129 579.757L668.379 549.007L659.879 504.507C671.586 530.728 653.43 568.887 640.129 589.094M626.004 595.132L601.879 613.851M595.879 618.507L601.879 613.851M601.879 613.851L654.379 573.712M659.879 569.507L654.379 573.712M654.379 573.712L640.129 589.094M441.379 636.507C406.824 632.466 338.77 619.142 301.952 595.132M301.952 595.132C294.729 590.422 288.709 585.3 284.379 579.757L301.952 595.132ZM209.379 514.007C238.879 532.507 309.379 545.607 355.379 450.007C324.879 504.507 401.179 573.307 507.379 518.507M100.725 554.007C100.496 559.009 100.379 564.174 100.379 569.507L100.725 554.007ZM118.379 388.507L80.8789 380.507C88.6691 322.23 121.075 221.913 190.879 239.402M190.879 239.402C198.733 241.37 207.06 244.829 215.879 250.007L190.879 239.402Z" stroke="black" stroke-width="20"/>
<path d="M505.379 76.5063C563.379 37.3063 603.212 75.8397 615.879 100.006C605.079 90.4063 542.712 116.673 512.879 131.006L505.379 76.5063Z" fill="#C77A70" stroke="black" stroke-width="20"/>
</svg>
