<svg width="547" height="392" viewBox="0 0 547 392" fill="none" xmlns="http://www.w3.org/2000/svg">
<path d="M309.503 367.339C53.9718 351.62 127.169 376.073 55.3535 370.059C54.2059 369.963 52.9919 370.048 51.8689 370.303C43.5066 372.203 6.51728 379.297 6.13173 356.169C5.69707 330.092 91.0235 321.246 63.3393 318.141C35.6552 315.037 -7.91304 290.566 9.31294 269.764C26.5389 248.962 121.564 255.341 80.5823 235.903C39.6003 216.464 15.0982 211.583 25.3127 192.691C35.5272 173.8 107.441 187.063 61.2976 159.095C49.7794 152.113 42.6036 145.87 38.32 140.431C32.4559 132.985 47.5088 131.382 56.0682 135.452C83.9795 148.724 155.612 160.53 338.154 142.687C655.814 111.636 567.153 383.188 309.503 367.339Z" stroke="white" stroke-width="10"/>
<path d="M100.807 127.755C99.9677 127.755 99.2964 127.503 98.793 127C98.3734 126.413 98.2056 125.657 98.2895 124.734L111.631 40.7813C111.799 39.8583 112.093 39.229 112.512 38.8933C113.016 38.4738 113.687 38.264 114.526 38.264H141.839C150.23 38.264 156.818 40.1939 161.6 44.0539C166.383 47.8299 168.775 53.6197 168.775 61.4235C168.775 69.8985 166.048 76.7372 160.594 81.9397C155.223 87.0583 147.419 89.6176 137.182 89.6176H109.114L103.45 125.238C103.366 126.077 103.114 126.706 102.695 127.126C102.275 127.545 101.646 127.755 100.807 127.755ZM109.995 84.7088H137.686C145.993 84.7088 152.328 82.7369 156.692 78.7931C161.055 74.8492 163.237 69.1013 163.237 61.5493C163.237 55.1721 161.391 50.515 157.699 47.5781C154.09 44.6412 148.804 43.1728 141.839 43.1728H116.54L109.995 84.7088ZM176.605 127.755C175.766 127.755 175.137 127.503 174.717 127C174.381 126.413 174.298 125.615 174.465 124.609L183.402 67.9685C183.57 67.0455 183.905 66.3742 184.409 65.9547C184.912 65.5351 185.584 65.3253 186.423 65.3253C187.262 65.3253 187.849 65.619 188.185 66.2064C188.604 66.7099 188.73 67.4651 188.562 68.472L179.626 125.112C179.542 125.951 179.248 126.58 178.745 127C178.241 127.503 177.528 127.755 176.605 127.755ZM189.192 49.4661C188.017 49.4661 187.094 49.1724 186.423 48.5851C185.751 47.9138 185.416 47.0327 185.416 45.9419C185.416 44.2636 185.877 43.005 186.8 42.1659C187.723 41.2428 188.982 40.7813 190.576 40.7813C191.751 40.7813 192.674 41.075 193.345 41.6624C194.017 42.2498 194.352 43.1308 194.352 44.3056C194.352 45.8999 193.891 47.1586 192.968 48.0816C192.045 49.0046 190.786 49.4661 189.192 49.4661ZM222.536 128.007C218.424 128.007 215.026 127.21 212.34 125.615C209.655 123.937 207.767 121.588 206.676 118.567C205.586 115.546 205.376 111.938 206.047 107.742L211.963 70.6117H202.145C201.306 70.6117 200.635 70.4439 200.131 70.1083C199.628 69.7726 199.376 69.3111 199.376 68.7237C199.376 67.8007 199.67 67.1294 200.257 66.7099C200.845 66.2903 201.558 66.0805 202.397 66.0805H212.592L215.361 48.9627C215.529 48.0396 215.865 47.3683 216.368 46.9488C216.872 46.5292 217.543 46.3195 218.382 46.3195C219.221 46.3195 219.809 46.6132 220.144 47.2005C220.564 47.704 220.69 48.4592 220.522 49.4661L217.879 66.0805H235.5C236.423 66.0805 237.094 66.2484 237.514 66.584C238.017 66.8357 238.269 67.2972 238.269 67.9685C238.269 68.8076 237.975 69.4789 237.388 69.9824C236.884 70.402 236.171 70.6117 235.248 70.6117H217.123L211.459 106.61C210.536 112.483 211.04 116.721 212.97 119.322C214.984 121.839 218.298 123.098 222.913 123.098C224.927 123.098 226.479 122.93 227.57 122.595C228.661 122.175 229.5 121.965 230.088 121.965C230.591 121.965 230.969 122.133 231.22 122.469C231.556 122.721 231.724 123.182 231.724 123.853C231.724 124.609 231.598 125.238 231.346 125.741C231.179 126.161 230.759 126.497 230.088 126.748C229.249 127.084 228.074 127.378 226.563 127.629C225.137 127.881 223.794 128.007 222.536 128.007ZM265.762 128.007C260.14 128.007 255.483 126.916 251.791 124.734C248.183 122.469 245.497 119.364 243.735 115.42C241.973 111.393 241.092 106.777 241.092 101.575C241.092 97.1276 241.68 92.7643 242.854 88.4848C244.029 84.1214 245.833 80.1776 248.267 76.6533C250.784 73.1291 253.972 70.318 257.832 68.2203C261.776 66.1225 266.475 65.0736 271.929 65.0736C275.202 65.0736 278.349 65.5771 281.369 66.584C284.474 67.5909 287.075 68.9335 289.173 70.6117C289.928 71.1991 290.474 71.8284 290.809 72.4997C291.145 73.171 291.271 73.8004 291.187 74.3877C291.103 74.9751 290.851 75.4366 290.432 75.7723C290.096 76.1079 289.677 76.2757 289.173 76.2757C288.67 76.1918 288.082 75.8981 287.411 75.3947C285.145 73.4647 282.712 72.0802 280.111 71.2411C277.593 70.402 274.782 69.9824 271.678 69.9824C267.23 69.9824 263.412 70.9054 260.224 72.7515C257.035 74.5136 254.434 76.947 252.42 80.0517C250.406 83.0725 248.896 86.4709 247.889 90.2469C246.966 93.939 246.504 97.715 246.504 101.575C246.504 108.12 248.015 113.364 251.036 117.308C254.14 121.168 259.133 123.098 266.014 123.098C268.363 123.098 270.797 122.721 273.314 121.965C275.915 121.126 278.349 119.826 280.614 118.063C281.202 117.56 281.789 117.308 282.376 117.308C282.964 117.308 283.425 117.476 283.761 117.812C284.181 118.063 284.474 118.441 284.642 118.945C284.81 119.448 284.81 119.993 284.642 120.581C284.474 121.084 284.139 121.546 283.635 121.965C281.286 123.895 278.475 125.406 275.202 126.497C272.013 127.503 268.867 128.007 265.762 128.007ZM300.259 127.755C299.42 127.755 298.791 127.503 298.371 127C298.036 126.413 297.952 125.615 298.12 124.609L311.461 40.152C311.629 39.229 311.965 38.5577 312.468 38.1381C312.972 37.7186 313.643 37.5088 314.482 37.5088C315.321 37.5088 315.909 37.8025 316.244 38.3899C316.664 38.8933 316.79 39.6485 316.622 40.6555L310.203 81.1845H308.818C310.916 76.1499 314.063 72.206 318.258 69.3531C322.454 66.5001 327.53 65.0736 333.488 65.0736C338.019 65.0736 341.795 65.9966 344.816 67.8427C347.921 69.6048 350.103 72.3319 351.361 76.024C352.704 79.6322 352.914 84.2473 351.991 89.8693L346.452 125.112C346.368 125.951 346.033 126.58 345.445 127C344.942 127.503 344.229 127.755 343.306 127.755C342.467 127.755 341.837 127.503 341.418 127C341.082 126.413 340.998 125.615 341.166 124.609L346.704 89.7435C347.795 83.0306 347.208 78.0798 344.942 74.8912C342.676 71.6187 338.816 69.9824 333.362 69.9824C326.146 69.9824 320.44 72.1641 316.244 76.5275C312.133 80.8069 309.49 86.5548 308.315 93.7712L303.406 125.112C303.154 126.874 302.105 127.755 300.259 127.755ZM372.851 96.0368C372.012 96.0368 371.424 95.869 371.089 95.5333C370.753 95.1977 370.585 94.7781 370.585 94.2747C370.585 93.5195 370.837 92.8482 371.341 92.2608C371.844 91.5895 372.599 91.2539 373.606 91.2539H403.311C404.15 91.2539 404.737 91.4217 405.073 91.7573C405.408 92.093 405.576 92.5125 405.576 93.016C405.576 93.7712 405.325 94.4844 404.821 95.1557C404.318 95.7431 403.562 96.0368 402.555 96.0368H372.851ZM439.562 128.007C436.206 128.007 433.017 127.294 429.996 125.867C426.976 124.357 424.542 122.259 422.696 119.574C420.85 116.889 419.927 113.742 419.927 110.134C419.927 105.854 421.102 102.414 423.451 99.8128C425.885 97.2116 429.661 95.3236 434.779 94.1488C439.898 92.974 446.485 92.3867 454.54 92.3867H464.736L463.98 97.0437H456.554C448.751 97.0437 442.625 97.4633 438.178 98.3024C433.73 99.0576 430.542 100.4 428.612 102.33C426.766 104.176 425.843 106.694 425.843 109.882C425.843 114.246 427.269 117.56 430.122 119.826C433.059 122.091 436.332 123.224 439.94 123.224C443.296 123.224 446.485 122.427 449.506 120.833C452.61 119.238 455.254 116.931 457.435 113.91C459.617 110.889 461.043 107.239 461.715 102.959L464.232 87.352C465.155 81.646 464.484 77.3246 462.218 74.3877C460.037 71.4508 456.009 69.9824 450.135 69.9824C446.779 69.9824 443.59 70.318 440.569 70.9893C437.632 71.6606 434.821 72.9612 432.136 74.8912C431.465 75.3947 430.794 75.6464 430.122 75.6464C429.535 75.6464 429.031 75.4786 428.612 75.1429C428.192 74.8073 427.941 74.3877 427.857 73.8843C427.773 73.3808 427.857 72.8354 428.108 72.248C428.36 71.6606 428.864 71.1152 429.619 70.6117C432.556 68.6818 435.828 67.2972 439.436 66.4581C443.045 65.5351 446.695 65.0736 450.387 65.0736C455.338 65.0736 459.323 66.0386 462.344 67.9685C465.449 69.8146 467.589 72.5417 468.763 76.1499C469.938 79.6741 470.106 83.9536 469.267 88.9883L463.477 125.112C463.393 125.951 463.099 126.58 462.596 127C462.092 127.503 461.421 127.755 460.582 127.755C459.743 127.755 459.155 127.462 458.82 126.874C458.484 126.287 458.358 125.532 458.442 124.609L460.33 112.399H461.589C460.498 115.924 458.778 118.861 456.428 121.21C454.163 123.476 451.52 125.196 448.499 126.371C445.562 127.462 442.583 128.007 439.562 128.007Z" fill="white"/>
<path d="M201.976 193.444C202.247 194.938 202.859 195.889 203.81 196.297C204.897 196.704 205.508 197.248 205.644 197.927C205.916 199.422 206.255 200.644 206.663 201.595C207.206 202.546 208.157 203.429 209.516 204.245C211.01 205.06 211.894 206.147 212.165 207.505C212.437 208.728 213.116 209.951 214.203 211.174C214.339 211.717 214.339 212.464 214.203 213.415C214.203 214.366 214.067 215.317 213.796 216.269C213.66 217.084 213.456 217.899 213.184 218.714C212.913 219.529 212.709 220.005 212.573 220.141C212.437 220.548 212.301 220.956 212.165 221.363C212.029 221.771 211.826 222.247 211.554 222.79C211.282 223.469 210.875 224.352 210.331 225.439C209.924 226.39 209.38 227.477 208.701 228.7C206.255 233.455 204.217 236.512 202.587 237.871C202.451 238.142 201.772 238.278 200.549 238.278C199.462 238.278 198.239 238.346 196.881 238.482C195.522 238.618 194.299 238.89 193.212 239.297C192.126 239.705 191.582 240.452 191.582 241.539C190.631 241.811 190.223 242.286 190.359 242.966C190.631 243.509 191.039 244.12 191.582 244.8C192.261 245.479 192.873 246.158 193.416 246.838C193.96 247.381 194.096 247.721 193.824 247.857C196.133 248.4 198.783 248.604 201.772 248.468C204.761 248.332 207.206 248.264 209.108 248.264C209.924 249.759 210.875 250.914 211.962 251.729C213.048 252.408 214.679 252.748 216.853 252.748L229.08 267.625L228.469 287.597L221.947 295.748C217.192 295.748 212.913 297.99 209.108 302.474L203.606 309.199C202.111 309.878 200.141 310.354 197.696 310.625C195.25 310.761 191.242 310.829 185.672 310.829C182.004 310.829 178.403 310.761 174.871 310.625C171.474 310.49 168.349 310.422 165.496 310.422C162.779 310.422 160.537 310.49 158.771 310.625C157.141 310.625 156.326 310.829 156.326 311.237C154.152 310.829 152.521 310.693 151.435 310.829C150.348 310.965 149.397 310.897 148.581 310.625L127.998 314.498L122.903 310.218C123.039 308.995 123.243 307.569 123.515 305.938C124.194 303.764 124.602 301.93 124.737 300.436C125.009 298.805 125.145 297.447 125.145 296.36C125.145 296.088 125.077 295.545 124.941 294.729C124.805 293.778 124.534 293.031 124.126 292.488L124.941 280.056C127.115 280.464 129.017 280.056 130.647 278.833L132.074 274.758C130.987 272.856 130.24 271.429 129.832 270.478C129.425 269.391 128.27 268.848 126.368 268.848L125.145 256.212C125.824 256.076 126.3 255.737 126.572 255.193C126.843 254.65 126.979 254.106 126.979 253.563L127.183 251.933C127.455 251.253 127.726 250.846 127.998 250.71C128.677 248.808 129.221 246.226 129.628 242.966C130.036 239.569 130.444 235.561 130.851 230.942C131.395 226.187 131.734 222.111 131.87 218.714C132.142 215.317 132.278 213.212 132.278 212.396C132.278 212.261 132.074 210.223 131.666 206.283C131.259 202.478 129.425 199.557 126.164 197.519V186.515C126.843 185.428 128.949 184.884 132.482 184.884C133.433 184.748 134.248 184.68 134.927 184.68C135.742 184.68 136.422 184.68 136.965 184.68H139.003C139.818 184.68 141.449 184.68 143.894 184.68C146.476 184.544 148.717 184.273 150.619 183.865C151.027 183.593 151.842 183.254 153.065 182.846C154.288 182.439 155.035 182.235 155.307 182.235L178.743 182.846C178.879 183.797 179.286 184.68 179.966 185.496C180.781 186.175 181.664 186.854 182.615 187.533C183.566 188.077 184.449 188.552 185.264 188.96C186.215 189.368 186.895 189.707 187.302 189.979C188.661 189.979 189.816 190.047 190.767 190.183C191.718 190.183 192.601 190.251 193.416 190.387C194.639 190.522 196.541 190.522 199.122 190.387L201.976 193.444ZM155.307 296.971L182.411 299.213C184.178 298.805 185.672 298.398 186.895 297.99C188.253 297.583 189.544 297.039 190.767 296.36C191.99 295.545 193.28 294.458 194.639 293.099C196.133 291.74 197.9 289.906 199.938 287.597L203.81 275.165L198.715 260.084L170.387 250.098L159.383 249.895C157.48 250.574 156.122 251.933 155.307 253.971C154.491 255.873 154.084 257.843 154.084 259.881C154.22 263.956 154.491 265.791 154.899 265.383C155.035 265.926 154.763 267.217 154.084 269.255C153.54 271.157 153.201 273.874 153.065 277.407C152.929 279.173 152.861 280.736 152.861 282.094C152.861 283.453 152.861 284.608 152.861 285.559V288.819L152.657 293.099L155.307 296.971ZM157.548 200.984L157.752 208.524L154.899 213.212L157.548 220.548V233.387L160.605 236.648H165.7C167.195 236.512 168.553 236.58 169.776 236.852C171.135 236.988 171.95 237.056 172.222 237.056C173.716 237.056 174.735 236.784 175.278 236.24C175.958 235.561 176.365 235.221 176.501 235.221C176.909 235.221 177.656 235.561 178.743 236.24L182.819 233.591C182.547 232.368 182.547 231.146 182.819 229.923C182.955 228.836 183.159 227.749 183.43 226.662C183.702 225.439 184.245 224.284 185.061 223.198C186.419 221.16 187.302 219.665 187.71 218.714C188.253 217.627 188.729 216.404 189.137 215.046C188.729 213.008 188.118 211.377 187.302 210.155C186.623 208.796 185.876 207.709 185.061 206.894C184.245 205.943 183.498 205.128 182.819 204.448C182.275 203.769 181.936 203.022 181.8 202.207C180.713 200.984 179.898 199.625 179.354 198.131C178.811 196.636 178.335 195.889 177.928 195.889L169.98 194.259L161.624 196.093L157.548 200.984ZM340.959 243.577C341.366 245.887 341.57 247.925 341.57 249.691C341.57 251.321 341.502 252.952 341.366 254.582C341.366 256.076 341.434 257.571 341.57 259.065C341.842 260.424 342.385 261.919 343.2 263.549C342.929 264.092 342.249 265.179 341.163 266.81C340.212 268.304 339.532 269.867 339.125 271.497C338.853 272.991 338.649 274.146 338.513 274.961C338.377 275.777 338.241 276.32 338.106 276.592C338.513 276.863 338.853 277.407 339.125 278.222C339.26 278.901 339.125 279.785 338.717 280.871C338.309 281.822 337.494 283.181 336.271 284.947C333.826 288.208 332.467 290.993 332.196 293.303C331.924 295.477 331.38 297.175 330.565 298.398C330.294 298.669 329.41 299.077 327.916 299.621C326.557 300.164 324.927 300.843 323.025 301.658C321.123 302.338 319.221 303.153 317.319 304.104C315.416 305.055 313.922 306.006 312.835 306.957C310.525 307.365 308.487 307.908 306.721 308.588C304.955 309.267 302.781 309.742 300.2 310.014C297.754 310.558 295.241 311.237 292.659 312.052C290.078 312.731 288.651 313.071 288.38 313.071C281.994 313.071 278.19 313.275 276.967 313.682C275.88 314.09 274.59 314.294 273.095 314.294L254.55 307.569L245.99 295.137C245.99 291.876 245.855 289.159 245.583 286.985C245.447 284.676 245.243 282.706 244.971 281.075C244.7 279.309 244.496 277.679 244.36 276.184C244.224 274.69 244.224 272.991 244.36 271.089C244.768 270.682 245.379 269.731 246.194 268.236C247.009 266.606 247.825 264.772 248.64 262.734C249.591 260.696 250.474 258.59 251.289 256.416C252.24 254.242 252.919 252.408 253.327 250.914C254.414 247.789 255.229 245.072 255.773 242.762C256.316 240.316 256.724 238.142 256.995 236.24C258.082 235.561 258.965 234.814 259.645 233.999C260.324 233.183 261.003 232.504 261.683 231.961C267.253 228.7 272.076 226.051 276.152 224.013C280.228 221.839 284.032 220.48 287.565 219.937L293.678 219.529C294.358 219.665 294.969 219.801 295.513 219.937C296.056 220.073 296.599 220.209 297.143 220.344C297.958 220.616 298.705 220.82 299.385 220.956C300.064 220.956 300.472 220.956 300.607 220.956L304.683 227.273C304.683 228.496 304.412 229.515 303.868 230.33C303.325 231.01 303.868 231.485 305.498 231.757C307.265 232.165 308.216 232.436 308.352 232.572V232.776C310.525 232.776 312.767 232.3 315.077 231.349C317.387 230.262 319.696 229.719 322.006 229.719C322.549 229.719 323.5 229.991 324.859 230.534C326.218 230.942 327.644 231.485 329.139 232.165C330.633 232.844 331.992 233.523 333.215 234.202C334.573 234.746 335.524 235.153 336.068 235.425C335.796 237.463 335.864 238.89 336.271 239.705C336.679 240.52 337.223 241.131 337.902 241.539C338.581 241.811 339.193 242.083 339.736 242.354C340.415 242.49 340.823 242.898 340.959 243.577ZM304.48 294.526C306.517 293.167 308.487 288.819 310.39 281.483C311.476 277.543 312.36 274.622 313.039 272.72C313.854 270.682 314.262 268.78 314.262 267.013C314.262 264.024 313.243 260.492 311.205 256.416C310.118 254.242 309.303 252.408 308.759 250.914C308.216 249.419 307.808 247.925 307.536 246.43C306.45 245.887 305.838 245.072 305.702 243.985C305.702 242.762 305.159 241.539 304.072 240.316C302.713 239.229 301.898 238.822 301.626 239.094C301.355 239.365 301.083 239.501 300.811 239.501H298.977C297.89 239.501 296.396 239.705 294.494 240.113C292.727 240.52 291.301 241.471 290.214 242.966C288.584 244.732 287.157 246.158 285.934 247.245C284.847 248.196 284.236 248.808 284.1 249.079C282.741 251.661 281.519 253.903 280.432 255.805C279.345 257.571 278.462 258.997 277.782 260.084L275.948 264.364C275.133 266.402 274.793 269.119 274.929 272.516C275.201 273.059 275.473 274.282 275.744 276.184C276.016 277.95 275.201 279.852 273.299 281.89C272.891 282.298 272.484 283.113 272.076 284.336C271.669 285.423 271.397 286.714 271.261 288.208C271.125 289.703 271.261 291.197 271.669 292.692C272.212 294.186 273.231 295.477 274.725 296.564C276.628 297.922 278.598 299.281 280.636 300.64C282.673 301.862 283.964 302.474 284.508 302.474H286.749C287.565 302.474 288.312 302.677 288.991 303.085L304.48 294.526ZM458.778 243.577C459.185 245.887 459.389 247.925 459.389 249.691C459.389 251.321 459.321 252.952 459.185 254.582C459.185 256.076 459.253 257.571 459.389 259.065C459.661 260.424 460.204 261.919 461.019 263.549C460.748 264.092 460.068 265.179 458.981 266.81C458.03 268.304 457.351 269.867 456.943 271.497C456.672 272.991 456.468 274.146 456.332 274.961C456.196 275.777 456.06 276.32 455.924 276.592C456.332 276.863 456.672 277.407 456.943 278.222C457.079 278.901 456.943 279.785 456.536 280.871C456.128 281.822 455.313 283.181 454.09 284.947C451.645 288.208 450.286 290.993 450.014 293.303C449.743 295.477 449.199 297.175 448.384 298.398C448.112 298.669 447.229 299.077 445.735 299.621C444.376 300.164 442.746 300.843 440.844 301.658C438.942 302.338 437.039 303.153 435.137 304.104C433.235 305.055 431.741 306.006 430.654 306.957C428.344 307.365 426.306 307.908 424.54 308.588C422.774 309.267 420.6 309.742 418.019 310.014C415.573 310.558 413.06 311.237 410.478 312.052C407.897 312.731 406.47 313.071 406.199 313.071C399.813 313.071 396.009 313.275 394.786 313.682C393.699 314.09 392.408 314.294 390.914 314.294L372.369 307.569L363.809 295.137C363.809 291.876 363.673 289.159 363.402 286.985C363.266 284.676 363.062 282.706 362.79 281.075C362.519 279.309 362.315 277.679 362.179 276.184C362.043 274.69 362.043 272.991 362.179 271.089C362.586 270.682 363.198 269.731 364.013 268.236C364.828 266.606 365.643 264.772 366.459 262.734C367.41 260.696 368.293 258.59 369.108 256.416C370.059 254.242 370.738 252.408 371.146 250.914C372.233 247.789 373.048 245.072 373.591 242.762C374.135 240.316 374.542 238.142 374.814 236.24C375.901 235.561 376.784 234.814 377.463 233.999C378.143 233.183 378.822 232.504 379.501 231.961C385.072 228.7 389.895 226.051 393.971 224.013C398.047 221.839 401.851 220.48 405.383 219.937L411.497 219.529C412.176 219.665 412.788 219.801 413.331 219.937C413.875 220.073 414.418 220.209 414.962 220.344C415.777 220.616 416.524 220.82 417.203 220.956C417.883 220.956 418.29 220.956 418.426 220.956L422.502 227.273C422.502 228.496 422.23 229.515 421.687 230.33C421.143 231.01 421.687 231.485 423.317 231.757C425.083 232.165 426.035 232.436 426.17 232.572V232.776C428.344 232.776 430.586 232.3 432.896 231.349C435.205 230.262 437.515 229.719 439.825 229.719C440.368 229.719 441.319 229.991 442.678 230.534C444.036 230.942 445.463 231.485 446.957 232.165C448.452 232.844 449.811 233.523 451.033 234.202C452.392 234.746 453.343 235.153 453.886 235.425C453.615 237.463 453.683 238.89 454.09 239.705C454.498 240.52 455.041 241.131 455.721 241.539C456.4 241.811 457.011 242.083 457.555 242.354C458.234 242.49 458.642 242.898 458.778 243.577ZM422.298 294.526C424.336 293.167 426.306 288.819 428.208 281.483C429.295 277.543 430.178 274.622 430.858 272.72C431.673 270.682 432.08 268.78 432.08 267.013C432.08 264.024 431.061 260.492 429.024 256.416C427.937 254.242 427.121 252.408 426.578 250.914C426.035 249.419 425.627 247.925 425.355 246.43C424.268 245.887 423.657 245.072 423.521 243.985C423.521 242.762 422.978 241.539 421.891 240.316C420.532 239.229 419.717 238.822 419.445 239.094C419.173 239.365 418.902 239.501 418.63 239.501H416.796C415.709 239.501 414.214 239.705 412.312 240.113C410.546 240.52 409.12 241.471 408.033 242.966C406.402 244.732 404.976 246.158 403.753 247.245C402.666 248.196 402.055 248.808 401.919 249.079C400.56 251.661 399.337 253.903 398.251 255.805C397.164 257.571 396.281 258.997 395.601 260.084L393.767 264.364C392.952 266.402 392.612 269.119 392.748 272.516C393.02 273.059 393.292 274.282 393.563 276.184C393.835 277.95 393.02 279.852 391.118 281.89C390.71 282.298 390.303 283.113 389.895 284.336C389.487 285.423 389.216 286.714 389.08 288.208C388.944 289.703 389.08 291.197 389.487 292.692C390.031 294.186 391.05 295.477 392.544 296.564C394.446 297.922 396.416 299.281 398.454 300.64C400.492 301.862 401.783 302.474 402.326 302.474H404.568C405.383 302.474 406.131 302.677 406.81 303.085L422.298 294.526Z" fill="white"/>
</svg>
