<svg width="1280" height="720" viewBox="0 0 1280 720" fill="none" xmlns="http://www.w3.org/2000/svg">
<path d="M67.9562 59.0308C24.528 75.2505 38.4374 73.9046 26.1145 78.1989C25.9176 78.2675 25.7231 78.371 25.5561 78.496C24.3127 79.4262 18.7163 83.3239 16.9492 79.5265C14.9567 75.2448 28.4201 67.497 23.6118 69.0225C18.8036 70.5479 9.79415 69.7086 11.1117 64.9988C12.4292 60.289 28.6183 54.3456 20.4073 54.1484C12.1963 53.9511 7.78361 54.9483 8.08195 51.0709C8.38029 47.1935 21.2533 44.091 11.5602 42.8629C9.1407 42.5564 7.49383 42.0521 6.38467 41.4679C4.86622 40.6681 7.23828 39.2943 8.95394 39.3371C14.5486 39.4769 27.2676 36.1541 56.15 19.7582C106.411 -8.77403 111.745 42.6766 67.9562 59.0308Z" stroke="#EFEFEF" stroke-opacity="0.15" stroke-width="1.81077"/>
<path d="M67.9562 125.031C24.528 141.251 38.4374 139.905 26.1145 144.199C25.9176 144.268 25.7231 144.371 25.5561 144.496C24.3127 145.426 18.7163 149.324 16.9492 145.527C14.9567 141.245 28.4201 133.497 23.6118 135.022C18.8036 136.548 9.79415 135.709 11.1117 130.999C12.4292 126.289 28.6183 120.346 20.4073 120.148C12.1963 119.951 7.78361 120.948 8.08195 117.071C8.38029 113.194 21.2533 110.091 11.5602 108.863C9.1407 108.556 7.49383 108.052 6.38467 107.468C4.86622 106.668 7.23828 105.294 8.95394 105.337C14.5486 105.477 27.2676 102.154 56.15 85.7582C106.411 57.226 111.745 108.677 67.9562 125.031Z" stroke="#EFEFEF" stroke-opacity="0.15" stroke-width="1.81077"/>
<path d="M179.956 56.0308C136.528 72.2505 150.437 70.9046 138.115 75.1989C137.918 75.2675 137.723 75.371 137.556 75.496C136.313 76.4262 130.716 80.3239 128.949 76.5265C126.957 72.2448 140.42 64.497 135.612 66.0225C130.804 67.5479 121.794 66.7086 123.112 61.9988C124.429 57.289 140.618 51.3456 132.407 51.1484C124.196 50.9511 119.784 51.9483 120.082 48.0709C120.38 44.1935 133.253 41.091 123.56 39.8629C121.141 39.5564 119.494 39.0521 118.385 38.4679C116.866 37.6681 119.238 36.2943 120.954 36.3371C126.549 36.4769 139.268 33.1541 168.15 16.7582C218.411 -11.774 223.745 39.6766 179.956 56.0308Z" stroke="#EFEFEF" stroke-opacity="0.15" stroke-width="1.81077"/>
<path d="M182.956 122.031C139.528 138.251 153.437 136.905 141.115 141.199C140.918 141.268 140.723 141.371 140.556 141.496C139.313 142.426 133.716 146.324 131.949 142.527C129.957 138.245 143.42 130.497 138.612 132.022C133.804 133.548 124.794 132.709 126.112 127.999C127.429 123.289 143.618 117.346 135.407 117.148C127.196 116.951 122.784 117.948 123.082 114.071C123.38 110.194 136.253 107.091 126.56 105.863C124.141 105.556 122.494 105.052 121.385 104.468C119.866 103.668 122.238 102.294 123.954 102.337C129.549 102.477 142.268 99.1541 171.15 82.7582C221.411 54.226 226.745 105.677 182.956 122.031Z" stroke="#EFEFEF" stroke-opacity="0.15" stroke-width="1.81077"/>
<path d="M67.9562 652.031C24.528 668.251 38.4374 666.905 26.1145 671.199C25.9176 671.268 25.7231 671.371 25.5561 671.496C24.3127 672.426 18.7163 676.324 16.9492 672.527C14.9567 668.245 28.4201 660.497 23.6118 662.022C18.8036 663.548 9.79415 662.709 11.1117 657.999C12.4292 653.289 28.6183 647.346 20.4073 647.148C12.1963 646.951 7.78361 647.948 8.08195 644.071C8.38029 640.194 21.2533 637.091 11.5602 635.863C9.1407 635.556 7.49383 635.052 6.38467 634.468C4.86622 633.668 7.23828 632.294 8.95394 632.337C14.5486 632.477 27.2676 629.154 56.15 612.758C106.411 584.226 111.745 635.677 67.9562 652.031Z" stroke="#EFEFEF" stroke-opacity="0.15" stroke-width="1.81077"/>
<path d="M67.9562 718.031C24.528 734.251 38.4374 732.905 26.1145 737.199C25.9176 737.268 25.7231 737.371 25.5561 737.496C24.3127 738.426 18.7163 742.324 16.9492 738.527C14.9567 734.245 28.4201 726.497 23.6118 728.022C18.8036 729.548 9.79415 728.709 11.1117 723.999C12.4292 719.289 28.6183 713.346 20.4073 713.148C12.1963 712.951 7.78361 713.948 8.08195 710.071C8.38029 706.194 21.2533 703.091 11.5602 701.863C9.1407 701.556 7.49383 701.052 6.38467 700.468C4.86622 699.668 7.23828 698.294 8.95394 698.337C14.5486 698.477 27.2676 695.154 56.15 678.758C106.411 650.226 111.745 701.677 67.9562 718.031Z" stroke="#EFEFEF" stroke-opacity="0.15" stroke-width="1.81077"/>
<path d="M179.956 649.031C136.528 665.251 150.437 663.905 138.115 668.199C137.918 668.268 137.723 668.371 137.556 668.496C136.313 669.426 130.716 673.324 128.949 669.527C126.957 665.245 140.42 657.497 135.612 659.022C130.804 660.548 121.794 659.709 123.112 654.999C124.429 650.289 140.618 644.346 132.407 644.148C124.196 643.951 119.784 644.948 120.082 641.071C120.38 637.194 133.253 634.091 123.56 632.863C121.141 632.556 119.494 632.052 118.385 631.468C116.866 630.668 119.238 629.294 120.954 629.337C126.549 629.477 139.268 626.154 168.15 609.758C218.411 581.226 223.745 632.677 179.956 649.031Z" stroke="#EFEFEF" stroke-opacity="0.15" stroke-width="1.81077"/>
<path d="M182.956 715.031C139.528 731.251 153.437 729.905 141.115 734.199C140.918 734.268 140.723 734.371 140.556 734.496C139.313 735.426 133.716 739.324 131.949 735.527C129.957 731.245 143.42 723.497 138.612 725.022C133.804 726.548 124.794 725.709 126.112 720.999C127.429 716.289 143.618 710.346 135.407 710.148C127.196 709.951 122.784 710.948 123.082 707.071C123.38 703.194 136.253 700.091 126.56 698.863C124.141 698.556 122.494 698.052 121.385 697.468C119.866 696.668 122.238 695.294 123.954 695.337C129.549 695.477 142.268 692.154 171.15 675.758C221.411 647.226 226.745 698.677 182.956 715.031Z" stroke="#EFEFEF" stroke-opacity="0.15" stroke-width="1.81077"/>
<path d="M289.956 652.031C246.528 668.251 260.437 666.905 248.115 671.199C247.918 671.268 247.723 671.371 247.556 671.496C246.313 672.426 240.716 676.324 238.949 672.527C236.957 668.245 250.42 660.497 245.612 662.022C240.804 663.548 231.794 662.709 233.112 657.999C234.429 653.289 250.618 647.346 242.407 647.148C234.196 646.951 229.784 647.948 230.082 644.071C230.38 640.194 243.253 637.091 233.56 635.863C231.141 635.556 229.494 635.052 228.385 634.468C226.866 633.668 229.238 632.294 230.954 632.337C236.549 632.477 249.268 629.154 278.15 612.758C328.411 584.226 333.745 635.677 289.956 652.031Z" stroke="#EFEFEF" stroke-opacity="0.15" stroke-width="1.81077"/>
<path d="M289.956 718.031C246.528 734.251 260.437 732.905 248.115 737.199C247.918 737.268 247.723 737.371 247.556 737.496C246.313 738.426 240.716 742.324 238.949 738.527C236.957 734.245 250.42 726.497 245.612 728.022C240.804 729.548 231.794 728.709 233.112 723.999C234.429 719.289 250.618 713.346 242.407 713.148C234.196 712.951 229.784 713.948 230.082 710.071C230.38 706.194 243.253 703.091 233.56 701.863C231.141 701.556 229.494 701.052 228.385 700.468C226.866 699.668 229.238 698.294 230.954 698.337C236.549 698.477 249.268 695.154 278.15 678.758C328.411 650.226 333.745 701.677 289.956 718.031Z" stroke="#EFEFEF" stroke-opacity="0.15" stroke-width="1.81077"/>
<path d="M401.956 649.031C358.528 665.251 372.437 663.905 360.115 668.199C359.918 668.268 359.723 668.371 359.556 668.496C358.313 669.426 352.716 673.324 350.949 669.527C348.957 665.245 362.42 657.497 357.612 659.022C352.804 660.548 343.794 659.709 345.112 654.999C346.429 650.289 362.618 644.346 354.407 644.148C346.196 643.951 341.784 644.948 342.082 641.071C342.38 637.194 355.253 634.091 345.56 632.863C343.141 632.556 341.494 632.052 340.385 631.468C338.866 630.668 341.238 629.294 342.954 629.337C348.549 629.477 361.268 626.154 390.15 609.758C440.411 581.226 445.745 632.677 401.956 649.031Z" stroke="#EFEFEF" stroke-opacity="0.15" stroke-width="1.81077"/>
<path d="M404.956 715.031C361.528 731.251 375.437 729.905 363.115 734.199C362.918 734.268 362.723 734.371 362.556 734.496C361.313 735.426 355.716 739.324 353.949 735.527C351.957 731.245 365.42 723.497 360.612 725.022C355.804 726.548 346.794 725.709 348.112 720.999C349.429 716.289 365.618 710.346 357.407 710.148C349.196 709.951 344.784 710.948 345.082 707.071C345.38 703.194 358.253 700.091 348.56 698.863C346.141 698.556 344.494 698.052 343.385 697.468C341.866 696.668 344.238 695.294 345.954 695.337C351.549 695.477 364.268 692.154 393.15 675.758C443.411 647.226 448.745 698.677 404.956 715.031Z" stroke="#EFEFEF" stroke-opacity="0.15" stroke-width="1.81077"/>
<path d="M511.956 652.031C468.528 668.251 482.437 666.905 470.115 671.199C469.918 671.268 469.723 671.371 469.556 671.496C468.313 672.426 462.716 676.324 460.949 672.527C458.957 668.245 472.42 660.497 467.612 662.022C462.804 663.548 453.794 662.709 455.112 657.999C456.429 653.289 472.618 647.346 464.407 647.148C456.196 646.951 451.784 647.948 452.082 644.071C452.38 640.194 465.253 637.091 455.56 635.863C453.141 635.556 451.494 635.052 450.385 634.468C448.866 633.668 451.238 632.294 452.954 632.337C458.549 632.477 471.268 629.154 500.15 612.758C550.411 584.226 555.745 635.677 511.956 652.031Z" stroke="#EFEFEF" stroke-opacity="0.15" stroke-width="1.81077"/>
<path d="M511.956 718.031C468.528 734.251 482.437 732.905 470.115 737.199C469.918 737.268 469.723 737.371 469.556 737.496C468.313 738.426 462.716 742.324 460.949 738.527C458.957 734.245 472.42 726.497 467.612 728.022C462.804 729.548 453.794 728.709 455.112 723.999C456.429 719.289 472.618 713.346 464.407 713.148C456.196 712.951 451.784 713.948 452.082 710.071C452.38 706.194 465.253 703.091 455.56 701.863C453.141 701.556 451.494 701.052 450.385 700.468C448.866 699.668 451.238 698.294 452.954 698.337C458.549 698.477 471.268 695.154 500.15 678.758C550.411 650.226 555.745 701.677 511.956 718.031Z" stroke="#EFEFEF" stroke-opacity="0.15" stroke-width="1.81077"/>
<path d="M623.956 649.031C580.528 665.251 594.437 663.905 582.115 668.199C581.918 668.268 581.723 668.371 581.556 668.496C580.313 669.426 574.716 673.324 572.949 669.527C570.957 665.245 584.42 657.497 579.612 659.022C574.804 660.548 565.794 659.709 567.112 654.999C568.429 650.289 584.618 644.346 576.407 644.148C568.196 643.951 563.784 644.948 564.082 641.071C564.38 637.194 577.253 634.091 567.56 632.863C565.141 632.556 563.494 632.052 562.385 631.468C560.866 630.668 563.238 629.294 564.954 629.337C570.549 629.477 583.268 626.154 612.15 609.758C662.411 581.226 667.745 632.677 623.956 649.031Z" stroke="#EFEFEF" stroke-opacity="0.15" stroke-width="1.81077"/>
<path d="M626.956 715.031C583.528 731.251 597.437 729.905 585.115 734.199C584.918 734.268 584.723 734.371 584.556 734.496C583.313 735.426 577.716 739.324 575.949 735.527C573.957 731.245 587.42 723.497 582.612 725.022C577.804 726.548 568.794 725.709 570.112 720.999C571.429 716.289 587.618 710.346 579.407 710.148C571.196 709.951 566.784 710.948 567.082 707.071C567.38 703.194 580.253 700.091 570.56 698.863C568.141 698.556 566.494 698.052 565.385 697.468C563.866 696.668 566.238 695.294 567.954 695.337C573.549 695.477 586.268 692.154 615.15 675.758C665.411 647.226 670.745 698.677 626.956 715.031Z" stroke="#EFEFEF" stroke-opacity="0.15" stroke-width="1.81077"/>
<path d="M67.9562 356.031C24.528 372.251 38.4374 370.905 26.1145 375.199C25.9176 375.268 25.7231 375.371 25.5561 375.496C24.3127 376.426 18.7163 380.324 16.9492 376.527C14.9567 372.245 28.4201 364.497 23.6118 366.022C18.8036 367.548 9.79415 366.709 11.1117 361.999C12.4292 357.289 28.6183 351.346 20.4073 351.148C12.1963 350.951 7.78361 351.948 8.08195 348.071C8.38029 344.194 21.2533 341.091 11.5602 339.863C9.1407 339.556 7.49383 339.052 6.38467 338.468C4.86622 337.668 7.23828 336.294 8.95394 336.337C14.5486 336.477 27.2676 333.154 56.15 316.758C106.411 288.226 111.745 339.677 67.9562 356.031Z" stroke="#EFEFEF" stroke-opacity="0.15" stroke-width="1.81077"/>
<path d="M67.9562 422.031C24.528 438.251 38.4374 436.905 26.1145 441.199C25.9176 441.268 25.7231 441.371 25.5561 441.496C24.3127 442.426 18.7163 446.324 16.9492 442.527C14.9567 438.245 28.4201 430.497 23.6118 432.022C18.8036 433.548 9.79415 432.709 11.1117 427.999C12.4292 423.289 28.6183 417.346 20.4073 417.148C12.1963 416.951 7.78361 417.948 8.08195 414.071C8.38029 410.194 21.2533 407.091 11.5602 405.863C9.1407 405.556 7.49383 405.052 6.38467 404.468C4.86622 403.668 7.23828 402.294 8.95394 402.337C14.5486 402.477 27.2676 399.154 56.15 382.758C106.411 354.226 111.745 405.677 67.9562 422.031Z" stroke="#EFEFEF" stroke-opacity="0.15" stroke-width="1.81077"/>
<path d="M179.956 353.031C136.528 369.251 150.437 367.905 138.115 372.199C137.918 372.268 137.723 372.371 137.556 372.496C136.313 373.426 130.716 377.324 128.949 373.527C126.957 369.245 140.42 361.497 135.612 363.022C130.804 364.548 121.794 363.709 123.112 358.999C124.429 354.289 140.618 348.346 132.407 348.148C124.196 347.951 119.784 348.948 120.082 345.071C120.38 341.194 133.253 338.091 123.56 336.863C121.141 336.556 119.494 336.052 118.385 335.468C116.866 334.668 119.238 333.294 120.954 333.337C126.549 333.477 139.268 330.154 168.15 313.758C218.411 285.226 223.745 336.677 179.956 353.031Z" stroke="#EFEFEF" stroke-opacity="0.15" stroke-width="1.81077"/>
<path d="M182.956 419.031C139.528 435.251 153.437 433.905 141.115 438.199C140.918 438.268 140.723 438.371 140.556 438.496C139.313 439.426 133.716 443.324 131.949 439.527C129.957 435.245 143.42 427.497 138.612 429.022C133.804 430.548 124.794 429.709 126.112 424.999C127.429 420.289 143.618 414.346 135.407 414.148C127.196 413.951 122.784 414.948 123.082 411.071C123.38 407.194 136.253 404.091 126.56 402.863C124.141 402.556 122.494 402.052 121.385 401.468C119.866 400.668 122.238 399.294 123.954 399.337C129.549 399.477 142.268 396.154 171.15 379.758C221.411 351.226 226.745 402.677 182.956 419.031Z" stroke="#EFEFEF" stroke-opacity="0.15" stroke-width="1.81077"/>
<path d="M67.9562 207.031C24.528 223.251 38.4374 221.905 26.1145 226.199C25.9176 226.268 25.7231 226.371 25.5561 226.496C24.3127 227.426 18.7163 231.324 16.9492 227.527C14.9567 223.245 28.4201 215.497 23.6118 217.022C18.8036 218.548 9.79415 217.709 11.1117 212.999C12.4292 208.289 28.6183 202.346 20.4073 202.148C12.1963 201.951 7.78361 202.948 8.08195 199.071C8.38029 195.194 21.2533 192.091 11.5602 190.863C9.1407 190.556 7.49383 190.052 6.38467 189.468C4.86622 188.668 7.23828 187.294 8.95394 187.337C14.5486 187.477 27.2676 184.154 56.15 167.758C106.411 139.226 111.745 190.677 67.9562 207.031Z" stroke="#EFEFEF" stroke-opacity="0.15" stroke-width="1.81077"/>
<path d="M67.9562 273.031C24.528 289.251 38.4374 287.905 26.1145 292.199C25.9176 292.268 25.7231 292.371 25.5561 292.496C24.3127 293.426 18.7163 297.324 16.9492 293.527C14.9567 289.245 28.4201 281.497 23.6118 283.022C18.8036 284.548 9.79415 283.709 11.1117 278.999C12.4292 274.289 28.6183 268.346 20.4073 268.148C12.1963 267.951 7.78361 268.948 8.08195 265.071C8.38029 261.194 21.2533 258.091 11.5602 256.863C9.1407 256.556 7.49383 256.052 6.38467 255.468C4.86622 254.668 7.23828 253.294 8.95394 253.337C14.5486 253.477 27.2676 250.154 56.15 233.758C106.411 205.226 111.745 256.677 67.9562 273.031Z" stroke="#EFEFEF" stroke-opacity="0.15" stroke-width="1.81077"/>
<path d="M179.956 204.031C136.528 220.251 150.437 218.905 138.115 223.199C137.918 223.268 137.723 223.371 137.556 223.496C136.313 224.426 130.716 228.324 128.949 224.527C126.957 220.245 140.42 212.497 135.612 214.022C130.804 215.548 121.794 214.709 123.112 209.999C124.429 205.289 140.618 199.346 132.407 199.148C124.196 198.951 119.784 199.948 120.082 196.071C120.38 192.194 133.253 189.091 123.56 187.863C121.141 187.556 119.494 187.052 118.385 186.468C116.866 185.668 119.238 184.294 120.954 184.337C126.549 184.477 139.268 181.154 168.15 164.758C218.411 136.226 223.745 187.677 179.956 204.031Z" stroke="#EFEFEF" stroke-opacity="0.15" stroke-width="1.81077"/>
<path d="M182.956 270.031C139.528 286.251 153.437 284.905 141.115 289.199C140.918 289.268 140.723 289.371 140.556 289.496C139.313 290.426 133.716 294.324 131.949 290.527C129.957 286.245 143.42 278.497 138.612 280.022C133.804 281.548 124.794 280.709 126.112 275.999C127.429 271.289 143.618 265.346 135.407 265.148C127.196 264.951 122.784 265.948 123.082 262.071C123.38 258.194 136.253 255.091 126.56 253.863C124.141 253.556 122.494 253.052 121.385 252.468C119.866 251.668 122.238 250.294 123.954 250.337C129.549 250.477 142.268 247.154 171.15 230.758C221.411 202.226 226.745 253.677 182.956 270.031Z" stroke="#EFEFEF" stroke-opacity="0.15" stroke-width="1.81077"/>
<path d="M67.9562 504.031C24.528 520.251 38.4374 518.905 26.1145 523.199C25.9176 523.268 25.7231 523.371 25.5561 523.496C24.3127 524.426 18.7163 528.324 16.9492 524.527C14.9567 520.245 28.4201 512.497 23.6118 514.022C18.8036 515.548 9.79415 514.709 11.1117 509.999C12.4292 505.289 28.6183 499.346 20.4073 499.148C12.1963 498.951 7.78361 499.948 8.08195 496.071C8.38029 492.194 21.2533 489.091 11.5602 487.863C9.1407 487.556 7.49383 487.052 6.38467 486.468C4.86622 485.668 7.23828 484.294 8.95394 484.337C14.5486 484.477 27.2676 481.154 56.15 464.758C106.411 436.226 111.745 487.677 67.9562 504.031Z" stroke="#EFEFEF" stroke-opacity="0.15" stroke-width="1.81077"/>
<path d="M67.9562 570.031C24.528 586.251 38.4374 584.905 26.1145 589.199C25.9176 589.268 25.7231 589.371 25.5561 589.496C24.3127 590.426 18.7163 594.324 16.9492 590.527C14.9567 586.245 28.4201 578.497 23.6118 580.022C18.8036 581.548 9.79415 580.709 11.1117 575.999C12.4292 571.289 28.6183 565.346 20.4073 565.148C12.1963 564.951 7.78361 565.948 8.08195 562.071C8.38029 558.194 21.2533 555.091 11.5602 553.863C9.1407 553.556 7.49383 553.052 6.38467 552.468C4.86622 551.668 7.23828 550.294 8.95394 550.337C14.5486 550.477 27.2676 547.154 56.15 530.758C106.411 502.226 111.745 553.677 67.9562 570.031Z" stroke="#EFEFEF" stroke-opacity="0.15" stroke-width="1.81077"/>
<path d="M179.956 501.031C136.528 517.251 150.437 515.905 138.115 520.199C137.918 520.268 137.723 520.371 137.556 520.496C136.313 521.426 130.716 525.324 128.949 521.527C126.957 517.245 140.42 509.497 135.612 511.022C130.804 512.548 121.794 511.709 123.112 506.999C124.429 502.289 140.618 496.346 132.407 496.148C124.196 495.951 119.784 496.948 120.082 493.071C120.38 489.194 133.253 486.091 123.56 484.863C121.141 484.556 119.494 484.052 118.385 483.468C116.866 482.668 119.238 481.294 120.954 481.337C126.549 481.477 139.268 478.154 168.15 461.758C218.411 433.226 223.745 484.677 179.956 501.031Z" stroke="#EFEFEF" stroke-opacity="0.15" stroke-width="1.81077"/>
<path d="M182.956 567.031C139.528 583.251 153.437 581.905 141.115 586.199C140.918 586.268 140.723 586.371 140.556 586.496C139.313 587.426 133.716 591.324 131.949 587.527C129.957 583.245 143.42 575.497 138.612 577.022C133.804 578.548 124.794 577.709 126.112 572.999C127.429 568.289 143.618 562.346 135.407 562.148C127.196 561.951 122.784 562.948 123.082 559.071C123.38 555.194 136.253 552.091 126.56 550.863C124.141 550.556 122.494 550.052 121.385 549.468C119.866 548.668 122.238 547.294 123.954 547.337C129.549 547.477 142.268 544.154 171.15 527.758C221.411 499.226 226.745 550.677 182.956 567.031Z" stroke="#EFEFEF" stroke-opacity="0.15" stroke-width="1.81077"/>
<path d="M505.956 59.0308C462.528 75.2505 476.437 73.9046 464.115 78.1989C463.918 78.2675 463.723 78.371 463.556 78.496C462.313 79.4262 456.716 83.3239 454.949 79.5265C452.957 75.2448 466.42 67.497 461.612 69.0225C456.804 70.5479 447.794 69.7086 449.112 64.9988C450.429 60.289 466.618 54.3456 458.407 54.1484C450.196 53.9511 445.784 54.9483 446.082 51.0709C446.38 47.1935 459.253 44.091 449.56 42.8629C447.141 42.5564 445.494 42.0521 444.385 41.4679C442.866 40.6681 445.238 39.2943 446.954 39.3371C452.549 39.4769 465.268 36.1541 494.15 19.7582C544.411 -8.77403 549.745 42.6766 505.956 59.0308Z" stroke="#EFEFEF" stroke-opacity="0.15" stroke-width="1.81077"/>
<path d="M505.956 125.031C462.528 141.251 476.437 139.905 464.115 144.199C463.918 144.268 463.723 144.371 463.556 144.496C462.313 145.426 456.716 149.324 454.949 145.527C452.957 141.245 466.42 133.497 461.612 135.022C456.804 136.548 447.794 135.709 449.112 130.999C450.429 126.289 466.618 120.346 458.407 120.148C450.196 119.951 445.784 120.948 446.082 117.071C446.38 113.194 459.253 110.091 449.56 108.863C447.141 108.556 445.494 108.052 444.385 107.468C442.866 106.668 445.238 105.294 446.954 105.337C452.549 105.477 465.268 102.154 494.15 85.7582C544.411 57.226 549.745 108.677 505.956 125.031Z" stroke="#EFEFEF" stroke-opacity="0.15" stroke-width="1.81077"/>
<path d="M617.956 56.0308C574.528 72.2505 588.437 70.9046 576.115 75.1989C575.918 75.2675 575.723 75.371 575.556 75.496C574.313 76.4262 568.716 80.3239 566.949 76.5265C564.957 72.2448 578.42 64.497 573.612 66.0225C568.804 67.5479 559.794 66.7086 561.112 61.9988C562.429 57.289 578.618 51.3456 570.407 51.1484C562.196 50.9511 557.784 51.9483 558.082 48.0709C558.38 44.1935 571.253 41.091 561.56 39.8629C559.141 39.5564 557.494 39.0521 556.385 38.4679C554.866 37.6681 557.238 36.2943 558.954 36.3371C564.549 36.4769 577.268 33.1541 606.15 16.7582C656.411 -11.774 661.745 39.6766 617.956 56.0308Z" stroke="#EFEFEF" stroke-opacity="0.15" stroke-width="1.81077"/>
<path d="M620.956 122.031C577.528 138.251 591.437 136.905 579.115 141.199C578.918 141.268 578.723 141.371 578.556 141.496C577.313 142.426 571.716 146.324 569.949 142.527C567.957 138.245 581.42 130.497 576.612 132.022C571.804 133.548 562.794 132.709 564.112 127.999C565.429 123.289 581.618 117.346 573.407 117.148C565.196 116.951 560.784 117.948 561.082 114.071C561.38 110.194 574.253 107.091 564.56 105.863C562.141 105.556 560.494 105.052 559.385 104.468C557.866 103.668 560.238 102.294 561.954 102.337C567.549 102.477 580.268 99.1541 609.15 82.7582C659.411 54.226 664.745 105.677 620.956 122.031Z" stroke="#EFEFEF" stroke-opacity="0.15" stroke-width="1.81077"/>
<path d="M507.956 356.031C464.528 372.251 478.437 370.905 466.115 375.199C465.918 375.268 465.723 375.371 465.556 375.496C464.313 376.426 458.716 380.324 456.949 376.527C454.957 372.245 468.42 364.497 463.612 366.022C458.804 367.548 449.794 366.709 451.112 361.999C452.429 357.289 468.618 351.346 460.407 351.148C452.196 350.951 447.784 351.948 448.082 348.071C448.38 344.194 461.253 341.091 451.56 339.863C449.141 339.556 447.494 339.052 446.385 338.468C444.866 337.668 447.238 336.294 448.954 336.337C454.549 336.477 467.268 333.154 496.15 316.758C546.411 288.226 551.745 339.677 507.956 356.031Z" stroke="#EFEFEF" stroke-opacity="0.15" stroke-width="1.81077"/>
<path d="M507.956 422.031C464.528 438.251 478.437 436.905 466.115 441.199C465.918 441.268 465.723 441.371 465.556 441.496C464.313 442.426 458.716 446.324 456.949 442.527C454.957 438.245 468.42 430.497 463.612 432.022C458.804 433.548 449.794 432.709 451.112 427.999C452.429 423.289 468.618 417.346 460.407 417.148C452.196 416.951 447.784 417.948 448.082 414.071C448.38 410.194 461.253 407.091 451.56 405.863C449.141 405.556 447.494 405.052 446.385 404.468C444.866 403.668 447.238 402.294 448.954 402.337C454.549 402.477 467.268 399.154 496.15 382.758C546.411 354.226 551.745 405.677 507.956 422.031Z" stroke="#EFEFEF" stroke-opacity="0.15" stroke-width="1.81077"/>
<path d="M619.956 353.031C576.528 369.251 590.437 367.905 578.115 372.199C577.918 372.268 577.723 372.371 577.556 372.496C576.313 373.426 570.716 377.324 568.949 373.527C566.957 369.245 580.42 361.497 575.612 363.022C570.804 364.548 561.794 363.709 563.112 358.999C564.429 354.289 580.618 348.346 572.407 348.148C564.196 347.951 559.784 348.948 560.082 345.071C560.38 341.194 573.253 338.091 563.56 336.863C561.141 336.556 559.494 336.052 558.385 335.468C556.866 334.668 559.238 333.294 560.954 333.337C566.549 333.477 579.268 330.154 608.15 313.758C658.411 285.226 663.745 336.677 619.956 353.031Z" stroke="#EFEFEF" stroke-opacity="0.15" stroke-width="1.81077"/>
<path d="M622.956 419.031C579.528 435.251 593.437 433.905 581.115 438.199C580.918 438.268 580.723 438.371 580.556 438.496C579.313 439.426 573.716 443.324 571.949 439.527C569.957 435.245 583.42 427.497 578.612 429.022C573.804 430.548 564.794 429.709 566.112 424.999C567.429 420.289 583.618 414.346 575.407 414.148C567.196 413.951 562.784 414.948 563.082 411.071C563.38 407.194 576.253 404.091 566.56 402.863C564.141 402.556 562.494 402.052 561.385 401.468C559.866 400.668 562.238 399.294 563.954 399.337C569.549 399.477 582.268 396.154 611.15 379.758C661.411 351.226 666.745 402.677 622.956 419.031Z" stroke="#EFEFEF" stroke-opacity="0.15" stroke-width="1.81077"/>
<path d="M509.956 207.031C466.528 223.251 480.437 221.905 468.115 226.199C467.918 226.268 467.723 226.371 467.556 226.496C466.313 227.426 460.716 231.324 458.949 227.527C456.957 223.245 470.42 215.497 465.612 217.022C460.804 218.548 451.794 217.709 453.112 212.999C454.429 208.289 470.618 202.346 462.407 202.148C454.196 201.951 449.784 202.948 450.082 199.071C450.38 195.194 463.253 192.091 453.56 190.863C451.141 190.556 449.494 190.052 448.385 189.468C446.866 188.668 449.238 187.294 450.954 187.337C456.549 187.477 469.268 184.154 498.15 167.758C548.411 139.226 553.745 190.677 509.956 207.031Z" stroke="#EFEFEF" stroke-opacity="0.15" stroke-width="1.81077"/>
<path d="M509.956 273.031C466.528 289.251 480.437 287.905 468.115 292.199C467.918 292.268 467.723 292.371 467.556 292.496C466.313 293.426 460.716 297.324 458.949 293.527C456.957 289.245 470.42 281.497 465.612 283.022C460.804 284.548 451.794 283.709 453.112 278.999C454.429 274.289 470.618 268.346 462.407 268.148C454.196 267.951 449.784 268.948 450.082 265.071C450.38 261.194 463.253 258.091 453.56 256.863C451.141 256.556 449.494 256.052 448.385 255.468C446.866 254.668 449.238 253.294 450.954 253.337C456.549 253.477 469.268 250.154 498.15 233.758C548.411 205.226 553.745 256.677 509.956 273.031Z" stroke="#EFEFEF" stroke-opacity="0.15" stroke-width="1.81077"/>
<path d="M621.956 204.031C578.528 220.251 592.437 218.905 580.115 223.199C579.918 223.268 579.723 223.371 579.556 223.496C578.313 224.426 572.716 228.324 570.949 224.527C568.957 220.245 582.42 212.497 577.612 214.022C572.804 215.548 563.794 214.709 565.112 209.999C566.429 205.289 582.618 199.346 574.407 199.148C566.196 198.951 561.784 199.948 562.082 196.071C562.38 192.194 575.253 189.091 565.56 187.863C563.141 187.556 561.494 187.052 560.385 186.468C558.866 185.668 561.238 184.294 562.954 184.337C568.549 184.477 581.268 181.154 610.15 164.758C660.411 136.226 665.745 187.677 621.956 204.031Z" stroke="#EFEFEF" stroke-opacity="0.15" stroke-width="1.81077"/>
<path d="M624.956 270.031C581.528 286.251 595.437 284.905 583.115 289.199C582.918 289.268 582.723 289.371 582.556 289.496C581.313 290.426 575.716 294.324 573.949 290.527C571.957 286.245 585.42 278.497 580.612 280.022C575.804 281.548 566.794 280.709 568.112 275.999C569.429 271.289 585.618 265.346 577.407 265.148C569.196 264.951 564.784 265.948 565.082 262.071C565.38 258.194 578.253 255.091 568.56 253.863C566.141 253.556 564.494 253.052 563.385 252.468C561.866 251.668 564.238 250.294 565.954 250.337C571.549 250.477 584.268 247.154 613.15 230.758C663.411 202.226 668.745 253.677 624.956 270.031Z" stroke="#EFEFEF" stroke-opacity="0.15" stroke-width="1.81077"/>
<path d="M511.956 504.031C468.528 520.251 482.437 518.905 470.115 523.199C469.918 523.268 469.723 523.371 469.556 523.496C468.313 524.426 462.716 528.324 460.949 524.527C458.957 520.245 472.42 512.497 467.612 514.022C462.804 515.548 453.794 514.709 455.112 509.999C456.429 505.289 472.618 499.346 464.407 499.148C456.196 498.951 451.784 499.948 452.082 496.071C452.38 492.194 465.253 489.091 455.56 487.863C453.141 487.556 451.494 487.052 450.385 486.468C448.866 485.668 451.238 484.294 452.954 484.337C458.549 484.477 471.268 481.154 500.15 464.758C550.411 436.226 555.745 487.677 511.956 504.031Z" stroke="#EFEFEF" stroke-opacity="0.15" stroke-width="1.81077"/>
<path d="M511.956 570.031C468.528 586.251 482.437 584.905 470.115 589.199C469.918 589.268 469.723 589.371 469.556 589.496C468.313 590.426 462.716 594.324 460.949 590.527C458.957 586.245 472.42 578.497 467.612 580.022C462.804 581.548 453.794 580.709 455.112 575.999C456.429 571.289 472.618 565.346 464.407 565.148C456.196 564.951 451.784 565.948 452.082 562.071C452.38 558.194 465.253 555.091 455.56 553.863C453.141 553.556 451.494 553.052 450.385 552.468C448.866 551.668 451.238 550.294 452.954 550.337C458.549 550.477 471.268 547.154 500.15 530.758C550.411 502.226 555.745 553.677 511.956 570.031Z" stroke="#EFEFEF" stroke-opacity="0.15" stroke-width="1.81077"/>
<path d="M623.956 501.031C580.528 517.251 594.437 515.905 582.115 520.199C581.918 520.268 581.723 520.371 581.556 520.496C580.313 521.426 574.716 525.324 572.949 521.527C570.957 517.245 584.42 509.497 579.612 511.022C574.804 512.548 565.794 511.709 567.112 506.999C568.429 502.289 584.618 496.346 576.407 496.148C568.196 495.951 563.784 496.948 564.082 493.071C564.38 489.194 577.253 486.091 567.56 484.863C565.141 484.556 563.494 484.052 562.385 483.468C560.866 482.668 563.238 481.294 564.954 481.337C570.549 481.477 583.268 478.154 612.15 461.758C662.411 433.226 667.745 484.677 623.956 501.031Z" stroke="#EFEFEF" stroke-opacity="0.15" stroke-width="1.81077"/>
<path d="M626.956 567.031C583.528 583.251 597.437 581.905 585.115 586.199C584.918 586.268 584.723 586.371 584.556 586.496C583.313 587.426 577.716 591.324 575.949 587.527C573.957 583.245 587.42 575.497 582.612 577.022C577.804 578.548 568.794 577.709 570.112 572.999C571.429 568.289 587.618 562.346 579.407 562.148C571.196 561.951 566.784 562.948 567.082 559.071C567.38 555.194 580.253 552.091 570.56 550.863C568.141 550.556 566.494 550.052 565.385 549.468C563.866 548.668 566.238 547.294 567.954 547.337C573.549 547.477 586.268 544.154 615.15 527.758C665.411 499.226 670.745 550.677 626.956 567.031Z" stroke="#EFEFEF" stroke-opacity="0.15" stroke-width="1.81077"/>
<path d="M289.956 59.0308C246.528 75.2505 260.437 73.9046 248.115 78.1989C247.918 78.2675 247.723 78.371 247.556 78.496C246.313 79.4262 240.716 83.3239 238.949 79.5265C236.957 75.2448 250.42 67.497 245.612 69.0225C240.804 70.5479 231.794 69.7086 233.112 64.9988C234.429 60.289 250.618 54.3456 242.407 54.1484C234.196 53.9511 229.784 54.9483 230.082 51.0709C230.38 47.1935 243.253 44.091 233.56 42.8629C231.141 42.5564 229.494 42.0521 228.385 41.4679C226.866 40.6681 229.238 39.2943 230.954 39.3371C236.549 39.4769 249.268 36.1541 278.15 19.7582C328.411 -8.77403 333.745 42.6766 289.956 59.0308Z" stroke="#EFEFEF" stroke-opacity="0.15" stroke-width="1.81077"/>
<path d="M289.956 125.031C246.528 141.251 260.437 139.905 248.115 144.199C247.918 144.268 247.723 144.371 247.556 144.496C246.313 145.426 240.716 149.324 238.949 145.527C236.957 141.245 250.42 133.497 245.612 135.022C240.804 136.548 231.794 135.709 233.112 130.999C234.429 126.289 250.618 120.346 242.407 120.148C234.196 119.951 229.784 120.948 230.082 117.071C230.38 113.194 243.253 110.091 233.56 108.863C231.141 108.556 229.494 108.052 228.385 107.468C226.866 106.668 229.238 105.294 230.954 105.337C236.549 105.477 249.268 102.154 278.15 85.7582C328.411 57.226 333.745 108.677 289.956 125.031Z" stroke="#EFEFEF" stroke-opacity="0.15" stroke-width="1.81077"/>
<path d="M401.956 56.0308C358.528 72.2505 372.437 70.9046 360.115 75.1989C359.918 75.2675 359.723 75.371 359.556 75.496C358.313 76.4262 352.716 80.3239 350.949 76.5265C348.957 72.2448 362.42 64.497 357.612 66.0225C352.804 67.5479 343.794 66.7086 345.112 61.9988C346.429 57.289 362.618 51.3456 354.407 51.1484C346.196 50.9511 341.784 51.9483 342.082 48.0709C342.38 44.1935 355.253 41.091 345.56 39.8629C343.141 39.5564 341.494 39.0521 340.385 38.4679C338.866 37.6681 341.238 36.2943 342.954 36.3371C348.549 36.4769 361.268 33.1541 390.15 16.7582C440.411 -11.774 445.745 39.6766 401.956 56.0308Z" stroke="#EFEFEF" stroke-opacity="0.15" stroke-width="1.81077"/>
<path d="M404.956 122.031C361.528 138.251 375.437 136.905 363.115 141.199C362.918 141.268 362.723 141.371 362.556 141.496C361.313 142.426 355.716 146.324 353.949 142.527C351.957 138.245 365.42 130.497 360.612 132.022C355.804 133.548 346.794 132.709 348.112 127.999C349.429 123.289 365.618 117.346 357.407 117.148C349.196 116.951 344.784 117.948 345.082 114.071C345.38 110.194 358.253 107.091 348.56 105.863C346.141 105.556 344.494 105.052 343.385 104.468C341.866 103.668 344.238 102.294 345.954 102.337C351.549 102.477 364.268 99.1541 393.15 82.7582C443.411 54.226 448.745 105.677 404.956 122.031Z" stroke="#EFEFEF" stroke-opacity="0.15" stroke-width="1.81077"/>
<path d="M289.956 356.031C246.528 372.251 260.437 370.905 248.115 375.199C247.918 375.268 247.723 375.371 247.556 375.496C246.313 376.426 240.716 380.324 238.949 376.527C236.957 372.245 250.42 364.497 245.612 366.022C240.804 367.548 231.794 366.709 233.112 361.999C234.429 357.289 250.618 351.346 242.407 351.148C234.196 350.951 229.784 351.948 230.082 348.071C230.38 344.194 243.253 341.091 233.56 339.863C231.141 339.556 229.494 339.052 228.385 338.468C226.866 337.668 229.238 336.294 230.954 336.337C236.549 336.477 249.268 333.154 278.15 316.758C328.411 288.226 333.745 339.677 289.956 356.031Z" stroke="#EFEFEF" stroke-opacity="0.15" stroke-width="1.81077"/>
<path d="M289.956 422.031C246.528 438.251 260.437 436.905 248.115 441.199C247.918 441.268 247.723 441.371 247.556 441.496C246.313 442.426 240.716 446.324 238.949 442.527C236.957 438.245 250.42 430.497 245.612 432.022C240.804 433.548 231.794 432.709 233.112 427.999C234.429 423.289 250.618 417.346 242.407 417.148C234.196 416.951 229.784 417.948 230.082 414.071C230.38 410.194 243.253 407.091 233.56 405.863C231.141 405.556 229.494 405.052 228.385 404.468C226.866 403.668 229.238 402.294 230.954 402.337C236.549 402.477 249.268 399.154 278.15 382.758C328.411 354.226 333.745 405.677 289.956 422.031Z" stroke="#EFEFEF" stroke-opacity="0.15" stroke-width="1.81077"/>
<path d="M401.956 353.031C358.528 369.251 372.437 367.905 360.115 372.199C359.918 372.268 359.723 372.371 359.556 372.496C358.313 373.426 352.716 377.324 350.949 373.527C348.957 369.245 362.42 361.497 357.612 363.022C352.804 364.548 343.794 363.709 345.112 358.999C346.429 354.289 362.618 348.346 354.407 348.148C346.196 347.951 341.784 348.948 342.082 345.071C342.38 341.194 355.253 338.091 345.56 336.863C343.141 336.556 341.494 336.052 340.385 335.468C338.866 334.668 341.238 333.294 342.954 333.337C348.549 333.477 361.268 330.154 390.15 313.758C440.411 285.226 445.745 336.677 401.956 353.031Z" stroke="#EFEFEF" stroke-opacity="0.15" stroke-width="1.81077"/>
<path d="M404.956 419.031C361.528 435.251 375.437 433.905 363.115 438.199C362.918 438.268 362.723 438.371 362.556 438.496C361.313 439.426 355.716 443.324 353.949 439.527C351.957 435.245 365.42 427.497 360.612 429.022C355.804 430.548 346.794 429.709 348.112 424.999C349.429 420.289 365.618 414.346 357.407 414.148C349.196 413.951 344.784 414.948 345.082 411.071C345.38 407.194 358.253 404.091 348.56 402.863C346.141 402.556 344.494 402.052 343.385 401.468C341.866 400.668 344.238 399.294 345.954 399.337C351.549 399.477 364.268 396.154 393.15 379.758C443.411 351.226 448.745 402.677 404.956 419.031Z" stroke="#EFEFEF" stroke-opacity="0.15" stroke-width="1.81077"/>
<path d="M289.956 207.031C246.528 223.251 260.437 221.905 248.115 226.199C247.918 226.268 247.723 226.371 247.556 226.496C246.313 227.426 240.716 231.324 238.949 227.527C236.957 223.245 250.42 215.497 245.612 217.022C240.804 218.548 231.794 217.709 233.112 212.999C234.429 208.289 250.618 202.346 242.407 202.148C234.196 201.951 229.784 202.948 230.082 199.071C230.38 195.194 243.253 192.091 233.56 190.863C231.141 190.556 229.494 190.052 228.385 189.468C226.866 188.668 229.238 187.294 230.954 187.337C236.549 187.477 249.268 184.154 278.15 167.758C328.411 139.226 333.745 190.677 289.956 207.031Z" stroke="#EFEFEF" stroke-opacity="0.15" stroke-width="1.81077"/>
<path d="M289.956 273.031C246.528 289.251 260.437 287.905 248.115 292.199C247.918 292.268 247.723 292.371 247.556 292.496C246.313 293.426 240.716 297.324 238.949 293.527C236.957 289.245 250.42 281.497 245.612 283.022C240.804 284.548 231.794 283.709 233.112 278.999C234.429 274.289 250.618 268.346 242.407 268.148C234.196 267.951 229.784 268.948 230.082 265.071C230.38 261.194 243.253 258.091 233.56 256.863C231.141 256.556 229.494 256.052 228.385 255.468C226.866 254.668 229.238 253.294 230.954 253.337C236.549 253.477 249.268 250.154 278.15 233.758C328.411 205.226 333.745 256.677 289.956 273.031Z" stroke="#EFEFEF" stroke-opacity="0.15" stroke-width="1.81077"/>
<path d="M401.956 204.031C358.528 220.251 372.437 218.905 360.115 223.199C359.918 223.268 359.723 223.371 359.556 223.496C358.313 224.426 352.716 228.324 350.949 224.527C348.957 220.245 362.42 212.497 357.612 214.022C352.804 215.548 343.794 214.709 345.112 209.999C346.429 205.289 362.618 199.346 354.407 199.148C346.196 198.951 341.784 199.948 342.082 196.071C342.38 192.194 355.253 189.091 345.56 187.863C343.141 187.556 341.494 187.052 340.385 186.468C338.866 185.668 341.238 184.294 342.954 184.337C348.549 184.477 361.268 181.154 390.15 164.758C440.411 136.226 445.745 187.677 401.956 204.031Z" stroke="#EFEFEF" stroke-opacity="0.15" stroke-width="1.81077"/>
<path d="M404.956 270.031C361.528 286.251 375.437 284.905 363.115 289.199C362.918 289.268 362.723 289.371 362.556 289.496C361.313 290.426 355.716 294.324 353.949 290.527C351.957 286.245 365.42 278.497 360.612 280.022C355.804 281.548 346.794 280.709 348.112 275.999C349.429 271.289 365.618 265.346 357.407 265.148C349.196 264.951 344.784 265.948 345.082 262.071C345.38 258.194 358.253 255.091 348.56 253.863C346.141 253.556 344.494 253.052 343.385 252.468C341.866 251.668 344.238 250.294 345.954 250.337C351.549 250.477 364.268 247.154 393.15 230.758C443.411 202.226 448.745 253.677 404.956 270.031Z" stroke="#EFEFEF" stroke-opacity="0.15" stroke-width="1.81077"/>
<path d="M289.956 504.031C246.528 520.251 260.437 518.905 248.115 523.199C247.918 523.268 247.723 523.371 247.556 523.496C246.313 524.426 240.716 528.324 238.949 524.527C236.957 520.245 250.42 512.497 245.612 514.022C240.804 515.548 231.794 514.709 233.112 509.999C234.429 505.289 250.618 499.346 242.407 499.148C234.196 498.951 229.784 499.948 230.082 496.071C230.38 492.194 243.253 489.091 233.56 487.863C231.141 487.556 229.494 487.052 228.385 486.468C226.866 485.668 229.238 484.294 230.954 484.337C236.549 484.477 249.268 481.154 278.15 464.758C328.411 436.226 333.745 487.677 289.956 504.031Z" stroke="#EFEFEF" stroke-opacity="0.15" stroke-width="1.81077"/>
<path d="M289.956 570.031C246.528 586.251 260.437 584.905 248.115 589.199C247.918 589.268 247.723 589.371 247.556 589.496C246.313 590.426 240.716 594.324 238.949 590.527C236.957 586.245 250.42 578.497 245.612 580.022C240.804 581.548 231.794 580.709 233.112 575.999C234.429 571.289 250.618 565.346 242.407 565.148C234.196 564.951 229.784 565.948 230.082 562.071C230.38 558.194 243.253 555.091 233.56 553.863C231.141 553.556 229.494 553.052 228.385 552.468C226.866 551.668 229.238 550.294 230.954 550.337C236.549 550.477 249.268 547.154 278.15 530.758C328.411 502.226 333.745 553.677 289.956 570.031Z" stroke="#EFEFEF" stroke-opacity="0.15" stroke-width="1.81077"/>
<path d="M401.956 501.031C358.528 517.251 372.437 515.905 360.115 520.199C359.918 520.268 359.723 520.371 359.556 520.496C358.313 521.426 352.716 525.324 350.949 521.527C348.957 517.245 362.42 509.497 357.612 511.022C352.804 512.548 343.794 511.709 345.112 506.999C346.429 502.289 362.618 496.346 354.407 496.148C346.196 495.951 341.784 496.948 342.082 493.071C342.38 489.194 355.253 486.091 345.56 484.863C343.141 484.556 341.494 484.052 340.385 483.468C338.866 482.668 341.238 481.294 342.954 481.337C348.549 481.477 361.268 478.154 390.15 461.758C440.411 433.226 445.745 484.677 401.956 501.031Z" stroke="#EFEFEF" stroke-opacity="0.15" stroke-width="1.81077"/>
<path d="M404.956 567.031C361.528 583.251 375.437 581.905 363.115 586.199C362.918 586.268 362.723 586.371 362.556 586.496C361.313 587.426 355.716 591.324 353.949 587.527C351.957 583.245 365.42 575.497 360.612 577.022C355.804 578.548 346.794 577.709 348.112 572.999C349.429 568.289 365.618 562.346 357.407 562.148C349.196 561.951 344.784 562.948 345.082 559.071C345.38 555.194 358.253 552.091 348.56 550.863C346.141 550.556 344.494 550.052 343.385 549.468C341.866 548.668 344.238 547.294 345.954 547.337C351.549 547.477 364.268 544.154 393.15 527.758C443.411 499.226 448.745 550.677 404.956 567.031Z" stroke="#EFEFEF" stroke-opacity="0.15" stroke-width="1.81077"/>
<path d="M733.956 59.0308C690.528 75.2505 704.437 73.9046 692.115 78.1989C691.918 78.2675 691.723 78.371 691.556 78.496C690.313 79.4262 684.716 83.3239 682.949 79.5265C680.957 75.2448 694.42 67.497 689.612 69.0225C684.804 70.5479 675.794 69.7086 677.112 64.9988C678.429 60.289 694.618 54.3456 686.407 54.1484C678.196 53.9511 673.784 54.9483 674.082 51.0709C674.38 47.1935 687.253 44.091 677.56 42.8629C675.141 42.5564 673.494 42.0521 672.385 41.4679C670.866 40.6681 673.238 39.2943 674.954 39.3371C680.549 39.4769 693.268 36.1541 722.15 19.7582C772.411 -8.77403 777.745 42.6766 733.956 59.0308Z" stroke="#EFEFEF" stroke-opacity="0.15" stroke-width="1.81077"/>
<path d="M733.956 125.031C690.528 141.251 704.437 139.905 692.115 144.199C691.918 144.268 691.723 144.371 691.556 144.496C690.313 145.426 684.716 149.324 682.949 145.527C680.957 141.245 694.42 133.497 689.612 135.022C684.804 136.548 675.794 135.709 677.112 130.999C678.429 126.289 694.618 120.346 686.407 120.148C678.196 119.951 673.784 120.948 674.082 117.071C674.38 113.194 687.253 110.091 677.56 108.863C675.141 108.556 673.494 108.052 672.385 107.468C670.866 106.668 673.238 105.294 674.954 105.337C680.549 105.477 693.268 102.154 722.15 85.7582C772.411 57.226 777.745 108.677 733.956 125.031Z" stroke="#EFEFEF" stroke-opacity="0.15" stroke-width="1.81077"/>
<path d="M845.956 56.0308C802.528 72.2505 816.437 70.9046 804.115 75.1989C803.918 75.2675 803.723 75.371 803.556 75.496C802.313 76.4262 796.716 80.3239 794.949 76.5265C792.957 72.2448 806.42 64.497 801.612 66.0225C796.804 67.5479 787.794 66.7086 789.112 61.9988C790.429 57.289 806.618 51.3456 798.407 51.1484C790.196 50.9511 785.784 51.9483 786.082 48.0709C786.38 44.1935 799.253 41.091 789.56 39.8629C787.141 39.5564 785.494 39.0521 784.385 38.4679C782.866 37.6681 785.238 36.2943 786.954 36.3371C792.549 36.4769 805.268 33.1541 834.15 16.7582C884.411 -11.774 889.745 39.6766 845.956 56.0308Z" stroke="#EFEFEF" stroke-opacity="0.15" stroke-width="1.81077"/>
<path d="M848.956 122.031C805.528 138.251 819.437 136.905 807.115 141.199C806.918 141.268 806.723 141.371 806.556 141.496C805.313 142.426 799.716 146.324 797.949 142.527C795.957 138.245 809.42 130.497 804.612 132.022C799.804 133.548 790.794 132.709 792.112 127.999C793.429 123.289 809.618 117.346 801.407 117.148C793.196 116.951 788.784 117.948 789.082 114.071C789.38 110.194 802.253 107.091 792.56 105.863C790.141 105.556 788.494 105.052 787.385 104.468C785.866 103.668 788.238 102.294 789.954 102.337C795.549 102.477 808.268 99.1541 837.15 82.7582C887.411 54.226 892.745 105.677 848.956 122.031Z" stroke="#EFEFEF" stroke-opacity="0.15" stroke-width="1.81077"/>
<path d="M733.956 652.031C690.528 668.251 704.437 666.905 692.115 671.199C691.918 671.268 691.723 671.371 691.556 671.496C690.313 672.426 684.716 676.324 682.949 672.527C680.957 668.245 694.42 660.497 689.612 662.022C684.804 663.548 675.794 662.709 677.112 657.999C678.429 653.289 694.618 647.346 686.407 647.148C678.196 646.951 673.784 647.948 674.082 644.071C674.38 640.194 687.253 637.091 677.56 635.863C675.141 635.556 673.494 635.052 672.385 634.468C670.866 633.668 673.238 632.294 674.954 632.337C680.549 632.477 693.268 629.154 722.15 612.758C772.411 584.226 777.745 635.677 733.956 652.031Z" stroke="#EFEFEF" stroke-opacity="0.15" stroke-width="1.81077"/>
<path d="M733.956 718.031C690.528 734.251 704.437 732.905 692.115 737.199C691.918 737.268 691.723 737.371 691.556 737.496C690.313 738.426 684.716 742.324 682.949 738.527C680.957 734.245 694.42 726.497 689.612 728.022C684.804 729.548 675.794 728.709 677.112 723.999C678.429 719.289 694.618 713.346 686.407 713.148C678.196 712.951 673.784 713.948 674.082 710.071C674.38 706.194 687.253 703.091 677.56 701.863C675.141 701.556 673.494 701.052 672.385 700.468C670.866 699.668 673.238 698.294 674.954 698.337C680.549 698.477 693.268 695.154 722.15 678.758C772.411 650.226 777.745 701.677 733.956 718.031Z" stroke="#EFEFEF" stroke-opacity="0.15" stroke-width="1.81077"/>
<path d="M845.956 649.031C802.528 665.251 816.437 663.905 804.115 668.199C803.918 668.268 803.723 668.371 803.556 668.496C802.313 669.426 796.716 673.324 794.949 669.527C792.957 665.245 806.42 657.497 801.612 659.022C796.804 660.548 787.794 659.709 789.112 654.999C790.429 650.289 806.618 644.346 798.407 644.148C790.196 643.951 785.784 644.948 786.082 641.071C786.38 637.194 799.253 634.091 789.56 632.863C787.141 632.556 785.494 632.052 784.385 631.468C782.866 630.668 785.238 629.294 786.954 629.337C792.549 629.477 805.268 626.154 834.15 609.758C884.411 581.226 889.745 632.677 845.956 649.031Z" stroke="#EFEFEF" stroke-opacity="0.15" stroke-width="1.81077"/>
<path d="M848.956 715.031C805.528 731.251 819.437 729.905 807.115 734.199C806.918 734.268 806.723 734.371 806.556 734.496C805.313 735.426 799.716 739.324 797.949 735.527C795.957 731.245 809.42 723.497 804.612 725.022C799.804 726.548 790.794 725.709 792.112 720.999C793.429 716.289 809.618 710.346 801.407 710.148C793.196 709.951 788.784 710.948 789.082 707.071C789.38 703.194 802.253 700.091 792.56 698.863C790.141 698.556 788.494 698.052 787.385 697.468C785.866 696.668 788.238 695.294 789.954 695.337C795.549 695.477 808.268 692.154 837.15 675.758C887.411 647.226 892.745 698.677 848.956 715.031Z" stroke="#EFEFEF" stroke-opacity="0.15" stroke-width="1.81077"/>
<path d="M955.956 652.031C912.528 668.251 926.437 666.905 914.115 671.199C913.918 671.268 913.723 671.371 913.556 671.496C912.313 672.426 906.716 676.324 904.949 672.527C902.957 668.245 916.42 660.497 911.612 662.022C906.804 663.548 897.794 662.709 899.112 657.999C900.429 653.289 916.618 647.346 908.407 647.148C900.196 646.951 895.784 647.948 896.082 644.071C896.38 640.194 909.253 637.091 899.56 635.863C897.141 635.556 895.494 635.052 894.385 634.468C892.866 633.668 895.238 632.294 896.954 632.337C902.549 632.477 915.268 629.154 944.15 612.758C994.411 584.226 999.745 635.677 955.956 652.031Z" stroke="#EFEFEF" stroke-opacity="0.15" stroke-width="1.81077"/>
<path d="M955.956 718.031C912.528 734.251 926.437 732.905 914.115 737.199C913.918 737.268 913.723 737.371 913.556 737.496C912.313 738.426 906.716 742.324 904.949 738.527C902.957 734.245 916.42 726.497 911.612 728.022C906.804 729.548 897.794 728.709 899.112 723.999C900.429 719.289 916.618 713.346 908.407 713.148C900.196 712.951 895.784 713.948 896.082 710.071C896.38 706.194 909.253 703.091 899.56 701.863C897.141 701.556 895.494 701.052 894.385 700.468C892.866 699.668 895.238 698.294 896.954 698.337C902.549 698.477 915.268 695.154 944.15 678.758C994.411 650.226 999.745 701.677 955.956 718.031Z" stroke="#EFEFEF" stroke-opacity="0.15" stroke-width="1.81077"/>
<path d="M1067.96 649.031C1024.53 665.251 1038.44 663.905 1026.11 668.199C1025.92 668.268 1025.72 668.371 1025.56 668.496C1024.31 669.426 1018.72 673.324 1016.95 669.527C1014.96 665.245 1028.42 657.497 1023.61 659.022C1018.8 660.548 1009.79 659.709 1011.11 654.999C1012.43 650.289 1028.62 644.346 1020.41 644.148C1012.2 643.951 1007.78 644.948 1008.08 641.071C1008.38 637.194 1021.25 634.091 1011.56 632.863C1009.14 632.556 1007.49 632.052 1006.38 631.468C1004.87 630.668 1007.24 629.294 1008.95 629.337C1014.55 629.477 1027.27 626.154 1056.15 609.758C1106.41 581.226 1111.74 632.677 1067.96 649.031Z" stroke="#EFEFEF" stroke-opacity="0.15" stroke-width="1.81077"/>
<path d="M1070.96 715.031C1027.53 731.251 1041.44 729.905 1029.11 734.199C1028.92 734.268 1028.72 734.371 1028.56 734.496C1027.31 735.426 1021.72 739.324 1019.95 735.527C1017.96 731.245 1031.42 723.497 1026.61 725.022C1021.8 726.548 1012.79 725.709 1014.11 720.999C1015.43 716.289 1031.62 710.346 1023.41 710.148C1015.2 709.951 1010.78 710.948 1011.08 707.071C1011.38 703.194 1024.25 700.091 1014.56 698.863C1012.14 698.556 1010.49 698.052 1009.38 697.468C1007.87 696.668 1010.24 695.294 1011.95 695.337C1017.55 695.477 1030.27 692.154 1059.15 675.758C1109.41 647.226 1114.74 698.677 1070.96 715.031Z" stroke="#EFEFEF" stroke-opacity="0.15" stroke-width="1.81077"/>
<path d="M1177.96 652.031C1134.53 668.251 1148.44 666.905 1136.11 671.199C1135.92 671.268 1135.72 671.371 1135.56 671.496C1134.31 672.426 1128.72 676.324 1126.95 672.527C1124.96 668.245 1138.42 660.497 1133.61 662.022C1128.8 663.548 1119.79 662.709 1121.11 657.999C1122.43 653.289 1138.62 647.346 1130.41 647.148C1122.2 646.951 1117.78 647.948 1118.08 644.071C1118.38 640.194 1131.25 637.091 1121.56 635.863C1119.14 635.556 1117.49 635.052 1116.38 634.468C1114.87 633.668 1117.24 632.294 1118.95 632.337C1124.55 632.477 1137.27 629.154 1166.15 612.758C1216.41 584.226 1221.74 635.677 1177.96 652.031Z" stroke="#EFEFEF" stroke-opacity="0.15" stroke-width="1.81077"/>
<path d="M1177.96 718.031C1134.53 734.251 1148.44 732.905 1136.11 737.199C1135.92 737.268 1135.72 737.371 1135.56 737.496C1134.31 738.426 1128.72 742.324 1126.95 738.527C1124.96 734.245 1138.42 726.497 1133.61 728.022C1128.8 729.548 1119.79 728.709 1121.11 723.999C1122.43 719.289 1138.62 713.346 1130.41 713.148C1122.2 712.951 1117.78 713.948 1118.08 710.071C1118.38 706.194 1131.25 703.091 1121.56 701.863C1119.14 701.556 1117.49 701.052 1116.38 700.468C1114.87 699.668 1117.24 698.294 1118.95 698.337C1124.55 698.477 1137.27 695.154 1166.15 678.758C1216.41 650.226 1221.74 701.677 1177.96 718.031Z" stroke="#EFEFEF" stroke-opacity="0.15" stroke-width="1.81077"/>
<path d="M1289.96 649.031C1246.53 665.251 1260.44 663.905 1248.11 668.199C1247.92 668.268 1247.72 668.371 1247.56 668.496C1246.31 669.426 1240.72 673.324 1238.95 669.527C1236.96 665.245 1250.42 657.497 1245.61 659.022C1240.8 660.548 1231.79 659.709 1233.11 654.999C1234.43 650.289 1250.62 644.346 1242.41 644.148C1234.2 643.951 1229.78 644.948 1230.08 641.071C1230.38 637.194 1243.25 634.091 1233.56 632.863C1231.14 632.556 1229.49 632.052 1228.38 631.468C1226.87 630.668 1229.24 629.294 1230.95 629.337C1236.55 629.477 1249.27 626.154 1278.15 609.758C1328.41 581.226 1333.74 632.677 1289.96 649.031Z" stroke="#EFEFEF" stroke-opacity="0.15" stroke-width="1.81077"/>
<path d="M1292.96 715.031C1249.53 731.251 1263.44 729.905 1251.11 734.199C1250.92 734.268 1250.72 734.371 1250.56 734.496C1249.31 735.426 1243.72 739.324 1241.95 735.527C1239.96 731.245 1253.42 723.497 1248.61 725.022C1243.8 726.548 1234.79 725.709 1236.11 720.999C1237.43 716.289 1253.62 710.346 1245.41 710.148C1237.2 709.951 1232.78 710.948 1233.08 707.071C1233.38 703.194 1246.25 700.091 1236.56 698.863C1234.14 698.556 1232.49 698.052 1231.38 697.468C1229.87 696.668 1232.24 695.294 1233.95 695.337C1239.55 695.477 1252.27 692.154 1281.15 675.758C1331.41 647.226 1336.74 698.677 1292.96 715.031Z" stroke="#EFEFEF" stroke-opacity="0.15" stroke-width="1.81077"/>
<path d="M733.956 356.031C690.528 372.251 704.437 370.905 692.115 375.199C691.918 375.268 691.723 375.371 691.556 375.496C690.313 376.426 684.716 380.324 682.949 376.527C680.957 372.245 694.42 364.497 689.612 366.022C684.804 367.548 675.794 366.709 677.112 361.999C678.429 357.289 694.618 351.346 686.407 351.148C678.196 350.951 673.784 351.948 674.082 348.071C674.38 344.194 687.253 341.091 677.56 339.863C675.141 339.556 673.494 339.052 672.385 338.468C670.866 337.668 673.238 336.294 674.954 336.337C680.549 336.477 693.268 333.154 722.15 316.758C772.411 288.226 777.745 339.677 733.956 356.031Z" stroke="#EFEFEF" stroke-opacity="0.15" stroke-width="1.81077"/>
<path d="M733.956 422.031C690.528 438.251 704.437 436.905 692.115 441.199C691.918 441.268 691.723 441.371 691.556 441.496C690.313 442.426 684.716 446.324 682.949 442.527C680.957 438.245 694.42 430.497 689.612 432.022C684.804 433.548 675.794 432.709 677.112 427.999C678.429 423.289 694.618 417.346 686.407 417.148C678.196 416.951 673.784 417.948 674.082 414.071C674.38 410.194 687.253 407.091 677.56 405.863C675.141 405.556 673.494 405.052 672.385 404.468C670.866 403.668 673.238 402.294 674.954 402.337C680.549 402.477 693.268 399.154 722.15 382.758C772.411 354.226 777.745 405.677 733.956 422.031Z" stroke="#EFEFEF" stroke-opacity="0.15" stroke-width="1.81077"/>
<path d="M845.956 353.031C802.528 369.251 816.437 367.905 804.115 372.199C803.918 372.268 803.723 372.371 803.556 372.496C802.313 373.426 796.716 377.324 794.949 373.527C792.957 369.245 806.42 361.497 801.612 363.022C796.804 364.548 787.794 363.709 789.112 358.999C790.429 354.289 806.618 348.346 798.407 348.148C790.196 347.951 785.784 348.948 786.082 345.071C786.38 341.194 799.253 338.091 789.56 336.863C787.141 336.556 785.494 336.052 784.385 335.468C782.866 334.668 785.238 333.294 786.954 333.337C792.549 333.477 805.268 330.154 834.15 313.758C884.411 285.226 889.745 336.677 845.956 353.031Z" stroke="#EFEFEF" stroke-opacity="0.15" stroke-width="1.81077"/>
<path d="M848.956 419.031C805.528 435.251 819.437 433.905 807.115 438.199C806.918 438.268 806.723 438.371 806.556 438.496C805.313 439.426 799.716 443.324 797.949 439.527C795.957 435.245 809.42 427.497 804.612 429.022C799.804 430.548 790.794 429.709 792.112 424.999C793.429 420.289 809.618 414.346 801.407 414.148C793.196 413.951 788.784 414.948 789.082 411.071C789.38 407.194 802.253 404.091 792.56 402.863C790.141 402.556 788.494 402.052 787.385 401.468C785.866 400.668 788.238 399.294 789.954 399.337C795.549 399.477 808.268 396.154 837.15 379.758C887.411 351.226 892.745 402.677 848.956 419.031Z" stroke="#EFEFEF" stroke-opacity="0.15" stroke-width="1.81077"/>
<path d="M733.956 207.031C690.528 223.251 704.437 221.905 692.115 226.199C691.918 226.268 691.723 226.371 691.556 226.496C690.313 227.426 684.716 231.324 682.949 227.527C680.957 223.245 694.42 215.497 689.612 217.022C684.804 218.548 675.794 217.709 677.112 212.999C678.429 208.289 694.618 202.346 686.407 202.148C678.196 201.951 673.784 202.948 674.082 199.071C674.38 195.194 687.253 192.091 677.56 190.863C675.141 190.556 673.494 190.052 672.385 189.468C670.866 188.668 673.238 187.294 674.954 187.337C680.549 187.477 693.268 184.154 722.15 167.758C772.411 139.226 777.745 190.677 733.956 207.031Z" stroke="#EFEFEF" stroke-opacity="0.15" stroke-width="1.81077"/>
<path d="M733.956 273.031C690.528 289.251 704.437 287.905 692.115 292.199C691.918 292.268 691.723 292.371 691.556 292.496C690.313 293.426 684.716 297.324 682.949 293.527C680.957 289.245 694.42 281.497 689.612 283.022C684.804 284.548 675.794 283.709 677.112 278.999C678.429 274.289 694.618 268.346 686.407 268.148C678.196 267.951 673.784 268.948 674.082 265.071C674.38 261.194 687.253 258.091 677.56 256.863C675.141 256.556 673.494 256.052 672.385 255.468C670.866 254.668 673.238 253.294 674.954 253.337C680.549 253.477 693.268 250.154 722.15 233.758C772.411 205.226 777.745 256.677 733.956 273.031Z" stroke="#EFEFEF" stroke-opacity="0.15" stroke-width="1.81077"/>
<path d="M845.956 204.031C802.528 220.251 816.437 218.905 804.115 223.199C803.918 223.268 803.723 223.371 803.556 223.496C802.313 224.426 796.716 228.324 794.949 224.527C792.957 220.245 806.42 212.497 801.612 214.022C796.804 215.548 787.794 214.709 789.112 209.999C790.429 205.289 806.618 199.346 798.407 199.148C790.196 198.951 785.784 199.948 786.082 196.071C786.38 192.194 799.253 189.091 789.56 187.863C787.141 187.556 785.494 187.052 784.385 186.468C782.866 185.668 785.238 184.294 786.954 184.337C792.549 184.477 805.268 181.154 834.15 164.758C884.411 136.226 889.745 187.677 845.956 204.031Z" stroke="#EFEFEF" stroke-opacity="0.15" stroke-width="1.81077"/>
<path d="M848.956 270.031C805.528 286.251 819.437 284.905 807.115 289.199C806.918 289.268 806.723 289.371 806.556 289.496C805.313 290.426 799.716 294.324 797.949 290.527C795.957 286.245 809.42 278.497 804.612 280.022C799.804 281.548 790.794 280.709 792.112 275.999C793.429 271.289 809.618 265.346 801.407 265.148C793.196 264.951 788.784 265.948 789.082 262.071C789.38 258.194 802.253 255.091 792.56 253.863C790.141 253.556 788.494 253.052 787.385 252.468C785.866 251.668 788.238 250.294 789.954 250.337C795.549 250.477 808.268 247.154 837.15 230.758C887.411 202.226 892.745 253.677 848.956 270.031Z" stroke="#EFEFEF" stroke-opacity="0.15" stroke-width="1.81077"/>
<path d="M733.956 504.031C690.528 520.251 704.437 518.905 692.115 523.199C691.918 523.268 691.723 523.371 691.556 523.496C690.313 524.426 684.716 528.324 682.949 524.527C680.957 520.245 694.42 512.497 689.612 514.022C684.804 515.548 675.794 514.709 677.112 509.999C678.429 505.289 694.618 499.346 686.407 499.148C678.196 498.951 673.784 499.948 674.082 496.071C674.38 492.194 687.253 489.091 677.56 487.863C675.141 487.556 673.494 487.052 672.385 486.468C670.866 485.668 673.238 484.294 674.954 484.337C680.549 484.477 693.268 481.154 722.15 464.758C772.411 436.226 777.745 487.677 733.956 504.031Z" stroke="#EFEFEF" stroke-opacity="0.15" stroke-width="1.81077"/>
<path d="M733.956 570.031C690.528 586.251 704.437 584.905 692.115 589.199C691.918 589.268 691.723 589.371 691.556 589.496C690.313 590.426 684.716 594.324 682.949 590.527C680.957 586.245 694.42 578.497 689.612 580.022C684.804 581.548 675.794 580.709 677.112 575.999C678.429 571.289 694.618 565.346 686.407 565.148C678.196 564.951 673.784 565.948 674.082 562.071C674.38 558.194 687.253 555.091 677.56 553.863C675.141 553.556 673.494 553.052 672.385 552.468C670.866 551.668 673.238 550.294 674.954 550.337C680.549 550.477 693.268 547.154 722.15 530.758C772.411 502.226 777.745 553.677 733.956 570.031Z" stroke="#EFEFEF" stroke-opacity="0.15" stroke-width="1.81077"/>
<path d="M845.956 501.031C802.528 517.251 816.437 515.905 804.115 520.199C803.918 520.268 803.723 520.371 803.556 520.496C802.313 521.426 796.716 525.324 794.949 521.527C792.957 517.245 806.42 509.497 801.612 511.022C796.804 512.548 787.794 511.709 789.112 506.999C790.429 502.289 806.618 496.346 798.407 496.148C790.196 495.951 785.784 496.948 786.082 493.071C786.38 489.194 799.253 486.091 789.56 484.863C787.141 484.556 785.494 484.052 784.385 483.468C782.866 482.668 785.238 481.294 786.954 481.337C792.549 481.477 805.268 478.154 834.15 461.758C884.411 433.226 889.745 484.677 845.956 501.031Z" stroke="#EFEFEF" stroke-opacity="0.15" stroke-width="1.81077"/>
<path d="M848.956 567.031C805.528 583.251 819.437 581.905 807.115 586.199C806.918 586.268 806.723 586.371 806.556 586.496C805.313 587.426 799.716 591.324 797.949 587.527C795.957 583.245 809.42 575.497 804.612 577.022C799.804 578.548 790.794 577.709 792.112 572.999C793.429 568.289 809.618 562.346 801.407 562.148C793.196 561.951 788.784 562.948 789.082 559.071C789.38 555.194 802.253 552.091 792.56 550.863C790.141 550.556 788.494 550.052 787.385 549.468C785.866 548.668 788.238 547.294 789.954 547.337C795.549 547.477 808.268 544.154 837.15 527.758C887.411 499.226 892.745 550.677 848.956 567.031Z" stroke="#EFEFEF" stroke-opacity="0.15" stroke-width="1.81077"/>
<path d="M1171.96 59.0308C1128.53 75.2505 1142.44 73.9046 1130.11 78.1989C1129.92 78.2675 1129.72 78.371 1129.56 78.496C1128.31 79.4262 1122.72 83.3239 1120.95 79.5265C1118.96 75.2448 1132.42 67.497 1127.61 69.0225C1122.8 70.5479 1113.79 69.7086 1115.11 64.9988C1116.43 60.289 1132.62 54.3456 1124.41 54.1484C1116.2 53.9511 1111.78 54.9483 1112.08 51.0709C1112.38 47.1935 1125.25 44.091 1115.56 42.8629C1113.14 42.5564 1111.49 42.0521 1110.38 41.4679C1108.87 40.6681 1111.24 39.2943 1112.95 39.3371C1118.55 39.4769 1131.27 36.1541 1160.15 19.7582C1210.41 -8.77403 1215.74 42.6766 1171.96 59.0308Z" stroke="#EFEFEF" stroke-opacity="0.15" stroke-width="1.81077"/>
<path d="M1171.96 125.031C1128.53 141.251 1142.44 139.905 1130.11 144.199C1129.92 144.268 1129.72 144.371 1129.56 144.496C1128.31 145.426 1122.72 149.324 1120.95 145.527C1118.96 141.245 1132.42 133.497 1127.61 135.022C1122.8 136.548 1113.79 135.709 1115.11 130.999C1116.43 126.289 1132.62 120.346 1124.41 120.148C1116.2 119.951 1111.78 120.948 1112.08 117.071C1112.38 113.194 1125.25 110.091 1115.56 108.863C1113.14 108.556 1111.49 108.052 1110.38 107.468C1108.87 106.668 1111.24 105.294 1112.95 105.337C1118.55 105.477 1131.27 102.154 1160.15 85.7582C1210.41 57.226 1215.74 108.677 1171.96 125.031Z" stroke="#EFEFEF" stroke-opacity="0.15" stroke-width="1.81077"/>
<path d="M1283.96 56.0308C1240.53 72.2505 1254.44 70.9046 1242.11 75.1989C1241.92 75.2675 1241.72 75.371 1241.56 75.496C1240.31 76.4262 1234.72 80.3239 1232.95 76.5265C1230.96 72.2448 1244.42 64.497 1239.61 66.0225C1234.8 67.5479 1225.79 66.7086 1227.11 61.9988C1228.43 57.289 1244.62 51.3456 1236.41 51.1484C1228.2 50.9511 1223.78 51.9483 1224.08 48.0709C1224.38 44.1935 1237.25 41.091 1227.56 39.8629C1225.14 39.5564 1223.49 39.0521 1222.38 38.4679C1220.87 37.6681 1223.24 36.2943 1224.95 36.3371C1230.55 36.4769 1243.27 33.1541 1272.15 16.7582C1322.41 -11.774 1327.74 39.6766 1283.96 56.0308Z" stroke="#EFEFEF" stroke-opacity="0.15" stroke-width="1.81077"/>
<path d="M1286.96 122.031C1243.53 138.251 1257.44 136.905 1245.11 141.199C1244.92 141.268 1244.72 141.371 1244.56 141.496C1243.31 142.426 1237.72 146.324 1235.95 142.527C1233.96 138.245 1247.42 130.497 1242.61 132.022C1237.8 133.548 1228.79 132.709 1230.11 127.999C1231.43 123.289 1247.62 117.346 1239.41 117.148C1231.2 116.951 1226.78 117.948 1227.08 114.071C1227.38 110.194 1240.25 107.091 1230.56 105.863C1228.14 105.556 1226.49 105.052 1225.38 104.468C1223.87 103.668 1226.24 102.294 1227.95 102.337C1233.55 102.477 1246.27 99.1541 1275.15 82.7582C1325.41 54.226 1330.74 105.677 1286.96 122.031Z" stroke="#EFEFEF" stroke-opacity="0.15" stroke-width="1.81077"/>
<path d="M1173.96 356.031C1130.53 372.251 1144.44 370.905 1132.11 375.199C1131.92 375.268 1131.72 375.371 1131.56 375.496C1130.31 376.426 1124.72 380.324 1122.95 376.527C1120.96 372.245 1134.42 364.497 1129.61 366.022C1124.8 367.548 1115.79 366.709 1117.11 361.999C1118.43 357.289 1134.62 351.346 1126.41 351.148C1118.2 350.951 1113.78 351.948 1114.08 348.071C1114.38 344.194 1127.25 341.091 1117.56 339.863C1115.14 339.556 1113.49 339.052 1112.38 338.468C1110.87 337.668 1113.24 336.294 1114.95 336.337C1120.55 336.477 1133.27 333.154 1162.15 316.758C1212.41 288.226 1217.74 339.677 1173.96 356.031Z" stroke="#EFEFEF" stroke-opacity="0.15" stroke-width="1.81077"/>
<path d="M1173.96 422.031C1130.53 438.251 1144.44 436.905 1132.11 441.199C1131.92 441.268 1131.72 441.371 1131.56 441.496C1130.31 442.426 1124.72 446.324 1122.95 442.527C1120.96 438.245 1134.42 430.497 1129.61 432.022C1124.8 433.548 1115.79 432.709 1117.11 427.999C1118.43 423.289 1134.62 417.346 1126.41 417.148C1118.2 416.951 1113.78 417.948 1114.08 414.071C1114.38 410.194 1127.25 407.091 1117.56 405.863C1115.14 405.556 1113.49 405.052 1112.38 404.468C1110.87 403.668 1113.24 402.294 1114.95 402.337C1120.55 402.477 1133.27 399.154 1162.15 382.758C1212.41 354.226 1217.74 405.677 1173.96 422.031Z" stroke="#EFEFEF" stroke-opacity="0.15" stroke-width="1.81077"/>
<path d="M1285.96 353.031C1242.53 369.251 1256.44 367.905 1244.11 372.199C1243.92 372.268 1243.72 372.371 1243.56 372.496C1242.31 373.426 1236.72 377.324 1234.95 373.527C1232.96 369.245 1246.42 361.497 1241.61 363.022C1236.8 364.548 1227.79 363.709 1229.11 358.999C1230.43 354.289 1246.62 348.346 1238.41 348.148C1230.2 347.951 1225.78 348.948 1226.08 345.071C1226.38 341.194 1239.25 338.091 1229.56 336.863C1227.14 336.556 1225.49 336.052 1224.38 335.468C1222.87 334.668 1225.24 333.294 1226.95 333.337C1232.55 333.477 1245.27 330.154 1274.15 313.758C1324.41 285.226 1329.74 336.677 1285.96 353.031Z" stroke="#EFEFEF" stroke-opacity="0.15" stroke-width="1.81077"/>
<path d="M1288.96 419.031C1245.53 435.251 1259.44 433.905 1247.11 438.199C1246.92 438.268 1246.72 438.371 1246.56 438.496C1245.31 439.426 1239.72 443.324 1237.95 439.527C1235.96 435.245 1249.42 427.497 1244.61 429.022C1239.8 430.548 1230.79 429.709 1232.11 424.999C1233.43 420.289 1249.62 414.346 1241.41 414.148C1233.2 413.951 1228.78 414.948 1229.08 411.071C1229.38 407.194 1242.25 404.091 1232.56 402.863C1230.14 402.556 1228.49 402.052 1227.38 401.468C1225.87 400.668 1228.24 399.294 1229.95 399.337C1235.55 399.477 1248.27 396.154 1277.15 379.758C1327.41 351.226 1332.74 402.677 1288.96 419.031Z" stroke="#EFEFEF" stroke-opacity="0.15" stroke-width="1.81077"/>
<path d="M1175.96 207.031C1132.53 223.251 1146.44 221.905 1134.11 226.199C1133.92 226.268 1133.72 226.371 1133.56 226.496C1132.31 227.426 1126.72 231.324 1124.95 227.527C1122.96 223.245 1136.42 215.497 1131.61 217.022C1126.8 218.548 1117.79 217.709 1119.11 212.999C1120.43 208.289 1136.62 202.346 1128.41 202.148C1120.2 201.951 1115.78 202.948 1116.08 199.071C1116.38 195.194 1129.25 192.091 1119.56 190.863C1117.14 190.556 1115.49 190.052 1114.38 189.468C1112.87 188.668 1115.24 187.294 1116.95 187.337C1122.55 187.477 1135.27 184.154 1164.15 167.758C1214.41 139.226 1219.74 190.677 1175.96 207.031Z" stroke="#EFEFEF" stroke-opacity="0.15" stroke-width="1.81077"/>
<path d="M1175.96 273.031C1132.53 289.251 1146.44 287.905 1134.11 292.199C1133.92 292.268 1133.72 292.371 1133.56 292.496C1132.31 293.426 1126.72 297.324 1124.95 293.527C1122.96 289.245 1136.42 281.497 1131.61 283.022C1126.8 284.548 1117.79 283.709 1119.11 278.999C1120.43 274.289 1136.62 268.346 1128.41 268.148C1120.2 267.951 1115.78 268.948 1116.08 265.071C1116.38 261.194 1129.25 258.091 1119.56 256.863C1117.14 256.556 1115.49 256.052 1114.38 255.468C1112.87 254.668 1115.24 253.294 1116.95 253.337C1122.55 253.477 1135.27 250.154 1164.15 233.758C1214.41 205.226 1219.74 256.677 1175.96 273.031Z" stroke="#EFEFEF" stroke-opacity="0.15" stroke-width="1.81077"/>
<path d="M1287.96 204.031C1244.53 220.251 1258.44 218.905 1246.11 223.199C1245.92 223.268 1245.72 223.371 1245.56 223.496C1244.31 224.426 1238.72 228.324 1236.95 224.527C1234.96 220.245 1248.42 212.497 1243.61 214.022C1238.8 215.548 1229.79 214.709 1231.11 209.999C1232.43 205.289 1248.62 199.346 1240.41 199.148C1232.2 198.951 1227.78 199.948 1228.08 196.071C1228.38 192.194 1241.25 189.091 1231.56 187.863C1229.14 187.556 1227.49 187.052 1226.38 186.468C1224.87 185.668 1227.24 184.294 1228.95 184.337C1234.55 184.477 1247.27 181.154 1276.15 164.758C1326.41 136.226 1331.74 187.677 1287.96 204.031Z" stroke="#EFEFEF" stroke-opacity="0.15" stroke-width="1.81077"/>
<path d="M1290.96 270.031C1247.53 286.251 1261.44 284.905 1249.11 289.199C1248.92 289.268 1248.72 289.371 1248.56 289.496C1247.31 290.426 1241.72 294.324 1239.95 290.527C1237.96 286.245 1251.42 278.497 1246.61 280.022C1241.8 281.548 1232.79 280.709 1234.11 275.999C1235.43 271.289 1251.62 265.346 1243.41 265.148C1235.2 264.951 1230.78 265.948 1231.08 262.071C1231.38 258.194 1244.25 255.091 1234.56 253.863C1232.14 253.556 1230.49 253.052 1229.38 252.468C1227.87 251.668 1230.24 250.294 1231.95 250.337C1237.55 250.477 1250.27 247.154 1279.15 230.758C1329.41 202.226 1334.74 253.677 1290.96 270.031Z" stroke="#EFEFEF" stroke-opacity="0.15" stroke-width="1.81077"/>
<path d="M1177.96 504.031C1134.53 520.251 1148.44 518.905 1136.11 523.199C1135.92 523.268 1135.72 523.371 1135.56 523.496C1134.31 524.426 1128.72 528.324 1126.95 524.527C1124.96 520.245 1138.42 512.497 1133.61 514.022C1128.8 515.548 1119.79 514.709 1121.11 509.999C1122.43 505.289 1138.62 499.346 1130.41 499.148C1122.2 498.951 1117.78 499.948 1118.08 496.071C1118.38 492.194 1131.25 489.091 1121.56 487.863C1119.14 487.556 1117.49 487.052 1116.38 486.468C1114.87 485.668 1117.24 484.294 1118.95 484.337C1124.55 484.477 1137.27 481.154 1166.15 464.758C1216.41 436.226 1221.74 487.677 1177.96 504.031Z" stroke="#EFEFEF" stroke-opacity="0.15" stroke-width="1.81077"/>
<path d="M1177.96 570.031C1134.53 586.251 1148.44 584.905 1136.11 589.199C1135.92 589.268 1135.72 589.371 1135.56 589.496C1134.31 590.426 1128.72 594.324 1126.95 590.527C1124.96 586.245 1138.42 578.497 1133.61 580.022C1128.8 581.548 1119.79 580.709 1121.11 575.999C1122.43 571.289 1138.62 565.346 1130.41 565.148C1122.2 564.951 1117.78 565.948 1118.08 562.071C1118.38 558.194 1131.25 555.091 1121.56 553.863C1119.14 553.556 1117.49 553.052 1116.38 552.468C1114.87 551.668 1117.24 550.294 1118.95 550.337C1124.55 550.477 1137.27 547.154 1166.15 530.758C1216.41 502.226 1221.74 553.677 1177.96 570.031Z" stroke="#EFEFEF" stroke-opacity="0.15" stroke-width="1.81077"/>
<path d="M1289.96 501.031C1246.53 517.251 1260.44 515.905 1248.11 520.199C1247.92 520.268 1247.72 520.371 1247.56 520.496C1246.31 521.426 1240.72 525.324 1238.95 521.527C1236.96 517.245 1250.42 509.497 1245.61 511.022C1240.8 512.548 1231.79 511.709 1233.11 506.999C1234.43 502.289 1250.62 496.346 1242.41 496.148C1234.2 495.951 1229.78 496.948 1230.08 493.071C1230.38 489.194 1243.25 486.091 1233.56 484.863C1231.14 484.556 1229.49 484.052 1228.38 483.468C1226.87 482.668 1229.24 481.294 1230.95 481.337C1236.55 481.477 1249.27 478.154 1278.15 461.758C1328.41 433.226 1333.74 484.677 1289.96 501.031Z" stroke="#EFEFEF" stroke-opacity="0.15" stroke-width="1.81077"/>
<path d="M1292.96 567.031C1249.53 583.251 1263.44 581.905 1251.11 586.199C1250.92 586.268 1250.72 586.371 1250.56 586.496C1249.31 587.426 1243.72 591.324 1241.95 587.527C1239.96 583.245 1253.42 575.497 1248.61 577.022C1243.8 578.548 1234.79 577.709 1236.11 572.999C1237.43 568.289 1253.62 562.346 1245.41 562.148C1237.2 561.951 1232.78 562.948 1233.08 559.071C1233.38 555.194 1246.25 552.091 1236.56 550.863C1234.14 550.556 1232.49 550.052 1231.38 549.468C1229.87 548.668 1232.24 547.294 1233.95 547.337C1239.55 547.477 1252.27 544.154 1281.15 527.758C1331.41 499.226 1336.74 550.677 1292.96 567.031Z" stroke="#EFEFEF" stroke-opacity="0.15" stroke-width="1.81077"/>
<path d="M955.956 59.0308C912.528 75.2505 926.437 73.9046 914.115 78.1989C913.918 78.2675 913.723 78.371 913.556 78.496C912.313 79.4262 906.716 83.3239 904.949 79.5265C902.957 75.2448 916.42 67.497 911.612 69.0225C906.804 70.5479 897.794 69.7086 899.112 64.9988C900.429 60.289 916.618 54.3456 908.407 54.1484C900.196 53.9511 895.784 54.9483 896.082 51.0709C896.38 47.1935 909.253 44.091 899.56 42.8629C897.141 42.5564 895.494 42.0521 894.385 41.4679C892.866 40.6681 895.238 39.2943 896.954 39.3371C902.549 39.4769 915.268 36.1541 944.15 19.7582C994.411 -8.77403 999.745 42.6766 955.956 59.0308Z" stroke="#EFEFEF" stroke-opacity="0.15" stroke-width="1.81077"/>
<path d="M955.956 125.031C912.528 141.251 926.437 139.905 914.115 144.199C913.918 144.268 913.723 144.371 913.556 144.496C912.313 145.426 906.716 149.324 904.949 145.527C902.957 141.245 916.42 133.497 911.612 135.022C906.804 136.548 897.794 135.709 899.112 130.999C900.429 126.289 916.618 120.346 908.407 120.148C900.196 119.951 895.784 120.948 896.082 117.071C896.38 113.194 909.253 110.091 899.56 108.863C897.141 108.556 895.494 108.052 894.385 107.468C892.866 106.668 895.238 105.294 896.954 105.337C902.549 105.477 915.268 102.154 944.15 85.7582C994.411 57.226 999.745 108.677 955.956 125.031Z" stroke="#EFEFEF" stroke-opacity="0.15" stroke-width="1.81077"/>
<path d="M1067.96 56.0308C1024.53 72.2505 1038.44 70.9046 1026.11 75.1989C1025.92 75.2675 1025.72 75.371 1025.56 75.496C1024.31 76.4262 1018.72 80.3239 1016.95 76.5265C1014.96 72.2448 1028.42 64.497 1023.61 66.0225C1018.8 67.5479 1009.79 66.7086 1011.11 61.9988C1012.43 57.289 1028.62 51.3456 1020.41 51.1484C1012.2 50.9511 1007.78 51.9483 1008.08 48.0709C1008.38 44.1935 1021.25 41.091 1011.56 39.8629C1009.14 39.5564 1007.49 39.0521 1006.38 38.4679C1004.87 37.6681 1007.24 36.2943 1008.95 36.3371C1014.55 36.4769 1027.27 33.1541 1056.15 16.7582C1106.41 -11.774 1111.74 39.6766 1067.96 56.0308Z" stroke="#EFEFEF" stroke-opacity="0.15" stroke-width="1.81077"/>
<path d="M1070.96 122.031C1027.53 138.251 1041.44 136.905 1029.11 141.199C1028.92 141.268 1028.72 141.371 1028.56 141.496C1027.31 142.426 1021.72 146.324 1019.95 142.527C1017.96 138.245 1031.42 130.497 1026.61 132.022C1021.8 133.548 1012.79 132.709 1014.11 127.999C1015.43 123.289 1031.62 117.346 1023.41 117.148C1015.2 116.951 1010.78 117.948 1011.08 114.071C1011.38 110.194 1024.25 107.091 1014.56 105.863C1012.14 105.556 1010.49 105.052 1009.38 104.468C1007.87 103.668 1010.24 102.294 1011.95 102.337C1017.55 102.477 1030.27 99.1541 1059.15 82.7582C1109.41 54.226 1114.74 105.677 1070.96 122.031Z" stroke="#EFEFEF" stroke-opacity="0.15" stroke-width="1.81077"/>
<path d="M955.956 356.031C912.528 372.251 926.437 370.905 914.115 375.199C913.918 375.268 913.723 375.371 913.556 375.496C912.313 376.426 906.716 380.324 904.949 376.527C902.957 372.245 916.42 364.497 911.612 366.022C906.804 367.548 897.794 366.709 899.112 361.999C900.429 357.289 916.618 351.346 908.407 351.148C900.196 350.951 895.784 351.948 896.082 348.071C896.38 344.194 909.253 341.091 899.56 339.863C897.141 339.556 895.494 339.052 894.385 338.468C892.866 337.668 895.238 336.294 896.954 336.337C902.549 336.477 915.268 333.154 944.15 316.758C994.411 288.226 999.745 339.677 955.956 356.031Z" stroke="#EFEFEF" stroke-opacity="0.15" stroke-width="1.81077"/>
<path d="M955.956 422.031C912.528 438.251 926.437 436.905 914.115 441.199C913.918 441.268 913.723 441.371 913.556 441.496C912.313 442.426 906.716 446.324 904.949 442.527C902.957 438.245 916.42 430.497 911.612 432.022C906.804 433.548 897.794 432.709 899.112 427.999C900.429 423.289 916.618 417.346 908.407 417.148C900.196 416.951 895.784 417.948 896.082 414.071C896.38 410.194 909.253 407.091 899.56 405.863C897.141 405.556 895.494 405.052 894.385 404.468C892.866 403.668 895.238 402.294 896.954 402.337C902.549 402.477 915.268 399.154 944.15 382.758C994.411 354.226 999.745 405.677 955.956 422.031Z" stroke="#EFEFEF" stroke-opacity="0.15" stroke-width="1.81077"/>
<path d="M1067.96 353.031C1024.53 369.251 1038.44 367.905 1026.11 372.199C1025.92 372.268 1025.72 372.371 1025.56 372.496C1024.31 373.426 1018.72 377.324 1016.95 373.527C1014.96 369.245 1028.42 361.497 1023.61 363.022C1018.8 364.548 1009.79 363.709 1011.11 358.999C1012.43 354.289 1028.62 348.346 1020.41 348.148C1012.2 347.951 1007.78 348.948 1008.08 345.071C1008.38 341.194 1021.25 338.091 1011.56 336.863C1009.14 336.556 1007.49 336.052 1006.38 335.468C1004.87 334.668 1007.24 333.294 1008.95 333.337C1014.55 333.477 1027.27 330.154 1056.15 313.758C1106.41 285.226 1111.74 336.677 1067.96 353.031Z" stroke="#EFEFEF" stroke-opacity="0.15" stroke-width="1.81077"/>
<path d="M1070.96 419.031C1027.53 435.251 1041.44 433.905 1029.11 438.199C1028.92 438.268 1028.72 438.371 1028.56 438.496C1027.31 439.426 1021.72 443.324 1019.95 439.527C1017.96 435.245 1031.42 427.497 1026.61 429.022C1021.8 430.548 1012.79 429.709 1014.11 424.999C1015.43 420.289 1031.62 414.346 1023.41 414.148C1015.2 413.951 1010.78 414.948 1011.08 411.071C1011.38 407.194 1024.25 404.091 1014.56 402.863C1012.14 402.556 1010.49 402.052 1009.38 401.468C1007.87 400.668 1010.24 399.294 1011.95 399.337C1017.55 399.477 1030.27 396.154 1059.15 379.758C1109.41 351.226 1114.74 402.677 1070.96 419.031Z" stroke="#EFEFEF" stroke-opacity="0.15" stroke-width="1.81077"/>
<path d="M955.956 207.031C912.528 223.251 926.437 221.905 914.115 226.199C913.918 226.268 913.723 226.371 913.556 226.496C912.313 227.426 906.716 231.324 904.949 227.527C902.957 223.245 916.42 215.497 911.612 217.022C906.804 218.548 897.794 217.709 899.112 212.999C900.429 208.289 916.618 202.346 908.407 202.148C900.196 201.951 895.784 202.948 896.082 199.071C896.38 195.194 909.253 192.091 899.56 190.863C897.141 190.556 895.494 190.052 894.385 189.468C892.866 188.668 895.238 187.294 896.954 187.337C902.549 187.477 915.268 184.154 944.15 167.758C994.411 139.226 999.745 190.677 955.956 207.031Z" stroke="#EFEFEF" stroke-opacity="0.15" stroke-width="1.81077"/>
<path d="M955.956 273.031C912.528 289.251 926.437 287.905 914.115 292.199C913.918 292.268 913.723 292.371 913.556 292.496C912.313 293.426 906.716 297.324 904.949 293.527C902.957 289.245 916.42 281.497 911.612 283.022C906.804 284.548 897.794 283.709 899.112 278.999C900.429 274.289 916.618 268.346 908.407 268.148C900.196 267.951 895.784 268.948 896.082 265.071C896.38 261.194 909.253 258.091 899.56 256.863C897.141 256.556 895.494 256.052 894.385 255.468C892.866 254.668 895.238 253.294 896.954 253.337C902.549 253.477 915.268 250.154 944.15 233.758C994.411 205.226 999.745 256.677 955.956 273.031Z" stroke="#EFEFEF" stroke-opacity="0.15" stroke-width="1.81077"/>
<path d="M1067.96 204.031C1024.53 220.251 1038.44 218.905 1026.11 223.199C1025.92 223.268 1025.72 223.371 1025.56 223.496C1024.31 224.426 1018.72 228.324 1016.95 224.527C1014.96 220.245 1028.42 212.497 1023.61 214.022C1018.8 215.548 1009.79 214.709 1011.11 209.999C1012.43 205.289 1028.62 199.346 1020.41 199.148C1012.2 198.951 1007.78 199.948 1008.08 196.071C1008.38 192.194 1021.25 189.091 1011.56 187.863C1009.14 187.556 1007.49 187.052 1006.38 186.468C1004.87 185.668 1007.24 184.294 1008.95 184.337C1014.55 184.477 1027.27 181.154 1056.15 164.758C1106.41 136.226 1111.74 187.677 1067.96 204.031Z" stroke="#EFEFEF" stroke-opacity="0.15" stroke-width="1.81077"/>
<path d="M1070.96 270.031C1027.53 286.251 1041.44 284.905 1029.11 289.199C1028.92 289.268 1028.72 289.371 1028.56 289.496C1027.31 290.426 1021.72 294.324 1019.95 290.527C1017.96 286.245 1031.42 278.497 1026.61 280.022C1021.8 281.548 1012.79 280.709 1014.11 275.999C1015.43 271.289 1031.62 265.346 1023.41 265.148C1015.2 264.951 1010.78 265.948 1011.08 262.071C1011.38 258.194 1024.25 255.091 1014.56 253.863C1012.14 253.556 1010.49 253.052 1009.38 252.468C1007.87 251.668 1010.24 250.294 1011.95 250.337C1017.55 250.477 1030.27 247.154 1059.15 230.758C1109.41 202.226 1114.74 253.677 1070.96 270.031Z" stroke="#EFEFEF" stroke-opacity="0.15" stroke-width="1.81077"/>
<path d="M955.956 504.031C912.528 520.251 926.437 518.905 914.115 523.199C913.918 523.268 913.723 523.371 913.556 523.496C912.313 524.426 906.716 528.324 904.949 524.527C902.957 520.245 916.42 512.497 911.612 514.022C906.804 515.548 897.794 514.709 899.112 509.999C900.429 505.289 916.618 499.346 908.407 499.148C900.196 498.951 895.784 499.948 896.082 496.071C896.38 492.194 909.253 489.091 899.56 487.863C897.141 487.556 895.494 487.052 894.385 486.468C892.866 485.668 895.238 484.294 896.954 484.337C902.549 484.477 915.268 481.154 944.15 464.758C994.411 436.226 999.745 487.677 955.956 504.031Z" stroke="#EFEFEF" stroke-opacity="0.15" stroke-width="1.81077"/>
<path d="M955.956 570.031C912.528 586.251 926.437 584.905 914.115 589.199C913.918 589.268 913.723 589.371 913.556 589.496C912.313 590.426 906.716 594.324 904.949 590.527C902.957 586.245 916.42 578.497 911.612 580.022C906.804 581.548 897.794 580.709 899.112 575.999C900.429 571.289 916.618 565.346 908.407 565.148C900.196 564.951 895.784 565.948 896.082 562.071C896.38 558.194 909.253 555.091 899.56 553.863C897.141 553.556 895.494 553.052 894.385 552.468C892.866 551.668 895.238 550.294 896.954 550.337C902.549 550.477 915.268 547.154 944.15 530.758C994.411 502.226 999.745 553.677 955.956 570.031Z" stroke="#EFEFEF" stroke-opacity="0.15" stroke-width="1.81077"/>
<path d="M1067.96 501.031C1024.53 517.251 1038.44 515.905 1026.11 520.199C1025.92 520.268 1025.72 520.371 1025.56 520.496C1024.31 521.426 1018.72 525.324 1016.95 521.527C1014.96 517.245 1028.42 509.497 1023.61 511.022C1018.8 512.548 1009.79 511.709 1011.11 506.999C1012.43 502.289 1028.62 496.346 1020.41 496.148C1012.2 495.951 1007.78 496.948 1008.08 493.071C1008.38 489.194 1021.25 486.091 1011.56 484.863C1009.14 484.556 1007.49 484.052 1006.38 483.468C1004.87 482.668 1007.24 481.294 1008.95 481.337C1014.55 481.477 1027.27 478.154 1056.15 461.758C1106.41 433.226 1111.74 484.677 1067.96 501.031Z" stroke="#EFEFEF" stroke-opacity="0.15" stroke-width="1.81077"/>
<path d="M1070.96 567.031C1027.53 583.251 1041.44 581.905 1029.11 586.199C1028.92 586.268 1028.72 586.371 1028.56 586.496C1027.31 587.426 1021.72 591.324 1019.95 587.527C1017.96 583.245 1031.42 575.497 1026.61 577.022C1021.8 578.548 1012.79 577.709 1014.11 572.999C1015.43 568.289 1031.62 562.346 1023.41 562.148C1015.2 561.951 1010.78 562.948 1011.08 559.071C1011.38 555.194 1024.25 552.091 1014.56 550.863C1012.14 550.556 1010.49 550.052 1009.38 549.468C1007.87 548.668 1010.24 547.294 1011.95 547.337C1017.55 547.477 1030.27 544.154 1059.15 527.758C1109.41 499.226 1114.74 550.677 1070.96 567.031Z" stroke="#EFEFEF" stroke-opacity="0.15" stroke-width="1.81077"/>
</svg>
