<svg width="802" height="834" viewBox="0 0 802 834" fill="none" xmlns="http://www.w3.org/2000/svg">
<path d="M764.705 650.372C767.063 570.971 594.72 495.17 507.559 466.942C507.078 466.787 506.63 466.597 506.181 466.365C382.442 402.405 220.933 431.308 109.795 454.219C49.1757 466.716 10.0002 639.696 10.0002 703.75C10.0002 767.803 90.413 816.646 144.434 816.646L376.188 795.578C380.278 795.578 383.116 794.996 384.97 794.014C385.418 794.525 385.877 795.046 386.348 795.578C430.059 844.897 554.112 819.277 596.348 804.5C638.584 789.723 657.348 795.578 681.957 795.578C706.072 795.578 734.1 781.343 762.884 761.817C771.147 756.212 769.969 721.008 767.84 711.253C764.952 698.021 763.871 678.451 764.705 650.372Z" fill="#BB7C38"/>
<path d="M764.705 650.372C767.063 570.971 594.72 495.17 507.559 466.942C507.078 466.787 506.63 466.597 506.181 466.365C382.442 402.405 220.933 431.308 109.795 454.219C49.1757 466.716 10.0002 639.696 10.0002 703.75C10.0002 767.803 90.413 816.646 144.434 816.646L376.188 795.578C415.776 795.578 338.086 741.124 386.348 795.578C430.059 844.897 554.112 819.277 596.348 804.5C638.584 789.723 657.348 795.578 681.957 795.578C706.072 795.578 734.1 781.343 762.884 761.817C771.147 756.212 769.969 721.008 767.84 711.253C764.952 698.021 763.871 678.451 764.705 650.372Z" stroke="black" stroke-width="18.0761"/>
<path d="M485.54 292.201L454.481 604.988C453.973 610.103 449.67 614 444.53 614H377.433C371.489 614 366.857 608.846 367.49 602.936L404.209 259.898C404.668 255.608 402.324 251.507 398.395 249.726L310.273 209.774C306.18 207.919 303.828 203.561 304.522 199.122L314.832 133.174C315.766 127.205 321.738 123.421 327.534 125.125L406.978 148.489C412.886 150.227 418.946 146.262 419.72 140.153L433.433 31.952C434.176 26.0864 439.819 22.1429 445.583 23.4609L507.803 37.689C512.785 38.8283 516.106 43.5408 515.504 48.6159L500.999 170.837C500.425 175.673 503.418 180.219 508.088 181.603L642.984 221.582C647.776 223.002 650.784 227.743 650.027 232.683L637.636 313.591C636.716 319.6 630.693 323.404 624.872 321.654L498.371 283.613C492.344 281.801 486.162 285.939 485.54 292.201Z" fill="black" stroke="black" stroke-width="20"/>
<path d="M472.49 279.699L441.481 591.988C440.973 597.103 436.67 601 431.53 601H364.433C358.489 601 353.857 595.846 354.49 589.936L391.152 247.429C391.638 242.887 388.985 238.593 384.706 236.996L274.249 195.763C269.91 194.143 267.251 189.756 267.822 185.16L276.885 112.266C277.649 106.116 283.766 102.135 289.698 103.926L393.92 135.385C399.844 137.173 405.953 133.207 406.731 127.069L420.432 18.952C421.176 13.0864 426.819 9.14293 432.582 10.4609L494.803 24.689C499.785 25.8283 503.106 30.5408 502.504 35.6159L487.965 158.118C487.406 162.829 490.233 167.284 494.733 168.784L615.332 208.98C619.757 210.454 622.574 214.791 622.124 219.433L614.072 302.386C613.447 308.819 606.976 312.979 600.864 310.875L485.696 271.231C479.593 269.13 473.128 273.276 472.49 279.699Z" fill="#757575" stroke="black" stroke-width="20"/>
<path d="M278.178 604.753C485.947 522.396 646.993 588.38 713.667 640.072C719.306 644.445 717.112 653.084 710.193 654.827C447.272 721.058 314.909 661.621 277.762 619.847C275.832 617.677 273.153 616.383 270.251 616.489C154.935 620.702 -40.0687 621.053 68.7468 589.657C172.649 559.678 242.444 584.592 268.68 603.447C271.428 605.422 275.032 606 278.178 604.753Z" fill="#DB9C58" stroke="black" stroke-width="18.0761"/>
<rect width="425.693" height="96.7074" transform="matrix(-1 0 0 1 730.333 649.76)" fill="#BB7C38"/>
<rect width="180.761" height="18.0761" transform="matrix(-1 0 0 1 221.489 607.28)" fill="#BB7C38"/>
<rect width="180.761" height="18.0761" transform="matrix(-1 0 0 1 258.546 607.28)" fill="#BB7C38"/>
<rect width="180.761" height="18.0761" transform="matrix(-1 0 0 1 236.855 612.703)" fill="#BB7C38"/>
<rect width="15.3647" height="12.6533" transform="matrix(-1 0 0 1 53.3828 606.377)" fill="#BB7C38"/>
<path d="M210.645 659.25C210.645 670.851 217.765 681.926 230.456 690.309C243.112 698.67 260.859 703.988 280.69 703.988C300.521 703.988 318.268 698.67 330.924 690.309C343.615 681.926 350.735 670.851 350.735 659.25C350.735 647.648 343.615 636.574 330.924 628.19C318.268 619.829 300.521 614.511 280.69 614.511C260.859 614.511 243.112 619.829 230.456 628.19C217.765 636.574 210.645 647.648 210.645 659.25Z" fill="#404040" stroke="black" stroke-width="9.03807"/>
<path d="M599.281 689.075C599.281 700.677 606.4 711.751 619.092 720.135C631.747 728.495 649.495 733.813 669.326 733.813C689.156 733.813 706.904 728.495 719.559 720.135C732.251 711.751 739.371 700.677 739.371 689.075C739.371 677.473 732.251 666.399 719.559 658.015C706.904 649.655 689.156 644.336 669.326 644.336C649.495 644.336 631.747 649.655 619.092 658.015C606.4 666.399 599.281 677.473 599.281 689.075Z" fill="#404040" stroke="black" stroke-width="9.03807"/>
<path d="M447.441 739.689C447.441 762.62 465.054 780.812 486.305 780.812C507.555 780.812 525.168 762.62 525.168 739.689C525.168 716.758 507.555 698.566 486.305 698.566C465.054 698.566 447.441 716.758 447.441 739.689Z" fill="#404040" stroke="black" stroke-width="9.03807"/>
<path d="M170.878 513.737C170.878 536.668 188.491 554.86 209.741 554.86C230.992 554.86 248.605 536.668 248.605 513.737C248.605 490.806 230.992 472.614 209.741 472.614C188.491 472.614 170.878 490.806 170.878 513.737Z" fill="#404040" stroke="black" stroke-width="9.03807"/>
<path d="M38.9205 613.156C38.9205 618.794 41.9308 624.229 47.4517 628.405C52.9753 632.584 60.8086 635.3 69.65 635.3C78.4913 635.3 86.3246 632.584 91.8482 628.405C97.3692 624.229 100.379 618.794 100.379 613.156C100.379 607.519 97.3692 602.084 91.8482 597.907C86.3246 593.729 78.4913 591.013 69.65 591.013C60.8086 591.013 52.9753 593.729 47.4517 597.907C41.9308 602.084 38.9205 607.519 38.9205 613.156Z" fill="#404040" stroke="black" stroke-width="9.03807"/>
<rect width="256.681" height="79.535" transform="matrix(-1 0 0 1 381.464 660.605)" fill="#BB7C38"/>
<rect width="75.016" height="23.499" transform="matrix(-1 0 0 1 109.419 616.319)" fill="#BB7C38"/>
<rect width="90.3807" height="45.1904" transform="matrix(-1 0 0 1 529.688 740.14)" fill="#BB7C38"/>
<rect width="160.878" height="56.9399" transform="matrix(-1 0 0 1 745.698 704.892)" fill="#BB7C38"/>
<rect width="160.878" height="69.5932" transform="matrix(-1 0 0 1 286.563 496.112)" fill="#BB7C38"/>
<path d="M560.869 533.62C560.869 543.556 569.117 551.696 579.397 551.696C589.677 551.696 597.925 543.556 597.925 533.62C597.925 523.683 589.677 515.544 579.397 515.544C569.117 515.544 560.869 523.683 560.869 533.62Z" fill="#404040" stroke="black" stroke-width="4.51904"/>
<rect width="70.497" height="28.018" transform="matrix(-1 0 0 1 616.453 525.938)" fill="#BB7C38"/>
<path d="M573.522 539.947C573.522 549.884 581.77 558.023 592.05 558.023C602.33 558.023 610.578 549.884 610.578 539.947C610.578 530.01 602.33 521.871 592.05 521.871C581.77 521.871 573.522 530.01 573.522 539.947Z" fill="#404040" stroke="black" stroke-width="4.51904"/>
<rect width="70.497" height="28.018" transform="matrix(-1 0 0 1 629.106 532.265)" fill="#BB7C38"/>
<path d="M164.545 508.091C164.199 510.866 162.057 530.831 161.075 546.783C160.679 553.209 154.028 557.626 148.061 555.208L91.8775 532.446C86.2301 530.158 84.4282 523.06 88.4095 518.448C95.5058 510.226 104.602 500.276 103.184 505.029C102.459 507.457 102.623 511.718 103.185 516.405C104.156 524.501 114.571 526.037 118.664 518.985C128.623 501.829 141.717 479.881 142.467 481.765C142.987 483.072 142.619 496.091 142.027 510.585C141.63 520.292 154.962 523.948 159.736 515.486C162.662 510.3 164.677 507.023 164.545 508.091Z" fill="#689374" stroke="black" stroke-width="9.03807"/>
<path d="M627.293 676.199C626.947 678.975 624.805 698.939 623.823 714.892C623.427 721.318 616.776 725.734 610.809 723.317L554.626 700.554C548.978 698.266 547.176 691.169 551.158 686.556C558.254 678.334 567.35 668.384 565.932 673.138C565.207 675.566 565.371 679.827 565.933 684.513C566.904 692.61 577.319 694.145 581.413 687.093C591.371 669.937 604.465 647.989 605.215 649.873C605.735 651.18 605.367 664.199 604.775 678.694C604.378 688.401 617.71 692.056 622.484 683.595C625.41 678.408 627.425 675.131 627.293 676.199Z" fill="#689374" stroke="black" stroke-width="9.03807"/>
<path d="M173.582 680.718C173.237 683.494 171.094 703.459 170.112 719.411C169.716 725.837 163.065 730.254 157.098 727.836L100.915 705.074C95.2672 702.786 93.4653 695.688 97.4466 691.076C104.543 682.854 113.639 672.904 112.221 677.657C111.496 680.085 111.66 684.346 112.222 689.033C113.193 697.129 123.608 698.665 127.702 691.613C137.66 674.457 150.754 652.509 151.504 654.393C152.024 655.699 151.656 668.719 151.064 683.213C150.667 692.92 163.999 696.576 168.773 688.114C171.699 682.928 173.714 679.651 173.582 680.718Z" fill="#689374" stroke="black" stroke-width="9.03807"/>
<path d="M355.248 708.736C354.903 711.512 352.76 731.476 351.778 747.429C351.382 753.855 344.731 758.271 338.764 755.854L282.581 733.091C276.933 730.803 275.131 723.706 279.113 719.093C286.209 710.871 295.305 700.921 293.887 705.675C293.162 708.103 293.326 712.364 293.888 717.051C294.859 725.147 305.274 726.683 309.368 719.63C319.326 702.474 332.42 680.526 333.17 682.41C333.69 683.717 333.322 696.736 332.73 711.231C332.333 720.938 345.665 724.593 350.439 716.132C353.365 710.945 355.38 707.668 355.248 708.736Z" fill="#689374" stroke="black" stroke-width="9.03807"/>
<path d="M684.233 527.071C683.888 529.847 681.746 549.811 680.763 565.764C680.368 572.19 673.716 576.606 667.75 574.189L611.566 551.426C605.919 549.138 604.117 542.041 608.098 537.428C615.194 529.206 624.291 519.256 622.872 524.01C622.147 526.438 622.312 530.699 622.874 535.386C623.845 543.482 634.259 545.018 638.353 537.965C648.311 520.809 661.406 498.861 662.155 500.745C662.675 502.052 662.307 515.071 661.715 529.566C661.318 539.273 674.65 542.928 679.424 534.467C682.35 529.28 684.366 526.003 684.233 527.071Z" fill="#689374" stroke="black" stroke-width="9.03807"/>
<rect width="92.2564" height="12.3829" transform="matrix(-0.925732 -0.378179 -0.378179 0.925732 686.107 574.693)" fill="#BB7C38"/>
<rect width="99.0898" height="15.432" transform="matrix(-0.940567 -0.339608 -0.339608 0.940567 630.637 719.148)" fill="#BB7C38"/>
<rect width="91.2683" height="15.432" transform="matrix(-0.940567 -0.339608 -0.339608 0.940567 166.357 551.406)" fill="#BB7C38"/>
<rect width="91.2683" height="15.432" transform="matrix(-0.940567 -0.339608 -0.339608 0.940567 357.964 752.156)" fill="#BB7C38"/>
<rect width="91.2683" height="15.432" transform="matrix(-0.940567 -0.339608 -0.339608 0.940567 179.011 727.754)" fill="#BB7C38"/>
<path d="M41.6324 713.478C41.6324 736.409 59.2458 754.601 80.4962 754.601C101.747 754.601 119.36 736.409 119.36 713.478C119.36 690.548 101.747 672.355 80.4962 672.355C59.2458 672.355 41.6324 690.548 41.6324 713.478Z" fill="#404040" stroke="black" stroke-width="9.03807"/>
<rect width="90.3807" height="37.9599" transform="matrix(-1 0 0 1 124.783 708.507)" fill="#BB7C38"/>
<rect width="90.3807" height="37.9599" transform="matrix(-1 0 0 1 141.052 721.16)" fill="#BB7C38"/>
</svg>
