<svg width="887" height="675" viewBox="0 0 887 675" fill="none" xmlns="http://www.w3.org/2000/svg">
<path d="M389.755 117.201C390.299 133.805 382.626 154.384 375.895 168.438C373.395 173.656 376.787 180.04 382.555 180.486L500.113 189.571C504.922 189.943 508.918 185.916 508.51 181.11L504.604 135.15C504.229 130.734 500.259 127.52 495.829 127.69C482.489 128.203 463.771 126.545 457.357 117.201C450.675 107.468 467.561 85.8688 481.038 71.8731C484.455 68.3253 484.083 62.5119 480.089 59.6297L461.803 46.4341C459.134 44.5081 455.541 44.4513 452.857 46.3563C429.052 63.2522 389.083 96.6812 389.755 117.201Z" fill="#9B5C18" stroke="black" stroke-width="15.6441"/>
<path d="M416.897 176.315C402.728 181.551 392.392 162.28 387.473 147.63C386.197 143.828 382.381 141.301 378.423 141.949C197.837 171.501 149.936 320.407 148.549 393.218C148.534 394.026 148.395 394.803 148.15 395.574C131.997 446.328 165.85 496.245 200.588 551.466C235.78 607.407 352.612 628.549 445.402 628.649C445.848 628.65 446.299 628.69 446.739 628.765C606.457 655.902 701.907 516.81 729.692 443.767C778.159 347.736 672.698 204.137 665.966 200.548C662.209 198.544 492.74 91.0539 480.174 140.865C467.608 190.675 437.54 168.687 416.897 176.315Z" fill="#CB8C48" stroke="black" stroke-width="15.6441"/>
<circle cx="546.835" cy="303.7" r="58.6653" fill="black"/>
<circle cx="344.635" cy="293.922" r="68.4429" fill="black"/>
<path d="M452.188 362.365L486.059 429.83H418.318L452.188 362.365Z" fill="black"/>
<path d="M413.078 179.329C404.995 188.976 389.69 211.791 393.132 225.87" stroke="black" stroke-width="15.6441"/>
<path d="M480.348 148.823C513.852 159.774 582.738 184.726 590.247 196.929" stroke="black" stroke-width="15.6441"/>
<path d="M459.229 170.725C477.48 177.243 514.609 194.191 517.112 209.835" stroke="black" stroke-width="15.6441"/>
<path d="M389.612 153.125C372.404 162.511 336.5 183.944 330.556 194.582" stroke="black" stroke-width="15.6441"/>
<path d="M213.812 354.39L213.221 355.112L214.007 358.845L216.594 380.117C217.111 384.368 220.95 387.413 225.207 386.949L252.741 383.945C257.048 383.475 260.916 386.595 261.368 390.904L267.661 450.835C268.209 456.053 273.637 459.263 278.473 457.229L308.927 444.419C313.579 442.462 318.84 445.358 319.674 450.336L328.17 501.047C329.196 507.173 336.609 509.716 341.18 505.511L382.2 467.773C385.832 464.431 391.614 465.247 394.179 469.464L412.245 499.162C414.987 503.669 421.312 504.225 424.798 500.266L457.236 463.43C460.619 459.588 466.72 459.978 469.587 464.219L498.231 506.594C502.428 512.803 512.11 510.126 512.522 502.644L515.409 450.203C515.681 445.245 520.446 441.793 525.243 443.078L597.787 462.509C601.188 463.42 604.779 461.947 606.559 458.909L628.647 421.23C629.609 419.589 629.94 417.653 629.578 415.785L619.282 362.699C618.397 358.134 621.666 353.809 626.3 353.416L697.849 347.347C701.99 346.996 705.682 349.943 706.257 354.058L709.162 374.838C709.787 379.31 706.506 383.381 702.004 383.721L659.063 386.961C653.708 387.366 650.343 392.923 652.468 397.856L669.558 437.529C672.715 444.858 664.159 451.654 657.734 446.921L645.96 438.245C641.436 434.911 634.977 437.294 633.702 442.767L619.894 502.027C618.74 506.977 613.246 509.53 608.719 507.218L569.457 487.17C565.605 485.203 560.888 486.735 558.928 490.59L521.642 563.908C519.014 569.076 511.875 569.689 508.404 565.046L463.977 505.609C460.954 501.565 454.949 501.402 451.711 505.275L407.75 557.861C403.372 563.098 394.855 560.606 393.99 553.835L389.187 516.248C388.382 509.944 380.793 507.181 376.123 511.491L321.378 562.025C316.862 566.194 309.523 563.765 308.386 557.726L297.103 497.84C296.34 493.792 292.569 491.029 288.48 491.522L221.584 499.586C215.608 500.306 211.091 494.288 213.453 488.751L239.225 428.33C241.278 423.517 238.119 418.085 232.921 417.49L182.487 411.711C176.338 411.006 173.404 403.777 177.324 398.986L213.221 355.112L213.029 354.199C212.924 353.7 213.602 353.442 213.854 353.885C213.946 354.045 213.93 354.246 213.812 354.39Z" fill="black" stroke="black" stroke-width="15.6441"/>
</svg>
