<svg width="620" height="702" viewBox="0 0 620 702" fill="none" xmlns="http://www.w3.org/2000/svg">
<path d="M253.831 412.284V313.539H399.038V463.109C430.499 467.466 504.457 479.954 548.6 495.056C592.743 510.158 608.619 567.179 611.039 593.802V693.999H70.3009H34.5696C25.3732 670.281 12.4982 612.389 34.5696 570.567C62.1588 518.29 95.5562 512.482 140.57 495.056C176.581 481.116 231.082 434.066 253.831 412.284Z" fill="#2E2E2E" stroke="black" stroke-width="10.5786"/>
<path d="M393.33 349.471H503.241L506.94 351.584L478.405 482.632L393.33 466.251V349.471Z" fill="#4E4E4E" stroke="#262626" stroke-width="10.5786"/>
<path d="M248.545 369.021H399.672V416.579V464.136H248.545V369.021Z" fill="#C6C6C6" stroke="#262626" stroke-width="10.5786"/>
<g filter="url(#filter0_d_145_867)">
<path d="M595.748 71.5254C567.002 72.7936 516.838 144.271 495.349 179.851C485.662 214.55 470.091 282.047 485.309 274.437C500.528 266.828 565.276 135.992 595.748 71.5254Z" fill="#C6C6C6"/>
<path d="M595.748 71.5254C567.002 72.7936 516.838 144.271 495.349 179.851C485.662 214.55 470.091 282.047 485.309 274.437C500.528 266.828 565.276 135.992 595.748 71.5254Z" stroke="black" stroke-width="10.5786"/>
</g>
<g filter="url(#filter1_d_145_867)">
<path d="M176.68 148.648V199.464C187.8 220.758 214.394 276.123 231.8 327.23C249.207 378.336 322.217 413.375 356.546 424.506H414.568C427.139 416.279 454.603 394.887 463.886 375.142C483.613 364.688 501.116 314.647 507.402 290.932C512.237 271.574 519.006 216.015 507.402 148.648C495.798 81.2802 431.974 31.529 401.513 15.0743C372.986 6.36297 304.037 -3.80022 256.459 25.2375C208.882 54.2752 183.449 119.61 176.68 148.648Z" fill="#C6C6C6"/>
<path d="M176.68 148.648V199.464C187.8 220.758 214.394 276.123 231.8 327.23C249.207 378.336 322.217 413.375 356.546 424.506H414.568C427.139 416.279 454.603 394.887 463.886 375.142C483.613 364.688 501.116 314.647 507.402 290.932C512.237 271.574 519.006 216.015 507.402 148.648C495.798 81.2802 431.974 31.529 401.513 15.0743C372.986 6.36297 304.037 -3.80022 256.459 25.2375C208.882 54.2752 183.449 119.61 176.68 148.648Z" stroke="black" stroke-width="10.5786"/>
</g>
<circle cx="307.727" cy="178.265" r="31.6999" fill="white" stroke="black" stroke-width="10.5786"/>
<circle cx="305.612" cy="181.435" r="14.2657" fill="#CF3520" stroke="black" stroke-width="3.17357"/>
<circle cx="305.085" cy="183.548" r="7.39783" fill="black"/>
<circle cx="425.036" cy="172.979" r="31.6999" fill="white" stroke="black" stroke-width="10.5786"/>
<circle cx="422.921" cy="176.151" r="14.2657" fill="#CF3520" stroke="black" stroke-width="3.17357"/>
<circle cx="423.451" cy="179.322" r="7.39783" fill="black"/>
<path d="M380.12 150.785L425.036 250.127L367.967 258.582" stroke="black" stroke-width="10.5786"/>
<path d="M394.916 314.126C379.698 310.322 333.972 325.928 313.012 334.206C315.654 336.319 389.104 343.719 394.916 344.247C399.566 344.67 428.911 339.844 443.002 337.378C427.15 317.826 413.411 318.75 394.916 314.126Z" fill="black" stroke="black" stroke-width="10.5786"/>
<path d="M351.359 312.657L338.509 335.688L323.127 314.265L351.359 312.657Z" fill="white" stroke="black" stroke-width="1.05786"/>
<path d="M440.222 312.598L424.532 333.797L412.016 310.583L440.222 312.598Z" fill="white" stroke="black" stroke-width="1.05786"/>
<rect x="434.547" y="312.48" width="15.8525" height="9.5115" fill="#C6C6C6"/>
<rect x="434.547" y="312.48" width="15.8525" height="9.5115" fill="#C6C6C6"/>
<rect x="434.547" y="312.48" width="15.8525" height="9.5115" fill="#C6C6C6"/>
<rect x="434.547" y="312.48" width="15.8525" height="9.5115" fill="#C6C6C6"/>
<rect x="434.547" y="312.48" width="15.8525" height="9.5115" fill="#C6C6C6"/>
<rect x="434.547" y="312.48" width="15.8525" height="9.5115" fill="#C6C6C6"/>
<rect x="419.75" y="305.084" width="24.3072" height="9.5115" fill="#C6C6C6"/>
<rect x="419.75" y="305.084" width="24.3072" height="9.5115" fill="#C6C6C6"/>
<rect x="419.75" y="305.084" width="24.3072" height="9.5115" fill="#C6C6C6"/>
<rect x="419.75" y="305.084" width="24.3072" height="9.5115" fill="#C6C6C6"/>
<rect x="419.75" y="305.084" width="24.3072" height="9.5115" fill="#C6C6C6"/>
<rect x="419.75" y="305.084" width="24.3072" height="9.5115" fill="#C6C6C6"/>
<ellipse cx="413.411" cy="310.368" rx="3.1705" ry="2.11367" fill="#C6C6C6"/>
<ellipse cx="415.524" cy="311.426" rx="3.1705" ry="2.11367" fill="#C6C6C6"/>
<path d="M346.831 254.355L301.387 318.294" stroke="#262626" stroke-width="5.28928"/>
<path d="M406.541 253.301C421.865 271.619 452.513 309.524 452.513 314.597" stroke="#262626" stroke-width="5.28928"/>
<ellipse cx="418.694" cy="312.481" rx="3.1705" ry="2.11367" fill="#C6C6C6"/>
<ellipse cx="423.979" cy="314.594" rx="3.1705" ry="2.11367" fill="#C6C6C6"/>
<ellipse cx="428.206" cy="315.653" rx="3.1705" ry="2.11367" fill="#C6C6C6"/>
<ellipse cx="431.376" cy="317.766" rx="3.1705" ry="2.11367" fill="#C6C6C6"/>
<ellipse cx="433.491" cy="315.653" rx="3.1705" ry="2.11367" fill="#C6C6C6"/>
<ellipse cx="434.546" cy="318.823" rx="3.1705" ry="2.11367" fill="#C6C6C6"/>
<path d="M426.174 313.22L435.753 322.77L412.677 312.338L426.174 313.22Z" fill="#C6C6C6"/>
<path d="M338.276 312.131L353.274 314.622L327.819 323.166L338.276 312.131Z" fill="#C6C6C6"/>
<path d="M338.276 312.131L353.274 314.622L327.819 323.166L338.276 312.131Z" fill="#C6C6C6"/>
<path d="M344.618 310.018L359.616 312.508L334.161 321.053L344.618 310.018Z" fill="#C6C6C6"/>
<path d="M344.618 310.018L359.616 312.508L334.161 321.053L344.618 310.018Z" fill="#C6C6C6"/>
<rect x="319.352" y="312.48" width="9.5115" height="10.5683" fill="#C6C6C6"/>
<rect x="319.352" y="312.48" width="9.5115" height="10.5683" fill="#C6C6C6"/>
<rect x="319.352" y="312.48" width="9.5115" height="10.5683" fill="#C6C6C6"/>
<rect x="328.863" y="311.426" width="9.5115" height="7.39783" fill="#C6C6C6"/>
<rect x="328.863" y="311.426" width="9.5115" height="7.39783" fill="#C6C6C6"/>
<rect x="328.863" y="311.426" width="9.5115" height="7.39783" fill="#C6C6C6"/>
<rect x="328.863" y="319.881" width="1.05683" height="2.11367" fill="#C6C6C6"/>
<rect x="328.863" y="319.881" width="1.05683" height="2.11367" fill="#C6C6C6"/>
<rect x="328.863" y="319.881" width="1.05683" height="2.11367" fill="#C6C6C6"/>
<rect x="321.467" y="314.596" width="10.5683" height="6.341" fill="#C6C6C6"/>
<rect x="321.467" y="314.596" width="10.5683" height="6.341" fill="#C6C6C6"/>
<rect x="321.467" y="314.596" width="10.5683" height="6.341" fill="#C6C6C6"/>
<path d="M346.301 137.709L254.885 121.723V94.7739C254.885 102.383 319.352 127.183 351.585 138.633L346.301 137.709Z" fill="#1D1D1D" stroke="black" stroke-width="10.5786"/>
<path d="M383.558 135.066L470.479 119.065V92.0899C470.479 99.7064 409.182 124.531 378.534 135.991L383.558 135.066Z" fill="#1D1D1D" stroke="black" stroke-width="10.5786"/>
<path d="M236.391 154.484L252.243 163.467V190.945" stroke="#262626" stroke-width="5.28928"/>
<path d="M278.135 90.0176C299.095 94.5972 341.439 105.659 343.13 113.268" stroke="#262626" stroke-width="5.28928"/>
<path d="M379.062 104.814L438.774 78.9219" stroke="#262626" stroke-width="5.28928"/>
<path d="M289.758 68.8813L349.469 79.4496C365.145 69.9381 399.774 50.8095 412.879 50.3867" stroke="#262626" stroke-width="5.28928"/>
<path d="M6 433.49L130.706 321.994V499.014C271.089 493.201 559.146 491.299 588.315 530.19C617.484 569.082 615.969 656.658 611.565 695.585H6V433.49Z" fill="#2E2E2E" stroke="#2E2E2E" stroke-width="10.5786"/>
<path d="M402.313 465.195H297.158L302.971 692.943H492.672L487.917 481.576L402.313 465.195Z" fill="white" stroke="#2E2E2E" stroke-width="10.5786"/>
<path d="M389.858 512.138L355.283 485.592L380.283 462.553L414.858 481.585L389.858 512.138L435.603 600.789L400.496 683.431L374.432 600.789L389.858 512.138Z" fill="#A75A50"/>
<path d="M389.858 512.138L355.283 485.592L380.283 462.553L414.858 481.585L389.858 512.138ZM389.858 512.138L374.432 600.789L400.496 683.431L435.603 600.789L389.858 512.138Z" stroke="#2E2E2E" stroke-width="10.5786"/>
<path d="M235.862 334.79C293.635 430.081 408.759 635.776 407.069 696.227C446.171 594.595 514.76 387.413 507.996 351.058C541.286 429.968 615.265 587.162 613.151 605.339L560.309 575.748L597.299 647.084L548.156 696.227H407.069H285.004C249.6 672.272 174.671 624.362 158.184 624.362L215.782 569.407H127.008L141.275 294.102C151.491 275.607 172.24 235.659 173.508 223.822C174.777 211.986 215.606 292.869 235.862 334.79Z" fill="#4E4E4E"/>
<path d="M407.069 696.227C408.759 635.776 293.635 430.081 235.862 334.79C215.606 292.869 174.777 211.986 173.508 223.822C172.24 235.659 151.491 275.607 141.275 294.102L127.008 569.407H215.782L158.184 624.362C174.671 624.362 249.6 672.272 285.004 696.227H407.069ZM407.069 696.227C446.171 594.595 514.76 387.413 507.996 351.058C541.286 429.968 615.265 587.162 613.151 605.339L560.309 575.748L597.299 647.084L548.156 696.227H407.069Z" stroke="#262626" stroke-width="10.5786"/>
<path d="M380.647 457.27L324.635 504.299L300.328 457.27H380.647L476.819 466.781L466.251 504.299L380.647 457.27Z" fill="#BFBFBF"/>
<path d="M380.647 457.27L324.635 504.299L300.328 457.27H380.647ZM380.647 457.27L466.251 504.299L476.819 466.781L380.647 457.27Z" stroke="#2E2E2E" stroke-width="10.5786"/>
<g filter="url(#filter2_d_145_867)">
<path d="M90.0176 58.857C126.373 57.5888 201.337 136.182 234.275 175.637V286.075C217.366 291.994 189.36 281.834 189.36 270.208C189.36 239.56 130.001 118.392 90.0176 58.857Z" fill="#C6C6C6"/>
<path d="M90.0176 58.857C126.373 57.5888 201.337 136.182 234.275 175.637V286.075C217.366 291.994 189.36 281.834 189.36 270.208C189.36 239.56 130.001 118.392 90.0176 58.857Z" stroke="black" stroke-width="10.5786"/>
</g>
<rect x="224.236" y="178.266" width="34.8755" height="104.626" fill="#C6C6C6"/>
<path d="M156.598 127.537L189.359 164.469M224.235 258.584L218.092 242.203M218.092 242.203L206.797 212.084L214.723 193.061L189.359 164.469M218.092 242.203C214.679 245.902 206.269 251.081 199.928 242.203C192.002 231.107 163.995 169.167 189.359 164.469" stroke="black" stroke-width="10.5786"/>
<defs>
<filter id="filter0_d_145_867" x="469.415" y="65.8555" width="139.096" height="222.928" filterUnits="userSpaceOnUse" color-interpolation-filters="sRGB">
<feFlood flood-opacity="0" result="BackgroundImageFix"/>
<feColorMatrix in="SourceAlpha" type="matrix" values="0 0 0 0 0 0 0 0 0 0 0 0 0 0 0 0 0 0 127 0" result="hardAlpha"/>
<feOffset dy="4.23142"/>
<feGaussianBlur stdDeviation="2.11571"/>
<feComposite in2="hardAlpha" operator="out"/>
<feColorMatrix type="matrix" values="0 0 0 0 0 0 0 0 0 0 0 0 0 0 0 0 0 0 0.25 0"/>
<feBlend mode="normal" in2="BackgroundImageFix" result="effect1_dropShadow_145_867"/>
<feBlend mode="normal" in="SourceGraphic" in2="effect1_dropShadow_145_867" result="shape"/>
</filter>
<filter id="filter1_d_145_867" x="167.159" y="0.710938" width="356.172" height="437.547" filterUnits="userSpaceOnUse" color-interpolation-filters="sRGB">
<feFlood flood-opacity="0" result="BackgroundImageFix"/>
<feColorMatrix in="SourceAlpha" type="matrix" values="0 0 0 0 0 0 0 0 0 0 0 0 0 0 0 0 0 0 127 0" result="hardAlpha"/>
<feOffset dy="4.23142"/>
<feGaussianBlur stdDeviation="2.11571"/>
<feComposite in2="hardAlpha" operator="out"/>
<feColorMatrix type="matrix" values="0 0 0 0 0 0 0 0 0 0 0 0 0 0 0 0 0 0 0.25 0"/>
<feBlend mode="normal" in2="BackgroundImageFix" result="effect1_dropShadow_145_867"/>
<feBlend mode="normal" in="SourceGraphic" in2="effect1_dropShadow_145_867" result="shape"/>
</filter>
<filter id="filter2_d_145_867" x="76.0869" y="53.5527" width="167.709" height="248.014" filterUnits="userSpaceOnUse" color-interpolation-filters="sRGB">
<feFlood flood-opacity="0" result="BackgroundImageFix"/>
<feColorMatrix in="SourceAlpha" type="matrix" values="0 0 0 0 0 0 0 0 0 0 0 0 0 0 0 0 0 0 127 0" result="hardAlpha"/>
<feOffset dy="4.23142"/>
<feGaussianBlur stdDeviation="2.11571"/>
<feComposite in2="hardAlpha" operator="out"/>
<feColorMatrix type="matrix" values="0 0 0 0 0 0 0 0 0 0 0 0 0 0 0 0 0 0 0.25 0"/>
<feBlend mode="normal" in2="BackgroundImageFix" result="effect1_dropShadow_145_867"/>
<feBlend mode="normal" in="SourceGraphic" in2="effect1_dropShadow_145_867" result="shape"/>
</filter>
</defs>
</svg>
