<svg width="670" height="800" viewBox="0 0 670 800" fill="none" xmlns="http://www.w3.org/2000/svg">
<path d="M278.831 461.284V362.539H424.038V512.109C455.499 516.466 529.457 528.954 573.6 544.056C617.743 559.158 633.619 616.179 636.039 642.802V742.999H95.3009H59.5696C50.3732 719.281 37.4982 661.389 59.5696 619.567C87.1588 567.29 120.556 561.482 165.57 544.056C201.581 530.116 256.082 483.066 278.831 461.284Z" fill="#2E2E2E" stroke="black" stroke-width="10.5786"/>
<path d="M418.33 398.471H528.241L531.94 400.584L503.405 531.632L418.33 515.251V398.471Z" fill="#4E4E4E" stroke="#262626" stroke-width="10.5786"/>
<path d="M273.545 418.021H424.672V465.579V513.136H273.545V418.021Z" fill="#C6C6C6" stroke="#262626" stroke-width="10.5786"/>
<g filter="url(#filter0_d_192_568)">
<path d="M620.748 120.525C592.002 121.794 541.838 193.271 520.349 228.851C510.662 263.55 495.091 331.047 510.309 323.437C525.528 315.828 590.276 184.992 620.748 120.525Z" fill="#C6C6C6"/>
<path d="M620.748 120.525C592.002 121.794 541.838 193.271 520.349 228.851C510.662 263.55 495.091 331.047 510.309 323.437C525.528 315.828 590.276 184.992 620.748 120.525Z" stroke="black" stroke-width="10.5786"/>
</g>
<g filter="url(#filter1_d_192_568)">
<path d="M201.68 197.648V248.464C212.8 269.758 239.394 325.123 256.8 376.23C274.207 427.336 347.217 462.375 381.546 473.506H439.568C452.139 465.279 479.603 443.887 488.886 424.142C508.613 413.688 526.116 363.647 532.402 339.932C537.237 320.574 544.006 265.015 532.402 197.648C520.798 130.28 456.974 80.529 426.513 64.0743C397.986 55.363 329.037 45.1998 281.459 74.2375C233.882 103.275 208.449 168.61 201.68 197.648Z" fill="#C6C6C6"/>
<path d="M201.68 197.648V248.464C212.8 269.758 239.394 325.123 256.8 376.23C274.207 427.336 347.217 462.375 381.546 473.506H439.568C452.139 465.279 479.603 443.887 488.886 424.142C508.613 413.688 526.116 363.647 532.402 339.932C537.237 320.574 544.006 265.015 532.402 197.648C520.798 130.28 456.974 80.529 426.513 64.0743C397.986 55.363 329.037 45.1998 281.459 74.2375C233.882 103.275 208.449 168.61 201.68 197.648Z" stroke="black" stroke-width="10.5786"/>
</g>
<circle cx="332.727" cy="227.265" r="31.6999" fill="white" stroke="black" stroke-width="10.5786"/>
<circle cx="330.612" cy="230.435" r="14.2657" fill="#CF3520" stroke="black" stroke-width="3.17357"/>
<circle cx="330.085" cy="232.548" r="7.39783" fill="black"/>
<circle cx="450.036" cy="221.979" r="31.6999" fill="white" stroke="black" stroke-width="10.5786"/>
<circle cx="447.921" cy="225.151" r="14.2657" fill="#CF3520" stroke="black" stroke-width="3.17357"/>
<circle cx="448.451" cy="228.322" r="7.39783" fill="black"/>
<path d="M405.12 199.785L450.036 299.127L392.967 307.582" stroke="black" stroke-width="10.5786"/>
<path d="M419.916 363.126C404.698 359.322 358.972 374.928 338.012 383.206C340.654 385.319 414.104 392.719 419.916 393.247C424.566 393.67 453.911 388.844 468.002 386.378C452.15 366.826 438.411 367.75 419.916 363.126Z" fill="black" stroke="black" stroke-width="10.5786"/>
<path d="M376.359 361.657L363.509 384.688L348.127 363.265L376.359 361.657Z" fill="white" stroke="black" stroke-width="1.05786"/>
<path d="M465.222 361.598L449.532 382.797L437.016 359.583L465.222 361.598Z" fill="white" stroke="black" stroke-width="1.05786"/>
<rect x="459.547" y="361.48" width="15.8525" height="9.5115" fill="#C6C6C6"/>
<rect x="459.547" y="361.48" width="15.8525" height="9.5115" fill="#C6C6C6"/>
<rect x="459.547" y="361.48" width="15.8525" height="9.5115" fill="#C6C6C6"/>
<rect x="459.547" y="361.48" width="15.8525" height="9.5115" fill="#C6C6C6"/>
<rect x="459.547" y="361.48" width="15.8525" height="9.5115" fill="#C6C6C6"/>
<rect x="459.547" y="361.48" width="15.8525" height="9.5115" fill="#C6C6C6"/>
<rect x="444.75" y="354.084" width="24.3072" height="9.5115" fill="#C6C6C6"/>
<rect x="444.75" y="354.084" width="24.3072" height="9.5115" fill="#C6C6C6"/>
<rect x="444.75" y="354.084" width="24.3072" height="9.5115" fill="#C6C6C6"/>
<rect x="444.75" y="354.084" width="24.3072" height="9.5115" fill="#C6C6C6"/>
<rect x="444.75" y="354.084" width="24.3072" height="9.5115" fill="#C6C6C6"/>
<rect x="444.75" y="354.084" width="24.3072" height="9.5115" fill="#C6C6C6"/>
<ellipse cx="438.411" cy="359.368" rx="3.1705" ry="2.11367" fill="#C6C6C6"/>
<ellipse cx="440.524" cy="360.426" rx="3.1705" ry="2.11367" fill="#C6C6C6"/>
<path d="M371.831 303.355L326.387 367.294" stroke="#262626" stroke-width="5.28928"/>
<path d="M431.541 302.301C446.865 320.619 477.513 358.524 477.513 363.597" stroke="#262626" stroke-width="5.28928"/>
<ellipse cx="443.694" cy="361.481" rx="3.1705" ry="2.11367" fill="#C6C6C6"/>
<ellipse cx="448.979" cy="363.594" rx="3.1705" ry="2.11367" fill="#C6C6C6"/>
<ellipse cx="453.206" cy="364.653" rx="3.1705" ry="2.11367" fill="#C6C6C6"/>
<ellipse cx="456.376" cy="366.766" rx="3.1705" ry="2.11367" fill="#C6C6C6"/>
<ellipse cx="458.491" cy="364.653" rx="3.1705" ry="2.11367" fill="#C6C6C6"/>
<ellipse cx="459.546" cy="367.823" rx="3.1705" ry="2.11367" fill="#C6C6C6"/>
<path d="M451.174 362.22L460.753 371.77L437.677 361.338L451.174 362.22Z" fill="#C6C6C6"/>
<path d="M363.276 361.131L378.274 363.622L352.819 372.166L363.276 361.131Z" fill="#C6C6C6"/>
<path d="M363.276 361.131L378.274 363.622L352.819 372.166L363.276 361.131Z" fill="#C6C6C6"/>
<path d="M369.618 359.018L384.616 361.508L359.161 370.053L369.618 359.018Z" fill="#C6C6C6"/>
<path d="M369.618 359.018L384.616 361.508L359.161 370.053L369.618 359.018Z" fill="#C6C6C6"/>
<rect x="344.352" y="361.48" width="9.5115" height="10.5683" fill="#C6C6C6"/>
<rect x="344.352" y="361.48" width="9.5115" height="10.5683" fill="#C6C6C6"/>
<rect x="344.352" y="361.48" width="9.5115" height="10.5683" fill="#C6C6C6"/>
<rect x="353.863" y="360.426" width="9.5115" height="7.39783" fill="#C6C6C6"/>
<rect x="353.863" y="360.426" width="9.5115" height="7.39783" fill="#C6C6C6"/>
<rect x="353.863" y="360.426" width="9.5115" height="7.39783" fill="#C6C6C6"/>
<rect x="353.863" y="368.881" width="1.05683" height="2.11367" fill="#C6C6C6"/>
<rect x="353.863" y="368.881" width="1.05683" height="2.11367" fill="#C6C6C6"/>
<rect x="353.863" y="368.881" width="1.05683" height="2.11367" fill="#C6C6C6"/>
<rect x="346.467" y="363.596" width="10.5683" height="6.341" fill="#C6C6C6"/>
<rect x="346.467" y="363.596" width="10.5683" height="6.341" fill="#C6C6C6"/>
<rect x="346.467" y="363.596" width="10.5683" height="6.341" fill="#C6C6C6"/>
<path d="M371.301 186.709L279.885 170.723V143.774C279.885 151.383 344.352 176.183 376.585 187.633L371.301 186.709Z" fill="#1D1D1D" stroke="black" stroke-width="10.5786"/>
<path d="M408.558 184.066L495.479 168.065V141.09C495.479 148.706 434.182 173.531 403.534 184.991L408.558 184.066Z" fill="#1D1D1D" stroke="black" stroke-width="10.5786"/>
<path d="M261.391 203.484L277.243 212.467V239.945" stroke="#262626" stroke-width="5.28928"/>
<path d="M303.135 139.018C324.095 143.597 366.439 154.659 368.13 162.268" stroke="#262626" stroke-width="5.28928"/>
<path d="M404.062 153.814L463.774 127.922" stroke="#262626" stroke-width="5.28928"/>
<path d="M314.758 117.881L374.469 128.45C390.145 118.938 424.774 99.8095 437.879 99.3867" stroke="#262626" stroke-width="5.28928"/>
<path d="M31 482.49L155.706 370.994V548.014C296.089 542.201 584.146 540.299 613.315 579.19C642.484 618.082 640.969 705.658 636.565 744.585H31V482.49Z" fill="#2E2E2E" stroke="#2E2E2E" stroke-width="10.5786"/>
<path d="M427.313 514.195H322.158L327.971 741.943H517.672L512.917 530.576L427.313 514.195Z" fill="white" stroke="#2E2E2E" stroke-width="10.5786"/>
<path d="M414.858 561.138L380.283 534.592L405.283 511.553L439.858 530.585L414.858 561.138L460.603 649.789L425.496 732.431L399.432 649.789L414.858 561.138Z" fill="#A75A50"/>
<path d="M414.858 561.138L380.283 534.592L405.283 511.553L439.858 530.585L414.858 561.138ZM414.858 561.138L399.432 649.789L425.496 732.431L460.603 649.789L414.858 561.138Z" stroke="#2E2E2E" stroke-width="10.5786"/>
<path d="M260.862 383.79C318.635 479.081 433.759 684.776 432.069 745.227C471.171 643.595 539.76 436.413 532.996 400.058C566.286 478.968 640.265 636.162 638.151 654.339L585.309 624.748L622.299 696.084L573.156 745.227H432.069H310.004C274.6 721.272 199.671 673.362 183.184 673.362L240.782 618.407H152.008L166.275 343.102C176.491 324.607 197.24 284.659 198.508 272.822C199.777 260.986 240.606 341.869 260.862 383.79Z" fill="#4E4E4E"/>
<path d="M432.069 745.227C433.759 684.776 318.635 479.081 260.862 383.79C240.606 341.869 199.777 260.986 198.508 272.822C197.24 284.659 176.491 324.607 166.275 343.102L152.008 618.407H240.782L183.184 673.362C199.671 673.362 274.6 721.272 310.004 745.227H432.069ZM432.069 745.227C471.171 643.595 539.76 436.413 532.996 400.058C566.286 478.968 640.265 636.162 638.151 654.339L585.309 624.748L622.299 696.084L573.156 745.227H432.069Z" stroke="#262626" stroke-width="10.5786"/>
<path d="M405.647 506.27L349.635 553.299L325.328 506.27H405.647L501.819 515.781L491.251 553.299L405.647 506.27Z" fill="#BFBFBF"/>
<path d="M405.647 506.27L349.635 553.299L325.328 506.27H405.647ZM405.647 506.27L491.251 553.299L501.819 515.781L405.647 506.27Z" stroke="#2E2E2E" stroke-width="10.5786"/>
<g filter="url(#filter2_d_192_568)">
<path d="M115.018 107.857C151.373 106.589 226.337 185.182 259.275 224.637V335.075C242.366 340.994 214.36 330.834 214.36 319.208C214.36 288.56 155.001 167.392 115.018 107.857Z" fill="#C6C6C6"/>
<path d="M115.018 107.857C151.373 106.589 226.337 185.182 259.275 224.637V335.075C242.366 340.994 214.36 330.834 214.36 319.208C214.36 288.56 155.001 167.392 115.018 107.857Z" stroke="black" stroke-width="10.5786"/>
</g>
<rect x="249.236" y="227.266" width="34.8755" height="104.626" fill="#C6C6C6"/>
<path d="M181.598 176.537L214.359 213.469M249.235 307.584L243.092 291.203M243.092 291.203L231.797 261.084L239.723 242.061L214.359 213.469M243.092 291.203C239.679 294.902 231.269 300.081 224.928 291.203C217.002 280.107 188.995 218.167 214.359 213.469" stroke="black" stroke-width="10.5786"/>
<defs>
<filter id="filter0_d_192_568" x="494.415" y="114.855" width="139.096" height="222.928" filterUnits="userSpaceOnUse" color-interpolation-filters="sRGB">
<feFlood flood-opacity="0" result="BackgroundImageFix"/>
<feColorMatrix in="SourceAlpha" type="matrix" values="0 0 0 0 0 0 0 0 0 0 0 0 0 0 0 0 0 0 127 0" result="hardAlpha"/>
<feOffset dy="4.23142"/>
<feGaussianBlur stdDeviation="2.11571"/>
<feComposite in2="hardAlpha" operator="out"/>
<feColorMatrix type="matrix" values="0 0 0 0 0 0 0 0 0 0 0 0 0 0 0 0 0 0 0.25 0"/>
<feBlend mode="normal" in2="BackgroundImageFix" result="effect1_dropShadow_192_568"/>
<feBlend mode="normal" in="SourceGraphic" in2="effect1_dropShadow_192_568" result="shape"/>
</filter>
<filter id="filter1_d_192_568" x="192.159" y="49.7109" width="356.172" height="437.547" filterUnits="userSpaceOnUse" color-interpolation-filters="sRGB">
<feFlood flood-opacity="0" result="BackgroundImageFix"/>
<feColorMatrix in="SourceAlpha" type="matrix" values="0 0 0 0 0 0 0 0 0 0 0 0 0 0 0 0 0 0 127 0" result="hardAlpha"/>
<feOffset dy="4.23142"/>
<feGaussianBlur stdDeviation="2.11571"/>
<feComposite in2="hardAlpha" operator="out"/>
<feColorMatrix type="matrix" values="0 0 0 0 0 0 0 0 0 0 0 0 0 0 0 0 0 0 0.25 0"/>
<feBlend mode="normal" in2="BackgroundImageFix" result="effect1_dropShadow_192_568"/>
<feBlend mode="normal" in="SourceGraphic" in2="effect1_dropShadow_192_568" result="shape"/>
</filter>
<filter id="filter2_d_192_568" x="101.087" y="102.553" width="167.709" height="248.014" filterUnits="userSpaceOnUse" color-interpolation-filters="sRGB">
<feFlood flood-opacity="0" result="BackgroundImageFix"/>
<feColorMatrix in="SourceAlpha" type="matrix" values="0 0 0 0 0 0 0 0 0 0 0 0 0 0 0 0 0 0 127 0" result="hardAlpha"/>
<feOffset dy="4.23142"/>
<feGaussianBlur stdDeviation="2.11571"/>
<feComposite in2="hardAlpha" operator="out"/>
<feColorMatrix type="matrix" values="0 0 0 0 0 0 0 0 0 0 0 0 0 0 0 0 0 0 0.25 0"/>
<feBlend mode="normal" in2="BackgroundImageFix" result="effect1_dropShadow_192_568"/>
<feBlend mode="normal" in="SourceGraphic" in2="effect1_dropShadow_192_568" result="shape"/>
</filter>
</defs>
</svg>
